<svg width="60" height="60" viewBox="0 0 60 60" fill="none" xmlns="http://www.w3.org/2000/svg">
<path d="M52.8073 0.75H52.8074H56.7286C57.4038 0.75 58.0474 1.01122 58.5188 1.46999C58.9894 1.92808 59.25 2.54498 59.25 3.18379C59.25 3.82261 58.9894 4.43951 58.5188 4.8976C58.0474 5.35636 57.4038 5.61759 56.7286 5.61759H52.803H52.8028C50.84 5.61807 48.915 6.15179 47.2443 7.16043C45.5735 8.16916 44.2225 9.6136 43.3458 11.3333L43.3457 11.3335L41.5443 14.8696L41.5443 14.8696L41.5418 14.8745C41.3979 15.162 41.1963 15.4204 40.9476 15.6341C40.6988 15.8479 40.4079 16.0125 40.0913 16.1177C39.7747 16.2228 39.4393 16.2661 39.1047 16.2447C38.77 16.2233 38.4437 16.1377 38.1446 15.9934C37.8456 15.8492 37.5801 15.6494 37.363 15.4067C37.1458 15.1639 36.9812 14.8829 36.8775 14.5803C36.7738 14.2776 36.7328 13.9586 36.7565 13.6412C36.7802 13.3239 36.8682 13.0135 37.0162 12.7278L37.0162 12.7278L37.0186 12.7233L38.82 9.1872C40.1092 6.65703 42.1004 4.52475 44.5718 3.03292C47.0434 1.541 49.8958 0.749701 52.8073 0.75Z" fill="#934AF7" stroke="black" stroke-width="1.5"/>
<path d="M8.73134 51.2687C3.62097 46.1583 0.75 39.2271 0.75 32C0.75 24.7729 3.62097 17.8417 8.73134 12.7313C13.8417 7.62097 20.7729 4.75 28 4.75C35.2271 4.75 42.1583 7.62097 47.2687 12.7313C52.379 17.8417 55.25 24.7729 55.25 32C55.25 39.2271 52.379 46.1583 47.2687 51.2687C42.1583 56.379 35.2271 59.25 28 59.25C20.7729 59.25 13.8417 56.379 8.73134 51.2687Z" fill="#934AF7" stroke="black" stroke-width="1.5"/>
<path d="M28.2059 21.5441C25.2037 21.5441 22.3168 22.6736 20.1823 24.6958C18.0463 26.7193 16.8382 29.4728 16.8382 32.3529C16.8382 32.8426 16.6333 33.3209 16.254 33.6802C15.8734 34.0408 15.3489 34.25 14.7941 34.25C14.2393 34.25 13.7148 34.0408 13.3342 33.6802C12.9549 33.3209 12.75 32.8426 12.75 32.3529C12.75 28.4935 14.368 24.7833 17.2624 22.0412C20.1582 19.2978 24.094 17.75 28.2059 17.75C28.7607 17.75 29.2852 17.9592 29.6658 18.3198C30.0451 18.6791 30.25 19.1574 30.25 19.6471C30.25 20.1367 30.0451 20.6151 29.6658 20.9743C29.2852 21.3349 28.7607 21.5441 28.2059 21.5441Z" fill="#934AF7" stroke="black" stroke-width="1.5"/>
</svg>
