<svg width="55" height="55" viewBox="0 0 55 55" fill="none" xmlns="http://www.w3.org/2000/svg">
<g clip-path="url(#clip0_480_32099)">
<path d="M54.25 27.5C54.25 34.5945 51.4317 41.3985 46.4151 46.4151C41.3985 51.4317 34.5945 54.25 27.5 54.25C20.4055 54.25 13.6015 51.4317 8.58489 46.4151C3.5683 41.3985 0.75 34.5945 0.75 27.5C0.75 20.4055 3.5683 13.6015 8.58489 8.58489C13.6015 3.5683 20.4055 0.75 27.5 0.75C34.5945 0.75 41.3985 3.5683 46.4151 8.58489C51.4317 13.6015 54.25 20.4055 54.25 27.5ZM23.0039 19.4233C23.8066 19.0908 24.6669 18.9196 25.5357 18.9196C27.2904 18.9196 28.9732 19.6167 30.214 20.8574C31.4547 22.0982 32.1518 23.781 32.1518 25.5357C32.1518 27.2904 31.4547 28.9732 30.214 30.214C28.9732 31.4547 27.2904 32.1518 25.5357 32.1518C24.6669 32.1518 23.8066 31.9807 23.0039 31.6482C22.2012 31.3157 21.4718 30.8283 20.8574 30.214C20.2431 29.5996 19.7557 28.8703 19.4233 28.0676C19.0908 27.2649 18.9196 26.4045 18.9196 25.5357C18.9196 24.6669 19.0908 23.8066 19.4233 23.0039C19.7557 22.2012 20.2431 21.4718 20.8574 20.8574C21.4718 20.2431 22.2012 19.7557 23.0039 19.4233ZM13.896 19.6859C12.9839 21.501 12.5088 23.5043 12.5089 25.5357C12.509 27.8891 13.1466 30.1985 14.354 32.2186C15.5613 34.2387 17.2934 35.8939 19.3661 37.0085C21.4388 38.1231 23.7747 38.6554 26.1257 38.5488C28.2713 38.4515 30.3564 37.8254 32.1968 36.7303L37.019 41.5525C37.6201 42.1537 38.4355 42.4914 39.2857 42.4914C40.1359 42.4914 40.9513 42.1537 41.5525 41.5525C42.1537 40.9513 42.4914 40.1359 42.4914 39.2857C42.4914 38.4355 42.1537 37.6201 41.5525 37.019L36.7304 32.1968C37.6618 30.6316 38.2558 28.8863 38.4714 27.0731C38.7112 25.0559 38.476 23.0106 37.7844 21.1005C37.0928 19.1904 35.9642 17.4685 34.4885 16.0724C33.0129 14.6763 31.2312 13.6446 29.2857 13.0598C27.3403 12.4751 25.2851 12.3534 23.2842 12.7045C21.2834 13.0556 19.3924 13.8697 17.7623 15.082C16.1322 16.2942 14.8081 17.8708 13.896 19.6859Z" fill="#934AF7" stroke="black" stroke-width="1.5"/>
</g>
<defs>
<clipPath id="clip0_480_32099">
<rect width="55" height="55" fill="white"/>
</clipPath>
</defs>
</svg>
