<svg width="40" height="42" viewBox="0 0 40 42" fill="none" xmlns="http://www.w3.org/2000/svg">
<path d="M8.7647 6.14419L9.2248 6.10735V5.64579V2.5492C9.2248 2.01317 9.65935 1.57861 10.1954 1.57861C10.7314 1.57861 11.166 2.01317 11.166 2.5492V5.51567V6.02546L11.6757 6.01558C12.9743 5.9904 14.4312 5.99038 16.0777 5.99038H23.9209C25.5673 5.99038 27.0243 5.9904 28.3229 6.01558L28.8326 6.02546V5.51567V2.5492C28.8326 2.01317 29.2672 1.57861 29.8032 1.57861C30.3392 1.57861 30.7738 2.01317 30.7738 2.5492V5.64579V6.10735L31.2339 6.14419C34.0209 6.36736 35.7237 6.90849 36.9563 8.14113C38.1073 9.29209 38.6554 10.853 38.9046 13.3237H1.09394C1.34319 10.853 1.89125 9.29209 3.04221 8.14113C4.27485 6.90849 5.97765 6.36736 8.7647 6.14419Z" fill="#FBB800" stroke="black"/>
<path d="M36.9575 38.1334L36.9574 38.1335C35.9173 39.1737 34.5418 39.7219 32.4614 40.0016C30.3667 40.2832 27.6334 40.2843 23.922 40.2843H16.0789C12.3674 40.2843 9.63416 40.2832 7.53942 40.0016C5.45908 39.7219 4.08355 39.1737 3.04333 38.1334L3.04332 38.1334C2.00312 37.0933 1.45497 35.7178 1.17527 33.6374C0.89364 31.5427 0.892578 28.8094 0.892578 25.098V21.1764C0.892578 19.7341 0.892593 18.4371 0.909526 17.2646H39.0913C39.1082 18.4371 39.1083 19.734 39.1083 21.1764V25.098C39.1083 28.8094 39.1072 31.5427 38.8256 33.6374C38.5459 35.7178 37.9977 37.0933 36.9575 38.1334ZM29.8043 25.598C31.1634 25.598 32.2651 24.4963 32.2651 23.1372C32.2651 21.7781 31.1634 20.6764 29.8043 20.6764C28.4453 20.6764 27.3436 21.7781 27.3436 23.1372C27.3436 24.4963 28.4453 25.598 29.8043 25.598ZM29.8043 33.4411C31.1634 33.4411 32.2651 32.3394 32.2651 30.9803C32.2651 29.6213 31.1634 28.5196 29.8043 28.5196C28.4453 28.5196 27.3436 29.6213 27.3436 30.9803C27.3436 32.3394 28.4453 33.4411 29.8043 33.4411ZM20.0004 25.598C21.3595 25.598 22.4612 24.4963 22.4612 23.1372C22.4612 21.7781 21.3595 20.6764 20.0004 20.6764C18.6413 20.6764 17.5396 21.7781 17.5396 23.1372C17.5396 24.4963 18.6413 25.598 20.0004 25.598ZM20.0004 33.4411C21.3595 33.4411 22.4612 32.3394 22.4612 30.9803C22.4612 29.6213 21.3595 28.5196 20.0004 28.5196C18.6413 28.5196 17.5396 29.6213 17.5396 30.9803C17.5396 32.3394 18.6413 33.4411 20.0004 33.4411ZM10.1965 25.598C11.5555 25.598 12.6573 24.4963 12.6573 23.1372C12.6573 21.7781 11.5555 20.6764 10.1965 20.6764C8.83746 20.6764 7.73571 21.7781 7.73571 23.1372C7.73571 24.4963 8.83746 25.598 10.1965 25.598ZM10.1965 33.4411C11.5555 33.4411 12.6573 32.3394 12.6573 30.9803C12.6573 29.6212 11.5555 28.5196 10.1965 28.5196C8.83746 28.5196 7.73571 29.6212 7.73571 30.9803C7.73571 32.3394 8.83746 33.4411 10.1965 33.4411Z" fill="#FBB800" stroke="black"/>
</svg>
