<svg width="50" height="50" viewBox="0 0 50 50" fill="none" xmlns="http://www.w3.org/2000/svg">
<g clip-path="url(#clip0_778_37578)">
<path d="M30.8547 39.7985L32.1492 37.8568C32.3443 37.5641 32.2785 37.1707 31.9981 36.9582C29.9364 35.3961 27.1671 33.1138 24.7536 30.4979C21.39 26.8525 19.6846 23.583 19.6846 20.7802C19.6846 12.6252 26.3191 5.99072 34.474 5.99072C42.6289 5.99072 49.2635 12.6253 49.2635 20.7802C49.2635 23.583 47.558 26.8526 44.1945 30.498C41.7811 33.1139 39.0116 35.3962 36.95 36.9583C36.6695 37.1707 36.6038 37.5642 36.7989 37.8569L38.0935 39.7986C38.3882 40.2407 38.0713 40.8329 37.5399 40.8329H31.4083C30.877 40.8328 30.56 40.2406 30.8547 39.7985Z" fill="#FBB800"/>
<path d="M11.9064 34.5446L13.201 32.6029C13.3961 32.3102 13.3303 31.9168 13.0499 31.7043C10.9882 30.1422 8.21885 27.8599 5.80537 25.244C2.4418 21.5986 0.736328 18.3291 0.736328 15.5263C0.736328 7.37129 7.3709 0.736816 15.5258 0.736816C23.6807 0.736816 30.3152 7.37139 30.3152 15.5263C30.3152 18.3291 28.6098 21.5987 25.2463 25.2441C22.8328 27.86 20.0634 30.1423 18.0018 31.7044C17.7213 31.9168 17.6556 32.3103 17.8507 32.603L19.1452 34.5447C19.4399 34.9868 19.123 35.579 18.5917 35.579H12.4601C11.9287 35.5789 11.6117 34.9867 11.9064 34.5446Z" fill="#DD403F"/>
<path d="M15.5258 37.8945C15.0896 37.8945 14.7363 38.248 14.7363 38.684V49.2103C14.7363 49.6463 15.0896 49.9997 15.5258 49.9997C15.9619 49.9997 16.3152 49.6462 16.3152 49.2103V38.684C16.3153 38.248 15.9619 37.8945 15.5258 37.8945Z" fill="#FF3501"/>
<path d="M34.474 49.9998C34.0379 49.9998 33.6846 49.6463 33.6846 49.2103V43.9472C33.6846 43.5111 34.0379 43.1577 34.474 43.1577C34.9102 43.1577 35.2635 43.5112 35.2635 43.9472V49.2103C35.2636 49.6463 34.9102 49.9998 34.474 49.9998Z" fill="#FFA733"/>
<path d="M15.5258 37.8945C15.0896 37.8945 14.7363 38.248 14.7363 38.684V49.2103C14.7363 49.6463 15.0896 49.9997 15.5258 49.9997C15.9619 49.9997 16.3152 49.6462 16.3152 49.2103V38.684C16.3153 38.248 15.9619 37.8945 15.5258 37.8945Z" fill="black"/>
<path d="M34.4736 5.26318C32.2885 5.26318 30.184 5.70664 28.209 6.57998C25.3948 2.60215 20.7589 0 15.5263 0C6.96504 0 0 6.96504 0 15.5263C0 18.4626 1.72539 21.8467 5.12813 25.5848C7.5833 28.282 10.422 30.6337 12.5511 32.2504L10.659 35.0884C10.4976 35.3306 10.4823 35.6421 10.6198 35.8988C10.7572 36.1555 11.0248 36.3158 11.3158 36.3158H19.7369C20.028 36.3158 20.2956 36.1556 20.4329 35.8988C20.5704 35.6421 20.5553 35.3307 20.3937 35.0884L18.5017 32.2504C19.6751 31.3594 21.0644 30.244 22.4859 28.9717C25.258 32.5095 29.0864 35.6801 31.4984 37.5134L29.6063 40.3516C29.4449 40.5938 29.4297 40.9053 29.5672 41.162C29.7046 41.4187 29.9722 41.579 30.2632 41.579H38.6843C38.9754 41.579 39.243 41.4188 39.3803 41.162C39.5178 40.9053 39.5026 40.5938 39.3411 40.3516L37.449 37.5136C39.5781 35.897 42.4167 33.5451 44.872 30.8479C48.2746 27.1099 50 23.7258 50 20.7895C50 12.2282 43.035 5.26318 34.4736 5.26318ZM35.9068 36.6971C35.5691 36.9477 35.488 37.4185 35.7213 37.7684L37.2091 40H31.7383L33.2262 37.7684C33.4597 37.4182 33.3772 36.9469 33.0393 36.6962C30.7511 34.9979 26.5527 31.6396 23.6504 27.8986C24.4232 27.1649 25.191 26.3908 25.9245 25.5851C26.2139 25.2672 26.4906 24.9521 26.7554 24.6394C27.0179 24.3293 26.9962 23.869 26.709 23.5816L26.7071 23.5798C26.3848 23.2574 25.8543 23.2753 25.5593 23.6226C22.7362 26.9444 19.0657 29.871 16.9594 31.4343C16.6218 31.6848 16.5408 32.1557 16.774 32.5055L18.2617 34.7368H12.7909L14.2788 32.5052C14.5121 32.1553 14.431 31.6846 14.0933 31.4339C10.3313 28.6419 1.5791 21.5015 1.5791 15.5263C1.5791 7.83564 7.83584 1.57891 15.5265 1.57891C23.2171 1.57891 29.4738 7.83564 29.4738 15.5263C29.4738 17.1657 28.8143 18.8929 27.7802 20.5939C27.5915 20.9043 27.6357 21.3024 27.8925 21.5593C28.2524 21.9192 28.8536 21.8445 29.1181 21.4095C30.4038 19.2945 31.0528 17.3262 31.0528 15.5262C31.0528 12.7687 30.3294 10.1773 29.0636 7.93037C30.7738 7.2083 32.5902 6.84199 34.4739 6.84199C42.1646 6.84199 48.4213 13.0987 48.4213 20.7894C48.4211 26.7646 39.6688 33.9051 35.9068 36.6971Z" fill="black"/>
<path d="M34.474 43.1577C34.0379 43.1577 33.6846 43.5112 33.6846 43.9472V49.2103C33.6846 49.6464 34.0379 49.9998 34.474 49.9998C34.9102 49.9998 35.2635 49.6463 35.2635 49.2103V43.9472C35.2636 43.5111 34.9102 43.1577 34.474 43.1577Z" fill="black"/>
</g>
<defs>
<clipPath id="clip0_778_37578">
<rect width="50" height="50" fill="white"/>
</clipPath>
</defs>
</svg>
