<svg width="42" height="35" viewBox="0 0 42 35" fill="none" xmlns="http://www.w3.org/2000/svg">
<path d="M13.6354 16.131C16.6313 16.131 19.0599 13.7023 19.0599 10.7065C19.0599 7.71061 16.6313 5.28198 13.6354 5.28198C10.6396 5.28198 8.21094 7.71061 8.21094 10.7065C8.21094 13.7023 10.6396 16.131 13.6354 16.131Z" stroke="#934AF7" stroke-width="3" stroke-linecap="round"/>
<path d="M21.804 11.7916C22.3796 10.7949 23.3274 10.0676 24.4392 9.76971C25.5508 9.47182 26.7353 9.62776 27.7321 10.2032C28.7289 10.7787 29.4562 11.7265 29.7541 12.8383C30.0518 13.95 29.896 15.1344 29.3206 16.1312C28.7449 17.128 27.7972 17.8554 26.6854 18.1533C25.5738 18.451 24.3893 18.2952 23.3925 17.7197C22.3957 17.1441 21.6684 16.1963 21.3704 15.0845C21.0727 13.9729 21.2285 12.7884 21.804 11.7916Z" stroke="#934AF7" stroke-width="3"/>
<path d="M23.3998 32.4038H3.87169V34.5736H23.3998V32.4038ZM2.97853 31.5049C3.26022 29.7386 3.93758 27.2284 5.52928 25.1805C7.08151 23.1837 9.55372 21.5548 13.6358 21.5548V19.385C8.86455 19.385 5.76742 21.3387 3.81614 23.8489C1.90437 26.3086 1.14405 29.2303 0.835813 31.1631L2.97853 31.5049ZM13.6358 21.5548C17.7178 21.5548 20.19 23.1837 21.7423 25.1805C23.3341 27.2284 24.0113 29.7386 24.2931 31.5049L26.4358 31.1631C26.1275 29.2303 25.3672 26.3086 23.4554 23.8489C21.5041 21.3387 18.4071 19.385 13.6358 19.385V21.5548ZM3.87169 32.4038C3.23865 32.4038 2.91036 31.9323 2.97853 31.5049L0.835813 31.1631C0.526509 33.1025 2.10803 34.5736 3.87169 34.5736V32.4038ZM23.3998 34.5736C25.1634 34.5736 26.745 33.1025 26.4358 31.1631L24.2931 31.5049C24.3613 31.9323 24.033 32.4038 23.3998 32.4038V34.5736Z" fill="#934AF7"/>
<path d="M21.8867 23.6836L21.3052 22.7675L20.1875 23.4768L21.1027 24.4334L21.8867 23.6836ZM31.8562 32.4044H23.4047V34.5742H31.8562V32.4044ZM32.76 31.4013C32.8767 31.8676 32.5343 32.4044 31.8562 32.4044V34.5742C33.7455 34.5742 35.3715 32.8985 34.8647 30.8743L32.76 31.4013ZM25.5747 23.7252C27.8046 23.7252 29.3707 24.816 30.5181 26.3439C31.6885 27.9027 32.3757 29.8671 32.76 31.4013L34.8647 30.8743C34.45 29.2181 33.6741 26.9337 32.2533 25.0412C30.8093 23.1183 28.656 21.5554 25.5747 21.5554V23.7252ZM22.468 24.5994C23.3137 24.0628 24.3294 23.7252 25.5747 23.7252V21.5554C23.9081 21.5554 22.4905 22.0152 21.3052 22.7675L22.468 24.5994ZM21.1027 24.4334C23.158 26.582 23.979 29.5069 24.2978 31.5055L26.4406 31.1637C26.0946 28.9946 25.1748 25.5513 22.6706 22.9335L21.1027 24.4334ZM24.2978 31.5055C24.3661 31.9329 24.0378 32.4044 23.4047 32.4044V34.5742C25.1683 34.5742 26.7498 33.1031 26.4406 31.1637L24.2978 31.5055Z" fill="#934AF7"/>
<path d="M40.7568 4.7395H32.0776C31.778 4.7395 31.5352 4.98236 31.5352 5.28195C31.5352 5.58154 31.778 5.8244 32.0776 5.8244H40.7568C41.0564 5.8244 41.2992 5.58154 41.2992 5.28195C41.2992 4.98236 41.0564 4.7395 40.7568 4.7395Z" fill="#934AF7"/>
<path d="M36.9688 9.62179V0.942596C36.9688 0.643009 36.7259 0.400146 36.4263 0.400146C36.1267 0.400146 35.8839 0.643009 35.8839 0.942596V9.62179C35.8839 9.92138 36.1267 10.1642 36.4263 10.1642C36.7259 10.1642 36.9688 9.92138 36.9688 9.62179Z" fill="#934AF7"/>
</svg>
