<svg width="50" height="50" viewBox="0 0 50 50" fill="none" xmlns="http://www.w3.org/2000/svg">
<path d="M3.67345 34.1315L3.91594 33.9694C8.36535 31.0734 13.5637 29.5341 18.8769 29.5429H18.8785C24.4969 29.5429 29.7299 31.2313 34.0849 34.1323L34.085 34.1324C35.3973 35.0062 36.2112 36.1234 36.5464 37.3435L36.5465 37.3437C36.8783 38.5507 36.7112 39.7962 36.1804 40.9035L36.1803 40.9036C35.1274 43.1009 32.6282 44.7679 29.5143 44.7679H8.23926C5.12938 44.7679 2.62931 43.1013 1.57273 40.9026L1.57279 40.9026L1.56766 40.8922C1.02227 39.7902 0.894659 38.5279 1.20834 37.339C1.54369 36.1227 2.35952 35.0095 3.67345 34.1315ZM30.9545 24.8394C33.4274 21.924 34.4357 18.1854 34.4357 14.3179C34.4357 12.3442 34.1734 10.4073 33.5888 8.59421C33.8295 8.58151 34.0762 8.57504 34.3285 8.57504C37.1409 8.57504 39.1969 9.363 40.5508 10.7173C41.9048 12.0717 42.6928 14.1286 42.6928 16.9429C42.6928 19.7552 41.9049 21.8113 40.5509 23.1653C39.1969 24.5192 37.1409 25.3072 34.3285 25.3072C33.0473 25.3072 31.9244 25.1438 30.9545 24.8394ZM42.7814 35.6325C42.5317 34.7333 42.1763 33.8711 41.7251 33.0628C43.4703 33.7104 45.1373 34.5599 46.6916 35.5963L46.6927 35.5971C47.831 36.3538 48.5324 37.3173 48.8173 38.3596C49.1001 39.3964 48.9575 40.4677 48.5018 41.4214C47.5915 43.3193 45.4276 44.7679 42.725 44.7679H42.7214H41.4327C41.6415 44.4239 41.8345 44.069 42.0104 43.7043C43.2319 41.1976 43.5065 38.334 42.7836 35.6408L42.7837 35.6408L42.7814 35.6325ZM27.9714 14.3179C27.9714 17.3605 27.1183 19.597 25.6415 21.0737C24.1647 22.5505 21.9283 23.4036 18.8857 23.4036C15.8412 23.4036 13.6048 22.5504 12.1286 21.0738C10.6523 19.5972 9.79997 17.3607 9.79997 14.3179C9.79997 11.2731 10.6524 9.03683 12.1285 7.56071C13.6046 6.08459 15.8409 5.23218 18.8857 5.23218C21.9285 5.23218 24.165 6.08453 25.6416 7.56081C27.1182 9.03704 27.9714 11.2734 27.9714 14.3179Z" fill="#934AF7" stroke="#101010" stroke-width="2"/>
</svg>
