<svg width="75" height="63" viewBox="0 0 75 63" fill="none" xmlns="http://www.w3.org/2000/svg">
<path d="M5.40087 43.9798L7.08883 42.8518H5.77756C12.5193 38.6699 20.3059 36.4529 28.2578 36.4661C36.9899 36.4661 45.1274 39.0911 51.8988 43.6018C54.1274 45.0857 55.5953 47.0464 56.206 49.2696C56.8113 51.4714 56.4953 53.7107 55.5631 55.6554C53.7149 59.5125 49.4131 62.3036 44.2113 62.3036H12.2988C7.1024 62.3036 2.80062 59.5125 0.947045 55.6554C-0.0331066 53.6748 -0.26152 51.4059 0.304188 49.2696M5.40087 43.9798C5.27745 44.0601 5.15441 44.1412 5.03175 44.2229C5.03025 44.2239 5.02874 44.2249 5.02724 44.2259L4.61669 43.6098V44.3518H4.61133H3.60523C1.93868 45.7238 0.817168 47.4022 0.304188 49.2696M5.40087 43.9798L5.0334 44.2254C2.93363 45.6286 1.58519 47.4412 1.02832 49.465M5.40087 43.9798C12.1979 39.5547 20.1395 37.2026 28.2565 37.2161H28.2578C36.8376 37.2161 44.8311 39.7949 51.483 44.226L51.4832 44.2261C53.5816 45.6234 54.926 47.4416 55.4828 49.4683L55.4828 49.4685C56.0344 51.4746 55.751 53.5283 54.8868 55.3312L54.8868 55.3313C53.173 58.9078 49.1477 61.5536 44.2113 61.5536H12.2988C7.3682 61.5536 3.34226 58.9081 1.62304 55.3305L1.62309 55.3305L1.61924 55.3227C0.72012 53.5059 0.510203 51.4247 1.02832 49.465M0.304188 49.2696L1.0274 49.4683C1.02771 49.4672 1.02801 49.4661 1.02832 49.465M0.304188 49.2696L1.0292 49.4616C1.0289 49.4627 1.02861 49.4638 1.02832 49.465M60.6973 61.5536H64.022H64.0274C68.3469 61.5536 71.8688 59.2353 73.3686 56.1086C74.1205 54.5362 74.3668 52.7441 73.8896 50.9941L60.6973 61.5536ZM60.6973 61.5536C61.2971 60.7128 61.8282 59.8192 62.2808 58.8808C64.0343 55.2831 64.4286 51.1729 63.3911 47.3074L63.3893 47.3011C62.8425 45.332 61.9426 43.4861 60.7403 41.8506C64.1593 42.8951 67.4119 44.4341 70.3935 46.4222L70.3943 46.4228C72.231 47.6439 73.408 49.2317 73.8895 50.9938L60.6973 61.5536ZM45.0714 31.2366C49.1653 26.9304 50.8435 21.1757 50.8435 15.1286C50.8435 11.8991 50.3646 8.7565 49.297 5.8704C49.978 5.80037 50.6909 5.76429 51.4328 5.76429C55.7893 5.76429 59.0871 6.98741 61.2966 9.19744C63.506 11.4075 64.7292 14.7067 64.7292 19.0661C64.7292 23.4226 63.5061 26.7205 61.2966 28.9299C59.0872 31.1394 55.7893 32.3625 51.4328 32.3625C48.9698 32.3625 46.8485 31.9728 45.0714 31.2366ZM42.647 15.1286C42.647 19.8306 41.3262 23.399 38.9326 25.7927C36.5389 28.1863 32.9705 29.5071 28.2685 29.5071C23.5637 29.5071 19.9953 28.1862 17.6024 25.7927C15.2095 23.3992 13.8899 19.8308 13.8899 15.1286C13.8899 10.4236 15.2096 6.85528 17.6024 4.46247C19.9952 2.06967 23.5635 0.75 28.2685 0.75C32.9707 0.75 36.5391 2.06962 38.9326 4.46254C41.3261 6.85543 42.647 10.4238 42.647 15.1286Z" fill="#934AF7" stroke="black" stroke-width="1.5"/>
</svg>
