<svg width="50" height="50" viewBox="0 0 50 50" fill="none" xmlns="http://www.w3.org/2000/svg">
<g clip-path="url(#clip0_773_37354)">
<path d="M31.296 28.5588C30.0096 30.1622 28.4456 31.5228 26.6778 32.575H26.1282V33.325V37.5C26.1282 38.2483 25.8309 38.9659 25.3018 39.495C24.7727 40.0242 24.055 40.3214 23.3067 40.3214H12.5924C11.8441 40.3214 11.1265 40.0242 10.5974 39.495C10.0683 38.9659 9.77101 38.2483 9.77101 37.5V33.325V32.8923L9.39647 32.6758C7.26214 31.4415 5.41983 29.7604 3.99574 27.7477C2.57166 25.7351 1.59944 23.4384 1.1457 21.0149C0.691966 18.5915 0.767424 16.0987 1.36691 13.7071C1.9664 11.3156 3.07574 9.08188 4.61896 7.15904C6.16217 5.23619 8.10279 3.66964 10.3079 2.5667C12.5129 1.46375 14.9304 0.850482 17.3945 0.768892C19.8587 0.687302 22.3114 1.13932 24.5846 2.09399C26.7256 2.99314 28.6598 4.31817 30.2703 5.98695C30.0581 6.55282 29.7155 7.06295 29.2681 7.47475C28.7217 7.97761 28.0421 8.31258 27.3105 8.43963L27.3101 8.4397C19.0829 9.87311 19.0805 21.684 27.3105 23.1139C28.0677 23.2459 28.7686 23.6003 29.3237 24.132C29.8786 24.6635 30.2629 25.3481 30.4274 26.0987C30.4275 26.0991 30.4276 26.0994 30.4277 26.0997L30.4944 26.4089C30.4945 26.4094 30.4946 26.4099 30.4947 26.4105C30.6542 27.1632 30.9245 27.8871 31.296 28.5588ZM33.0337 11.3237C34.3581 10.0609 35.2781 8.43368 35.6775 6.6479C35.6776 6.64715 35.6778 6.64639 35.678 6.64563L35.7285 6.42672L35.7304 6.41864L35.757 6.30886L35.8076 6.10045C36.425 4.09046 39.3896 4.14272 39.8754 6.27328C39.8754 6.27343 39.8754 6.27359 39.8755 6.27374L39.9071 6.41464L39.9081 6.41865L39.9724 6.69722L39.973 6.70004C40.39 8.47558 41.3196 10.0894 42.6464 11.3409C43.9731 12.5923 45.6383 13.4262 47.4351 13.7389C49.721 14.1373 49.7211 17.4196 47.4353 17.8183C45.6283 18.1328 43.9545 18.9742 42.6241 20.2368C41.2937 21.4995 40.3661 23.127 39.9577 24.9151L39.9572 24.9172L39.8754 25.28C39.8753 25.2803 39.8753 25.2806 39.8752 25.281C39.3744 27.4781 36.2357 27.4701 35.7499 25.2604L35.6823 24.9508C35.6823 24.9507 35.6823 24.9507 35.6823 24.9507C35.2905 23.1557 34.373 21.518 33.0467 20.2465C31.7205 18.9749 30.0456 18.1271 28.2357 17.8112L28.2348 17.811C25.9562 17.416 25.9503 14.1416 28.2352 13.7425C30.0388 13.4288 31.7088 12.587 33.0337 11.3237ZM9.77458 47.3214C9.77458 46.8099 9.97777 46.3194 10.3394 45.9577C10.7011 45.596 11.1917 45.3929 11.7031 45.3929H24.2031C24.7146 45.3929 25.2052 45.596 25.5669 45.9577C25.9285 46.3194 26.1317 46.8099 26.1317 47.3214C26.1317 47.8329 25.9285 48.3235 25.5669 48.6851C25.2052 49.0468 24.7146 49.25 24.2031 49.25H11.7031C11.1917 49.25 10.7011 49.0468 10.3394 48.6851C9.97777 48.3235 9.77458 47.8329 9.77458 47.3214Z" fill="#934AF7" stroke="black" stroke-width="1.5"/>
</g>
<defs>
<clipPath id="clip0_773_37354">
<rect width="50" height="50" fill="white"/>
</clipPath>
</defs>
</svg>
