<svg width="260" height="125" viewBox="0 0 260 125" fill="none" xmlns="http://www.w3.org/2000/svg">
<g clip-path="url(#clip0_207_5522)">
<path d="M36.4224 54.9445C38.7713 54.9445 41.092 55.1623 43.2994 55.5707C42.4504 52.1673 41.9976 48.6277 41.9976 44.9793C41.9976 20.1481 62.9114 0 88.7496 0C111.673 0 130.747 15.9007 134.737 36.8384C142.746 31.6108 152.397 28.5613 162.811 28.5613C188.253 28.5613 209.252 46.8035 212.478 70.4095C217.119 67.6868 222.553 66.0804 228.383 66.0804C245.278 66.0804 259.004 79.2583 259.004 95.5402C259.004 111.822 245.307 125 228.383 125H36.4224C16.3009 125 0 109.317 0 89.9586C0 70.6001 16.3009 54.9172 36.4224 54.9172V54.9445Z" fill="white"/>
<mask id="mask0_207_5522" style="mask-type:alpha" maskUnits="userSpaceOnUse" x="53" y="52" width="38" height="52">
<path d="M90.8423 76.0754C89.8057 77.4406 88.7573 78.7955 87.6941 80.1453C86.1559 82.1046 84.5996 84.0463 83.0146 85.9639C78.1189 91.9137 73.007 97.6907 67.6984 103.267C64.154 96.4224 60.9589 90.0505 58.1299 83.7745C56.924 81.1018 55.7802 78.4441 54.7129 75.7702C54.1636 74.408 53.6351 73.0401 53.1276 71.6666C60.03 64.6287 67.5547 58.298 76.3569 52.0524C80.8975 60.0336 85.802 67.7984 90.8454 76.07L90.8423 76.0754Z" fill="#FBB800"/>
</mask>
<g mask="url(#mask0_207_5522)">
<path d="M90.5245 77.1459C89.4874 78.5067 85.7688 81.6455 84.7053 82.991C81.479 75.3653 79.5289 70.9207 74.8082 64.215C67.5218 68.9226 62.4171 73.6007 56.591 80.0319C56.0475 78.6744 53.352 74.1608 52.8462 72.7931C59.7491 65.7765 67.2732 59.4637 76.0737 53.2345C80.6034 61.1803 85.4958 68.9059 90.5286 77.1447L90.5245 77.1459Z" fill="#934AF7"/>
<path d="M84.1742 86.1795C79.2259 92.1778 74.0595 98.0021 68.6945 103.624C65.1197 96.7303 61.8973 90.3124 59.0446 83.9908C62.359 80.3183 67.9581 75.7162 74.0644 76.7864C79.274 77.7019 82.4739 82.0873 84.1742 86.1795Z" fill="#FBB800"/>
</g>
<path d="M98.832 71.4603C99.2341 72.3818 99.741 73.1232 100.353 73.6845C100.964 74.2458 101.538 74.5264 102.074 74.5264C102.367 74.5264 102.602 74.4259 102.778 74.2248C102.962 74.0238 103.054 73.7641 103.054 73.4457C103.054 73.1442 102.987 72.8845 102.853 72.6666C102.719 72.4404 102.514 72.2436 102.237 72.076L100.843 71.1964C99.8289 70.5765 99.0917 69.856 98.631 69.035C98.1786 68.214 97.9524 67.2045 97.9524 66.0066C97.9524 61.667 100.038 59.4973 104.21 59.4973C106.087 59.4973 107.829 59.9329 109.438 60.8042L107.993 66.8485C107.557 65.9353 107.054 65.2316 106.485 64.7374C105.915 64.2431 105.337 63.996 104.751 63.996C104.449 63.996 104.206 64.0881 104.022 64.2724C103.838 64.4483 103.745 64.6829 103.745 64.9761C103.745 65.3615 103.863 65.6715 104.097 65.906C104.34 66.1406 104.91 66.5176 105.806 67.037C106.736 67.5564 107.457 68.0507 107.968 68.5198C108.479 68.9889 108.885 69.5795 109.187 70.2916C109.488 70.9953 109.639 71.8373 109.639 72.8174C109.639 77.1318 107.545 79.289 103.356 79.289C101.203 79.289 99.2216 78.8157 97.412 77.869L98.832 71.4603ZM118.963 79H113.195V67.5773H110.292V59.824H121.866V67.5773H118.963V79ZM127.571 75.7328L126.829 79H120.986L125.648 59.824H133.879L138.302 79H132.522L131.768 75.7328H127.571ZM128.601 71.2341H130.738L129.682 66.5469L128.601 71.2341ZM139.534 79V59.824H145.302C147.304 59.824 148.644 59.891 149.323 60.025C150.002 60.1591 150.592 60.4649 151.095 60.9424C151.597 61.4115 152 62.0566 152.301 62.8776C152.611 63.6902 152.766 64.5531 152.766 65.4662C152.766 67.393 152.276 68.8423 151.296 69.8141C152.712 72.1598 153.554 75.2218 153.822 79H147.828V78.8241C147.828 76.5705 147.614 74.8532 147.187 73.6719C146.759 72.4907 146.156 71.9001 145.377 71.9001H145.302V79H139.534ZM145.402 63.7698H145.302V67.4642H145.453C146.014 67.4642 146.42 67.3134 146.672 67.0119C146.923 66.7103 147.049 66.2286 147.049 65.5667C147.049 64.3688 146.5 63.7698 145.402 63.7698ZM162.517 79H156.75V67.5773H153.847V59.824H165.42V67.5773H162.517V79ZM174.053 59.824H179.821V66.9616C179.821 69.0308 179.775 70.5304 179.683 71.4603C179.599 72.3902 179.386 73.3662 179.042 74.3882C178.707 75.4019 178.246 76.2731 177.66 77.002C177.073 77.7224 176.403 78.2837 175.649 78.6858C174.904 79.088 174.141 79.289 173.362 79.289C172.365 79.289 171.393 78.9791 170.447 78.3591C169.508 77.7392 168.771 76.9098 168.235 75.871C167.699 74.8238 167.335 73.6929 167.142 72.4781C166.949 71.2634 166.853 69.4413 166.853 67.0119V59.824H172.621V68.7083C172.621 69.4874 172.667 70.0487 172.759 70.3922C172.851 70.7273 173.027 70.8948 173.287 70.8948C173.597 70.8948 173.802 70.7021 173.902 70.3168C174.003 69.923 174.053 69.1188 174.053 67.9041V59.824ZM182.184 79V59.824H187.75C189.828 59.824 191.294 59.9706 192.149 60.2638C193.011 60.5486 193.74 61.2272 194.335 62.2995C194.938 63.3718 195.24 64.6745 195.24 66.2076C195.24 68.1093 194.817 69.6801 193.971 70.9199C193.133 72.1514 192.077 72.7672 190.804 72.7672C189.916 72.7672 188.965 72.2101 187.951 71.0959V79H182.184ZM188.052 63.9708H187.951V68.1428H188.027L188.341 68.1679C188.827 68.1679 189.204 67.9794 189.472 67.6025C189.748 67.2171 189.887 66.6768 189.887 65.9814C189.887 65.2275 189.753 64.7039 189.485 64.4106C189.225 64.1174 188.747 63.9708 188.052 63.9708Z" fill="#101010"/>
<path d="M103.158 99.1831H97.3903V80.0071H102.982L105.32 84.0031L107.669 80.0071H113.299V99.1831H107.531V89.5825L105.32 93.2896L103.158 89.5825V99.1831ZM121.341 95.9159L120.6 99.1831H114.757L119.419 80.0071H127.65L132.073 99.1831H126.293L125.539 95.9159H121.341ZM122.372 91.4172H124.508L123.453 86.73L122.372 91.4172ZM139.072 92.0581V99.1831H133.305V80.0071H139.072V87.0316H142.038V80.0071H147.793V99.1831H142.038V92.0581H139.072Z" fill="#101010"/>
<path d="M157.428 93.365V99.1831H163.196V80.0071H159.074L156.008 86.4159V80.0071H150.24V99.3088H154.625L157.428 93.365Z" fill="#101010"/>
<path d="M178.018 99.1831V80.0071H172.25C170.248 80.0071 168.907 80.0741 168.229 80.2082C167.55 80.3422 166.96 80.648 166.457 81.1255C165.954 81.5946 165.552 82.2397 165.251 83.0607C164.941 83.8733 164.786 84.7362 164.786 85.6493C164.786 87.5761 165.276 89.0254 166.256 89.9972C164.84 92.3429 163.998 95.4049 163.73 99.1831H169.724V99.0072C169.724 96.7536 169.938 95.0363 170.365 93.855C170.792 92.6738 171.395 92.0832 172.175 92.0832H172.25V99.1831H178.018ZM172.149 83.9529H172.25V87.6473H172.099C171.538 87.6473 171.132 87.4965 170.88 87.195C170.629 86.8934 170.503 86.4117 170.503 85.7498C170.503 84.5519 171.052 83.9529 172.149 83.9529Z" fill="#101010"/>
</g>
<defs>
<clipPath id="clip0_207_5522">
<rect width="260" height="125" fill="white"/>
</clipPath>
</defs>
</svg>
