<svg width="39" height="33" viewBox="0 0 39 33" fill="none" xmlns="http://www.w3.org/2000/svg">
<path d="M19.5081 17.6533L19.5 17.6532L19.4919 17.6533C19.2134 17.6579 18.9393 17.5852 18.6999 17.4436L0.5 5.32206V4.63815C0.5 3.66394 0.887427 2.72953 1.57723 2.04049C2.26705 1.35144 3.20277 0.964233 4.17857 0.964233H34.8214C35.7972 0.964233 36.7329 1.35144 37.4228 2.04049C38.1126 2.72953 38.5 3.66394 38.5 4.63815V5.32206L20.3001 17.4436C20.0607 17.5852 19.7866 17.6579 19.5081 17.6533ZM22.7432 21.1993L22.7661 21.1848L22.7843 21.1703L38.5 10.703V28.2903C38.5 28.7727 38.4049 29.2504 38.2201 29.6961C38.0352 30.1418 37.7643 30.5468 37.4228 30.888C37.0812 31.2292 36.6757 31.4998 36.2293 31.6845C35.783 31.8692 35.3046 31.9642 34.8214 31.9642H4.17857C3.69542 31.9642 3.21701 31.8692 2.77066 31.6845C2.32432 31.4998 1.91879 31.2292 1.57723 30.888C1.23567 30.5468 0.96476 30.1418 0.779939 29.6961C0.595119 29.2504 0.5 28.7727 0.5 28.2903V10.703L16.2157 21.1703L16.2318 21.1832L16.2523 21.1965C17.2178 21.8241 18.3667 22.1313 19.4984 22.1315C20.6472 22.1388 21.7738 21.8152 22.7432 21.1993Z" fill="#FBB800" stroke="#101010"/>
</svg>
