<svg width="47" height="47" viewBox="0 0 47 47" fill="none" xmlns="http://www.w3.org/2000/svg">
<path d="M0.750025 21.3553V21.3542C0.750025 9.97463 9.97466 0.75 21.3542 0.75C31.9205 0.75 40.6289 8.70368 41.8196 18.9497C39.3761 17.6415 36.6398 16.9537 33.853 16.9583C24.5226 16.959 16.9584 24.5237 16.9584 33.8542C16.9584 36.7339 17.6793 39.4466 18.9504 41.8203C16.0426 41.4827 13.2351 40.5252 10.7201 39.0059L10.3996 38.8123L10.0522 38.9522C7.89817 39.8196 5.43817 40.7158 3.19736 41.3377L3.19732 41.3377C2.01446 41.6661 0.98636 40.6689 1.2818 39.4871L1.28191 39.4867C1.8599 37.1686 2.75442 34.6507 3.6476 32.4837L3.79 32.1382L3.59997 31.8165C1.72872 28.6483 0.744335 25.0349 0.750025 21.3553Z" fill="#934AF7" stroke="black" stroke-width="1.5"/>
<path d="M44.4494 40.0479L44.2519 40.385L44.415 40.74C44.8205 41.623 45.2185 42.6184 45.5367 43.6763L45.5368 43.6769C45.8849 44.8308 44.8633 45.8271 43.703 45.449C42.7362 45.1281 41.7866 44.7576 40.8578 44.3391L40.4999 44.1777L40.1633 44.38C38.2585 45.5248 36.0773 46.1282 33.8549 46.1249H33.8538C27.0764 46.1249 21.583 40.6315 21.583 33.8541C21.583 27.0766 27.0764 21.5833 33.8538 21.5833C40.6313 21.5833 46.1247 27.0766 46.1247 33.8541C46.1247 36.1131 45.5141 38.2306 44.4494 40.0479Z" fill="#934AF7" stroke="black" stroke-width="1.5"/>
</svg>
