<svg width="55" height="55" viewBox="0 0 55 55" fill="none" xmlns="http://www.w3.org/2000/svg">
<g clip-path="url(#clip0_795_36946)">
<path d="M42.0589 25.0147C42.9108 25.0147 43.7427 24.9264 44.5457 24.7582L44.5442 37.2058L44.5441 37.9559H45.2942H46.103C48.8157 37.9559 51.0148 40.155 51.0148 42.8676C51.0148 45.5803 48.8157 47.7794 46.103 47.7794H46.1029L36.6532 47.7805L36.1229 47.7806L35.9462 48.2805C34.7161 51.7594 31.398 54.25 27.5001 54.25C23.6022 54.25 20.2841 51.7594 19.054 48.2805L18.8772 47.7806L18.3469 47.7805L8.89721 47.7794H8.89712C6.18442 47.7794 3.98535 45.5803 3.98535 42.8676C3.98535 40.155 6.18442 37.9559 8.89712 37.9559H9.70594H10.4559V37.2059V22.6471C10.4559 15.4216 14.9523 9.24442 21.3024 6.76457L21.7796 6.57819L21.7795 6.06584L21.7795 5.66176C21.7795 5.66173 21.7795 5.66169 21.7795 5.66165C21.7795 3.04298 23.8292 0.902552 26.4113 0.757813L26.7013 0.75H28.3089C30.7275 0.75 32.7386 2.49872 33.1455 4.80037C31.1826 6.94532 29.9854 9.80426 29.9854 12.9412C29.9854 19.6092 35.3909 25.0147 42.0589 25.0147ZM23.5893 4.97523L23.3467 6.07537L24.4552 5.87479C25.4442 5.69586 26.4609 5.60294 27.5001 5.60294C28.5393 5.60294 29.5562 5.69585 30.543 5.87366L31.6486 6.07285L31.4087 4.97537C31.0973 3.55084 29.8276 2.48529 28.3089 2.48529H26.6912C25.172 2.48529 23.9034 3.55115 23.5893 4.97523ZM42.0589 5.60294C46.1117 5.60294 49.3971 8.88838 49.3971 12.9412C49.3971 16.994 46.1117 20.2794 42.0589 20.2794C38.0061 20.2794 34.7206 16.994 34.7206 12.9412C34.7206 8.88838 38.0061 5.60294 42.0589 5.60294Z" fill="#934AF7" stroke="black" stroke-width="1.5"/>
</g>
<defs>
<clipPath id="clip0_795_36946">
<rect width="55" height="55" fill="white"/>
</clipPath>
</defs>
</svg>
