<svg width="66" height="66" viewBox="0 0 66 66" fill="none" xmlns="http://www.w3.org/2000/svg">
<path d="M43.7318 11.0426C50.3918 11.5822 55.1347 17.0207 55.4249 23.1833M43.7318 11.0426L43.7929 10.2951C50.8506 10.8672 55.8672 16.6312 56.174 23.148L56.174 23.1481C56.5804 31.8049 56.7005 40.0758 56.5341 48.5075C57.4931 48.4513 58.4095 48.3871 59.2675 48.3172C60.7464 48.1873 62.1263 47.5252 63.1487 46.4561C64.1715 45.3864 64.7663 43.9828 64.8224 42.5089L64.8227 42.502C65.3924 30.4654 65.3924 19.1956 64.8227 7.15895L64.8223 7.15106C64.7682 5.67745 64.1747 4.27367 63.1526 3.20394C62.1308 2.1346 60.751 1.47274 59.2723 1.34374C49.5467 0.552085 32.5365 0.552087 22.8158 1.34374C21.337 1.47273 19.9572 2.13459 18.9355 3.20394C17.9134 4.27367 17.3199 5.67745 17.2657 7.15106L17.2653 7.16098L17.2652 7.16098C17.2217 8.03011 17.1838 8.89692 17.1492 9.76163C26.2926 9.54515 36.7835 9.72203 43.7924 10.295L55.4249 23.1833M43.7318 11.0426C36.7455 10.4714 26.2583 10.2947 17.12 10.5125L43.7318 11.0426ZM55.4249 23.1833C55.8314 31.8435 55.9508 40.1153 55.7831 48.5493L55.4249 23.1833ZM2.84523 19.5443C3.85927 18.4822 5.22639 17.8216 6.69312 17.6855H6.69461L6.72499 17.683C16.4501 16.8912 33.4569 16.8911 43.1832 17.6828C44.6617 17.8127 46.0411 18.4749 47.0627 19.5441C48.0848 20.6137 48.6786 22.0171 48.7337 23.4906L48.7337 23.4906L48.734 23.498C49.3038 35.5346 49.3038 46.8044 48.734 58.841H48.734L48.7337 58.849C48.6796 60.3219 48.0867 61.7252 47.0655 62.7948C46.0446 63.864 44.6659 64.5263 43.1879 64.6563C33.4574 65.4479 16.4523 65.4479 6.72696 64.6562C5.24827 64.5272 3.86854 63.8654 2.84681 62.7961C1.82469 61.7263 1.2312 60.3225 1.17701 58.8489L1.17706 58.8489L1.17664 58.8403C0.607787 47.0666 0.607787 35.2725 1.17664 23.4988L1.17669 23.4988L1.17701 23.4901C1.23109 22.0171 1.82398 20.6139 2.84523 19.5443ZM38.8612 60.5106L39.6371 60.4705L39.5696 59.6964C39.2459 55.9871 37.3495 52.6642 34.4196 50.2813L34.4195 50.2813C31.752 48.1122 28.4135 46.9278 24.9696 46.9278C21.5257 46.9278 18.1872 48.1122 15.5197 50.2813L15.5194 50.2815C12.6061 52.6531 10.6787 55.9899 10.3647 59.6983L10.2994 60.4706L11.0733 60.5106C19.3385 60.9379 30.6007 60.9379 38.8612 60.5106ZM24.9696 44.6506C27.7776 44.6506 30.0759 43.8635 31.6717 42.275C33.2681 40.686 34.0589 38.3973 34.0589 35.6033C34.0589 32.8089 33.2667 30.5203 31.6698 28.9314C30.0735 27.3431 27.7754 26.5559 24.9696 26.5559C22.1639 26.5559 19.8658 27.3431 18.2694 28.9314C16.6725 30.5203 15.8803 32.8089 15.8803 35.6033C15.8803 38.3977 16.6725 40.6862 18.2694 42.2751C19.8658 43.8634 22.1639 44.6506 24.9696 44.6506Z" fill="#934AF7" stroke="black" stroke-width="1.5"/>
</svg>
