<svg width="50" height="50" viewBox="0 0 50 50" fill="none" xmlns="http://www.w3.org/2000/svg">
<g clip-path="url(#clip0_120_1877)">
<path d="M36.1286 40.7263L35.8294 40.4274L35.485 40.6728C30.9621 43.8956 25.3933 45.3009 19.8829 44.61C14.3724 43.9191 9.32286 41.1826 5.7356 36.943C2.14834 32.7034 0.285396 27.2706 0.516218 21.7218C0.747039 16.173 3.05477 10.9136 6.98174 6.98663C10.9087 3.05965 16.1681 0.751922 21.7169 0.5211C27.2657 0.290279 32.6986 2.15323 36.9381 5.74048C41.1777 9.32774 43.9142 14.3773 44.6051 19.8877C45.296 25.3982 43.8907 30.967 40.6679 35.4899L40.4223 35.8345L40.7217 36.1337L48.5467 43.9537L48.5529 43.9599L48.5593 43.9658C48.8786 44.2634 49.1347 44.6222 49.3123 45.0208C49.4899 45.4195 49.5855 45.8498 49.5932 46.2862C49.6009 46.7226 49.5206 47.1561 49.3571 47.5607C49.1937 47.9654 48.9504 48.333 48.6418 48.6417C48.3332 48.9503 47.9655 49.1936 47.5609 49.357C47.1562 49.5205 46.7227 49.6007 46.2863 49.593C45.85 49.5854 45.4196 49.4898 45.0209 49.3122C44.6223 49.1346 44.2635 48.8785 43.9659 48.5592L43.9599 48.5526L43.9536 48.5463L36.1286 40.7263ZM11.581 11.5809C8.64791 14.5139 7.00013 18.492 7.00013 22.64C7.00013 26.788 8.64791 30.7661 11.581 33.6992C14.514 36.6322 18.4921 38.28 22.6401 38.28C26.7881 38.28 30.7662 36.6322 33.6993 33.6992C36.6323 30.7661 38.2801 26.788 38.2801 22.64C38.2801 18.492 36.6323 14.5139 33.6993 11.5809C30.7662 8.64779 26.7881 7.00001 22.6401 7.00001C18.4921 7.00001 14.514 8.64779 11.581 11.5809Z" fill="#FBB800" stroke="#101010"/>
</g>
<defs>
<clipPath id="clip0_120_1877">
<rect width="50" height="50" fill="white"/>
</clipPath>
</defs>
</svg>
