<svg width="45" height="45" viewBox="0 0 45 45" fill="none" xmlns="http://www.w3.org/2000/svg">
<path d="M29.5053 2.24067L29.5149 2.24648L29.5246 2.25208C30.4859 2.80489 31.1739 3.31702 31.6267 3.7795C32.0831 4.24561 32.2406 4.59888 32.2748 4.83773C32.3273 5.20339 32.1143 5.88893 30.4532 6.81066C29.5128 7.30481 28.5924 8.10334 27.87 8.94416C27.1617 9.76868 26.5395 10.7551 26.3349 11.6699C26.182 12.3085 26.0741 12.6299 25.9447 12.8344C25.8562 12.9741 25.7376 13.0942 25.4024 13.204C25.0164 13.3305 24.4108 13.4189 23.4025 13.4675C22.4084 13.5154 21.1077 13.5222 19.3688 13.5222H19.3455C17.448 13.5222 15.9944 13.5222 14.8689 13.5656C13.7481 13.6089 12.8718 13.6968 12.1584 13.9031C10.6176 14.3487 9.98301 15.3246 9.15789 16.5934C9.133 16.6317 9.10794 16.6702 9.08268 16.709L9.03234 16.7863L8.99698 16.8715C8.96942 16.938 8.94216 17.0037 8.91522 17.0686C8.08323 19.0729 7.5552 20.3451 7.5552 21.7026C7.5552 23.0421 8.07042 24.4164 8.90421 26.6405C8.93057 26.7108 8.95725 26.7819 8.98424 26.854L9.0354 26.9905L9.12341 27.1068C9.20086 27.209 9.27633 27.3099 9.35056 27.409C10.138 28.4611 10.7858 29.3265 12.1684 29.7679C12.8682 29.9913 13.7234 30.1015 14.8289 30.1619C15.9418 30.2227 17.3787 30.2356 19.2683 30.2356C21.0341 30.2356 22.3364 30.2425 23.3287 30.2981C24.3333 30.3544 24.924 30.4574 25.3071 30.6035C25.6354 30.7287 25.818 30.8869 25.9912 31.1541C26.2011 31.4777 26.3839 31.9391 26.6672 32.7195C27.0242 33.7706 27.6852 34.7759 28.4277 35.5954C29.1695 36.4141 30.0564 37.1175 30.9209 37.5049L30.9426 37.5146L30.9648 37.5233C31.7378 37.8264 32.2254 38.0941 32.5106 38.3343C32.7689 38.5518 32.7905 38.6819 32.7928 38.7622C32.7968 38.9015 32.736 39.1951 32.3887 39.7223C32.0497 40.237 31.5065 40.8721 30.7187 41.6701L30.7057 41.6833L30.6931 41.6969C30.12 42.3223 29.7152 42.7189 29.2692 43.0089C28.8421 43.2866 28.3282 43.4967 27.5145 43.6493C25.808 43.9692 23.0371 44 17.5596 44C13.6794 44 10.785 43.9595 8.58555 43.7061C6.37959 43.4519 5.02442 42.9971 4.11965 42.2836C3.2418 41.5914 2.65293 40.5466 2.23556 38.784C1.81306 36.9998 1.59671 34.6188 1.36955 31.3728L1.36959 31.3728L1.36888 31.3638C0.870277 25.0556 0.895908 18.6467 1.3308 13.4629C1.54834 10.8697 1.86672 8.60264 2.26656 6.81751C2.6754 4.99214 3.13935 3.81747 3.56587 3.27022C3.96018 2.78589 4.27292 2.47728 4.6503 2.24269C5.03017 2.00656 5.53912 1.80668 6.36897 1.64399C8.07757 1.30901 10.8669 1.17738 16.0732 1.01877C20.3371 0.966446 23.3031 1.0201 25.4295 1.22456C27.5681 1.43017 28.7444 1.78007 29.5053 2.24067Z" fill="#934AF7" stroke="#101010" stroke-width="2"/>
<path d="M40.3361 16.2414L40.3361 16.2414L40.3415 16.2473C41.3643 17.3677 42.3111 18.5873 42.9957 19.6296C43.3387 20.1518 43.605 20.6131 43.7815 20.9836C43.9617 21.3618 43.9951 21.538 43.9994 21.561C43.9998 21.5631 44 21.564 44 21.5635C44 21.9154 43.8089 22.5694 43.3373 23.4823C42.8854 24.357 42.2386 25.3513 41.4799 26.3414C39.9449 28.3444 38.0681 30.18 36.5955 30.977C34.7935 31.8921 33.5471 31.7636 32.9153 31.3284C32.3292 30.9247 31.8502 29.9481 32.3015 28.1074L32.3052 28.0923L32.3085 28.0771L32.9115 25.2396L33.1682 24.0317H31.9334H22.4852C18.5984 24.0317 16.2972 23.9504 14.9118 23.7171C14.2225 23.6011 13.8532 23.461 13.6512 23.337C13.4893 23.2376 13.4238 23.1443 13.3725 23.0049L13.3725 23.0049L13.3698 22.9976C13.0769 22.2202 13.0732 21.7574 13.1655 21.4773C13.2446 21.237 13.4581 20.9415 14.1101 20.6508C14.7792 20.3525 15.798 20.1135 17.2757 19.955C18.7406 19.7979 20.5915 19.7259 22.8873 19.7259H31.7324H32.792L32.7307 18.668L32.5303 15.2118C32.5058 14.4864 32.5091 13.977 32.5529 13.6017C32.5966 13.2268 32.6709 13.0842 32.7138 13.0259C32.7446 12.9839 32.8148 12.9068 33.0699 12.8197C33.346 12.7255 33.7485 12.6496 34.3697 12.5716L34.3697 12.5717L34.3803 12.5702C35.3487 12.4381 36.0462 12.5455 36.8551 13.02C37.7384 13.5381 38.7793 14.5085 40.3361 16.2414Z" fill="#934AF7" stroke="#101010" stroke-width="2"/>
</svg>
