<svg width="45" height="45" viewBox="0 0 45 45" fill="none" xmlns="http://www.w3.org/2000/svg">
<path d="M15.4947 2.24067L15.4851 2.24648L15.4754 2.25208C14.5141 2.80489 13.8261 3.31702 13.3733 3.7795C12.9169 4.24561 12.7594 4.59888 12.7252 4.83772C12.6727 5.20338 12.8857 5.88893 14.5468 6.81066C15.4872 7.30482 16.4076 8.10334 17.13 8.94416C17.8383 9.76867 18.4604 10.7551 18.6651 11.6699C18.818 12.3085 18.9258 12.6299 19.0553 12.8344C19.1438 12.9741 19.2624 13.0942 19.5976 13.204C19.9836 13.3305 20.5892 13.4189 21.5975 13.4675C22.5916 13.5154 23.8923 13.5222 25.6312 13.5222H25.6543C27.5519 13.5222 29.0055 13.5222 30.1311 13.5656C31.2519 13.6089 32.1282 13.6968 32.8416 13.9031C34.3824 14.3487 35.017 15.3246 35.8421 16.5934C35.867 16.6317 35.8921 16.6702 35.9173 16.709L35.9677 16.7863L36.003 16.8715C36.0306 16.938 36.0578 17.0037 36.0848 17.0686C36.9168 19.0729 37.4448 20.3451 37.4448 21.7026C37.4448 23.0421 36.9296 24.4164 36.0958 26.6404C36.0694 26.7108 36.0427 26.7819 36.0158 26.854L35.9646 26.9905L35.8766 27.1068C35.7991 27.209 35.7237 27.3099 35.6494 27.409C34.862 28.4611 34.2142 29.3264 32.8316 29.7679C32.1318 29.9913 31.2766 30.1015 30.1711 30.1619C29.0582 30.2227 27.6213 30.2356 25.7317 30.2356C23.9659 30.2356 22.6636 30.2425 21.6713 30.2981C20.6667 30.3544 20.076 30.4574 19.6929 30.6035C19.3646 30.7287 19.182 30.8869 19.0088 31.1541C18.7989 31.4777 18.6161 31.9391 18.3328 32.7195C17.9758 33.7706 17.3148 34.7759 16.5723 35.5954C15.8305 36.4141 14.9436 37.1175 14.0791 37.5049L14.0574 37.5146L14.0352 37.5233C13.2622 37.8264 12.7746 38.0941 12.4894 38.3343C12.2311 38.5518 12.2095 38.6819 12.2072 38.7622C12.2032 38.9015 12.264 39.1951 12.6113 39.7223C12.9503 40.237 13.4935 40.8721 14.2813 41.6701L14.2943 41.6833L14.3069 41.6969C14.88 42.3223 15.2848 42.7189 15.7308 43.0089C16.1579 43.2866 16.6718 43.4967 17.4855 43.6493C19.192 43.9692 21.9629 44 27.4404 44C31.3206 44 34.215 43.9595 36.4144 43.7061C38.6204 43.4519 39.9756 42.9971 40.8803 42.2836C41.7582 41.5914 42.3471 40.5466 42.7644 38.784C43.1869 36.9998 43.4033 34.6188 43.6305 31.3728L43.6304 31.3728L43.6311 31.3638C44.1297 25.0556 44.1041 18.6467 43.6692 13.4629C43.4517 10.8697 43.1333 8.60264 42.7334 6.81751C42.3246 4.99214 41.8607 3.81747 41.4341 3.27022C41.0398 2.78589 40.7271 2.47728 40.3497 2.24269C39.9698 2.00656 39.4609 1.80668 38.631 1.64399C36.9224 1.30901 34.1331 1.17738 28.9266 1.01876C24.6628 0.966446 21.6969 1.02011 19.5705 1.22456C17.4319 1.43017 16.2556 1.78006 15.4947 2.24067Z" fill="#DD403F" stroke="#101010" stroke-width="2"/>
<path d="M4.66386 16.2414L4.66389 16.2414L4.65852 16.2473C3.63565 17.3677 2.6889 18.5873 2.0043 19.6296C1.66129 20.1518 1.395 20.6131 1.21848 20.9836C1.03834 21.3618 1.00491 21.538 1.00056 21.561C1.00015 21.5631 1 21.564 1 21.5635C1 21.9154 1.19107 22.5694 1.66269 23.4823C2.11459 24.357 2.76137 25.3513 3.52013 26.3414C5.05518 28.3445 6.93207 30.1802 8.40473 30.9771C10.2066 31.8921 11.453 31.7636 12.0847 31.3284C12.6708 30.9247 13.1498 29.9481 12.6985 28.1074L12.6948 28.0923L12.6915 28.0771L12.0885 25.2396L11.8318 24.0317H13.0666H22.5148C26.4016 24.0317 28.7028 23.9504 30.0882 23.7171C30.7775 23.6011 31.1468 23.461 31.3488 23.337C31.5107 23.2376 31.5763 23.1443 31.6275 23.0049L31.6275 23.0049L31.6302 22.9976C31.9231 22.2202 31.9268 21.7574 31.8345 21.4773C31.7554 21.237 31.5419 20.9415 30.8899 20.6508C30.2208 20.3525 29.202 20.1135 27.7243 19.955C26.2594 19.7979 24.4085 19.7259 22.1127 19.7259H13.2676H12.208L12.2693 18.668L12.4697 15.2118C12.4942 14.4864 12.4909 13.977 12.4471 13.6017C12.4034 13.2268 12.3291 13.0842 12.2862 13.0259C12.2554 12.9839 12.1852 12.9068 11.9301 12.8197C11.654 12.7255 11.2515 12.6496 10.6303 12.5716L10.6303 12.5717L10.6197 12.5702C9.6513 12.4381 8.9538 12.5455 8.14489 13.02C7.26159 13.5381 6.22069 14.5085 4.66386 16.2414Z" fill="#DD403F" stroke="#101010" stroke-width="2"/>
</svg>
