<svg width="45" height="37" viewBox="0 0 45 37" fill="none" xmlns="http://www.w3.org/2000/svg">
<path d="M14.2655 16.4788C17.5942 16.4788 20.2927 13.7803 20.2927 10.4515C20.2927 7.12279 17.5942 4.42432 14.2655 4.42432C10.9368 4.42432 8.23828 7.12279 8.23828 10.4515C8.23828 13.7803 10.9368 16.4788 14.2655 16.4788Z" fill="#934AF7" stroke="#934AF7" stroke-width="2" stroke-linecap="round"/>
<path d="M23.3412 11.657C23.9808 10.5495 25.0339 9.74138 26.2692 9.41041C27.5043 9.07942 28.8204 9.25269 29.928 9.89211C31.0356 10.5315 31.8437 11.5847 32.1747 12.8199C32.5055 14.0552 32.3324 15.3712 31.693 16.4788C31.0534 17.5863 30.0003 18.3945 28.765 18.7255C27.5299 19.0563 26.2138 18.8831 25.1062 18.2438C23.9987 17.6042 23.1905 16.5511 22.8595 15.3158C22.5287 14.0806 22.7019 12.7645 23.3412 11.657Z" fill="#934AF7" stroke="#934AF7" stroke-width="2"/>
<path d="M25.1144 34.5596H3.41646V36.9704H25.1144V34.5596ZM2.42407 33.5607C2.73705 31.5983 3.48968 28.8091 5.25823 26.5337C6.98293 24.315 9.72983 22.5051 14.2655 22.5051V20.0942C8.96408 20.0942 5.52283 22.265 3.35474 25.0542C1.23056 27.7871 0.385756 31.0334 0.0432649 33.181L2.42407 33.5607ZM14.2655 22.5051C18.8011 22.5051 21.548 24.315 23.2727 26.5337C25.0413 28.8091 25.7938 31.5983 26.107 33.5607L28.4877 33.181C28.1451 31.0334 27.3004 27.7871 25.1761 25.0542C23.008 22.265 19.5669 20.0942 14.2655 20.0942V22.5051ZM3.41646 34.5596C2.71308 34.5596 2.34832 34.0357 2.42407 33.5607L0.0432649 33.181C-0.300407 35.3359 1.45684 36.9704 3.41646 36.9704V34.5596ZM25.1144 36.9704C27.074 36.9704 28.8313 35.3359 28.4877 33.181L26.107 33.5607C26.1827 34.0357 25.8179 34.5596 25.1144 34.5596V36.9704Z" fill="#934AF7"/>
<path d="M23.4309 24.8705L22.7848 23.8526L21.543 24.6407L22.5599 25.7037L23.4309 24.8705ZM34.5082 34.5603H25.1176V36.9712H34.5082V34.5603ZM35.5124 33.4457C35.6421 33.9638 35.2616 34.5603 34.5082 34.5603V36.9712C36.6074 36.9712 38.4141 35.1093 37.8509 32.8601L35.5124 33.4457ZM27.5287 24.9167C30.0064 24.9167 31.7466 26.1287 33.0214 27.8264C34.3219 29.5584 35.0854 31.741 35.5124 33.4457L37.8509 32.8601C37.3902 31.0199 36.5281 28.4817 34.9494 26.3789C33.345 24.2424 30.9524 22.5059 27.5287 22.5059V24.9167ZM24.0768 25.8881C25.0166 25.2919 26.1451 24.9167 27.5287 24.9167V22.5059C25.6769 22.5059 24.1019 23.0167 22.7848 23.8526L24.0768 25.8881ZM22.5599 25.7037C24.8435 28.0909 25.7558 31.3408 26.1099 33.5615L28.4909 33.1818C28.1064 30.7716 27.0844 26.9458 24.302 24.037L22.5599 25.7037ZM26.1099 33.5615C26.1859 34.0364 25.8211 34.5603 25.1176 34.5603V36.9712C27.0772 36.9712 28.8345 35.3366 28.4909 33.1818L26.1099 33.5615Z" fill="#934AF7"/>
<path d="M39.8883 8.03671L37.0302 5.17863C36.9315 5.07998 36.6608 5.19081 36.4254 5.42619C36.19 5.66157 36.0792 5.93235 36.1778 6.03101L39.0359 8.88909C39.1346 8.98774 39.4053 8.87691 39.6407 8.64153C39.8761 8.40615 39.9869 8.13537 39.8883 8.03671Z" fill="#934AF7"/>
<path d="M40.0568 8.97929L44.3305 1.57691C44.4781 1.32139 44.364 0.979334 44.0757 0.812897C43.7874 0.64646 43.4341 0.718671 43.2866 0.974185L39.0128 8.37657C38.8653 8.63209 38.9794 8.97414 39.2677 9.14058C39.556 9.30702 39.9093 9.23481 40.0568 8.97929Z" fill="#934AF7"/>
</svg>
