<svg width="45" height="38" viewBox="0 0 45 38" fill="none" xmlns="http://www.w3.org/2000/svg">
<path d="M14.2655 17.4788C17.5942 17.4788 20.2927 14.7803 20.2927 11.4515C20.2927 8.12279 17.5942 5.42432 14.2655 5.42432C10.9368 5.42432 8.23828 8.12279 8.23828 11.4515C8.23828 14.7803 10.9368 17.4788 14.2655 17.4788Z" stroke="#934AF7" stroke-width="2" stroke-linecap="round"/>
<path d="M23.3412 12.6575C23.9808 11.55 25.0339 10.7419 26.2692 10.4109C27.5043 10.0799 28.8204 10.2532 29.928 10.8926C31.0356 11.532 31.8437 12.5852 32.1747 13.8204C32.5055 15.0556 32.3324 16.3717 31.693 17.4793C31.0534 18.5868 30.0003 19.395 28.765 19.726C27.5299 20.0567 26.2138 19.8836 25.1062 19.2443C23.9987 18.6047 23.1905 17.5516 22.8595 16.3162C22.5287 15.0811 22.7019 13.765 23.3412 12.6575Z" stroke="#934AF7" stroke-width="2"/>
<path d="M25.1144 35.5596H3.41646V37.9704H25.1144V35.5596ZM2.42407 34.5607C2.73705 32.5983 3.48968 29.8091 5.25823 27.5337C6.98293 25.315 9.72983 23.5051 14.2655 23.5051V21.0942C8.96408 21.0942 5.52283 23.265 3.35474 26.0542C1.23056 28.7871 0.385756 32.0334 0.0432649 34.181L2.42407 34.5607ZM14.2655 23.5051C18.8011 23.5051 21.548 25.315 23.2727 27.5337C25.0413 29.8091 25.7938 32.5983 26.107 34.5607L28.4877 34.181C28.1451 32.0334 27.3004 28.7871 25.1761 26.0542C23.008 23.265 19.5669 21.0942 14.2655 21.0942V23.5051ZM3.41646 35.5596C2.71308 35.5596 2.34832 35.0357 2.42407 34.5607L0.0432649 34.181C-0.300407 36.3359 1.45684 37.9704 3.41646 37.9704V35.5596ZM25.1144 37.9704C27.074 37.9704 28.8313 36.3359 28.4877 34.181L26.107 34.5607C26.1827 35.0357 25.8179 35.5596 25.1144 35.5596V37.9704Z" fill="#934AF7"/>
<path d="M23.4309 25.8705L22.7848 24.8526L21.543 25.6407L22.5599 26.7037L23.4309 25.8705ZM34.5082 35.5603H25.1176V37.9712H34.5082V35.5603ZM35.5124 34.4457C35.6421 34.9638 35.2616 35.5603 34.5082 35.5603V37.9712C36.6074 37.9712 38.4141 36.1093 37.8509 33.8601L35.5124 34.4457ZM27.5287 25.9167C30.0064 25.9167 31.7466 27.1287 33.0214 28.8264C34.3219 30.5584 35.0854 32.741 35.5124 34.4457L37.8509 33.8601C37.3902 32.0199 36.5281 29.4817 34.9494 27.3789C33.345 25.2424 30.9524 23.5059 27.5287 23.5059V25.9167ZM24.0768 26.8881C25.0166 26.2919 26.1451 25.9167 27.5287 25.9167V23.5059C25.6769 23.5059 24.1019 24.0167 22.7848 24.8526L24.0768 26.8881ZM22.5599 26.7037C24.8435 29.0909 25.7558 32.3408 26.1099 34.5615L28.4909 34.1818C28.1064 31.7716 27.0844 27.9458 24.302 25.037L22.5599 26.7037ZM26.1099 34.5615C26.1859 35.0364 25.8211 35.5603 25.1176 35.5603V37.9712C27.0772 37.9712 28.8345 36.3366 28.4909 34.1818L26.1099 34.5615Z" fill="#934AF7"/>
<path d="M44.3986 4.82178H34.7551C34.4222 4.82178 34.1523 5.09163 34.1523 5.4245C34.1523 5.75737 34.4222 6.02722 34.7551 6.02722H44.3986C44.7315 6.02722 45.0013 5.75737 45.0013 5.4245C45.0013 5.09163 44.7315 4.82178 44.3986 4.82178Z" fill="#934AF7"/>
<path d="M40.1875 10.2463V0.602722C40.1875 0.269848 39.9177 0 39.5848 0C39.2519 0 38.9821 0.269848 38.9821 0.602722V10.2463C38.9821 10.5791 39.2519 10.849 39.5848 10.849C39.9177 10.849 40.1875 10.5791 40.1875 10.2463Z" fill="#934AF7"/>
</svg>
