<svg width="50" height="51" viewBox="0 0 50 51" fill="none" xmlns="http://www.w3.org/2000/svg">
<path d="M20.429 9.01639C20.429 12.409 17.6787 15.1592 14.2861 15.1592C10.8935 15.1592 8.14328 12.409 8.14328 9.01639C8.14328 5.62378 10.8935 2.87354 14.2861 2.87354C17.6787 2.87354 20.429 5.62378 20.429 9.01639ZM2.78613 30.445C2.78613 24.1938 7.77375 19.1076 13.9866 18.9488C12.9718 20.7658 12.3933 22.8601 12.3933 25.0878C12.3933 27.3172 12.9726 29.4128 13.9887 31.2307H3.57185C3.13791 31.2307 2.78613 30.8789 2.78613 30.445ZM37.6076 25.0878C37.6076 22.8601 37.0291 20.7658 36.0143 18.9488C42.2271 19.1077 47.2147 24.1938 47.2147 30.445C47.2147 30.8788 46.8628 31.2307 46.429 31.2307H36.0121C37.0282 29.4128 37.6076 27.3172 37.6076 25.0878ZM41.8576 9.01639C41.8576 12.409 39.1074 15.1592 35.7147 15.1592C32.3221 15.1592 29.5718 12.409 29.5718 9.01639C29.5718 5.62378 32.3221 2.87354 35.7147 2.87354C39.1074 2.87354 41.8576 5.62377 41.8576 9.01639ZM31.1433 25.0878C31.1433 28.4804 28.393 31.2307 25.0004 31.2307C21.6078 31.2307 18.8576 28.4804 18.8576 25.0878C18.8576 21.6952 21.6078 18.945 25.0004 18.945C28.393 18.945 31.1433 21.6952 31.1433 25.0878ZM13.5004 46.5164C13.5004 40.1651 18.6491 35.0164 25.0004 35.0164C31.3517 35.0164 36.5004 40.1651 36.5004 46.5164C36.5004 46.9502 36.1485 47.3021 35.7147 47.3021H14.2861C13.8523 47.3021 13.5004 46.9502 13.5004 46.5164Z" fill="#934AF7" stroke="#101010" stroke-width="2"/>
</svg>
