<svg width="71" height="70" viewBox="0 0 71 70" fill="none" xmlns="http://www.w3.org/2000/svg">
<path d="M29.393 10.893C29.393 16.3961 24.9318 20.8573 19.4287 20.8573C13.9256 20.8573 9.46443 16.3961 9.46443 10.893C9.46443 5.38987 13.9256 0.928711 19.4287 0.928711C24.9318 0.928711 29.393 5.38987 29.393 10.893ZM1.42871 43.0359C1.42871 33.0947 9.48757 25.0359 19.4287 25.0359C19.7213 25.0359 20.0121 25.0428 20.3012 25.0566C18.4287 27.9133 17.3394 31.3303 17.3394 35.0001C17.3394 38.6789 18.434 42.1036 20.3148 44.9644H3.35728C2.29217 44.9644 1.42871 44.101 1.42871 43.0359ZM53.6609 35.0001C53.6609 31.3303 52.5718 27.9133 50.6992 25.0566C50.9882 25.0428 51.279 25.0359 51.5716 25.0359C61.5127 25.0359 69.5716 33.0947 69.5716 43.0359C69.5716 44.1009 68.7079 44.9644 67.643 44.9644H50.6855C52.5663 42.1036 53.6609 38.6789 53.6609 35.0001ZM61.5359 10.893C61.5359 16.3961 57.0748 20.8573 51.5716 20.8573C46.0684 20.8573 41.6073 16.3961 41.6073 10.893C41.6073 5.38987 46.0684 0.928711 51.5716 0.928711C57.0748 0.928711 61.5359 5.38986 61.5359 10.893ZM45.4644 35.0001C45.4644 40.5033 41.0033 44.9644 35.5001 44.9644C29.997 44.9644 25.5359 40.5033 25.5359 35.0001C25.5359 29.497 29.997 25.0359 35.5001 25.0359C41.0033 25.0359 45.4644 29.497 45.4644 35.0001ZM17.5001 67.143C17.5001 57.2019 25.559 49.143 35.5001 49.143C45.4413 49.143 53.5001 57.2019 53.5001 67.143C53.5001 68.2079 52.6365 69.0716 51.5716 69.0716H19.4287C18.3636 69.0716 17.5001 68.2079 17.5001 67.143Z" fill="#934AF7" stroke="black" stroke-width="1.5"/>
</svg>
