<svg width="55" height="55" viewBox="0 0 55 55" fill="none" xmlns="http://www.w3.org/2000/svg">
<path d="M40.1252 39.0927L40.1251 39.0926C38.3291 35.8034 34.6604 33.8749 27.4994 33.8749C20.3387 33.8749 16.6701 35.8032 14.8741 39.0926C13.9261 40.8288 14.6425 42.909 16.2004 43.9792C19.4143 46.1869 23.3068 47.4791 27.4997 47.4791C31.6923 47.4791 35.5848 46.1871 38.7986 43.9794C40.3566 42.9092 41.0729 40.8288 40.1252 39.0927ZM49.9163 27.4999C49.9163 39.8802 39.8799 49.9166 27.4997 49.9166C15.1193 49.9166 5.08301 39.8802 5.08301 27.4999C5.08301 15.1195 15.1193 5.08325 27.4997 5.08325C39.8799 5.08325 49.9163 15.1195 49.9163 27.4999ZM27.4997 27.9999C31.5729 27.9999 34.8747 24.6981 34.8747 20.6249C34.8747 16.5518 31.5729 13.2499 27.4997 13.2499C23.4265 13.2499 20.1247 16.5518 20.1247 20.6249C20.1247 24.6981 23.4265 27.9999 27.4997 27.9999Z" fill="#934AF7" stroke="black"/>
</svg>
