<svg width="47" height="55" viewBox="0 0 47 55" fill="none" xmlns="http://www.w3.org/2000/svg">
<mask id="mask0_931_42569" style="mask-type:alpha" maskUnits="userSpaceOnUse" x="3" y="2" width="39" height="52">
<path d="M41.1724 26.0973C40.1344 27.462 39.0847 28.8162 38.0201 30.1653C36.48 32.1237 34.9216 34.0644 33.3344 35.981C28.4319 41.9277 23.3125 47.7012 17.9956 53.2735C14.4325 46.4211 11.2204 40.042 8.37551 33.7593C7.16277 31.0838 6.01245 28.4233 4.93874 25.7468C4.38615 24.3832 3.85452 23.014 3.34386 21.6391C10.2574 14.6063 17.7958 8.28189 26.6157 2.04408C31.1792 10.0351 36.1074 17.8098 41.1754 26.0919L41.1724 26.0973Z" fill="#FBB800"/>
</mask>
<g mask="url(#mask0_931_42569)">
<path d="M40.8681 27.1764C39.8294 28.5371 36.1027 31.6739 35.0374 33.0191C31.7912 25.3831 29.8293 20.9323 25.0851 14.2151C17.7808 18.9175 12.6654 23.5932 6.82839 30.0224C6.28148 28.6631 3.57171 24.1423 3.06253 22.7729C9.97915 15.759 17.5198 9.45042 26.3411 3.22696C30.8952 11.1851 35.813 18.9233 40.8723 27.1753L40.8681 27.1764Z" fill="#934AF7"/>
<path d="M34.4848 36.1918C29.5287 42.1879 24.3536 48.0097 18.9791 53.6288C15.3847 46.7259 12.1445 40.2996 9.27526 33.9703C12.5953 30.2995 18.2059 25.7013 24.3323 26.7799C29.5591 27.7025 32.7741 32.0948 34.4848 36.1918Z" fill="#FBB800"/>
</g>
</svg>
