<svg width="458" height="87" viewBox="0 0 458 87" fill="none" xmlns="http://www.w3.org/2000/svg">
<path fill-rule="evenodd" clip-rule="evenodd" d="M215.948 22.6853C218.089 10.2167 231.933 0.584473 248.673 0.584473C266.015 0.584473 280.254 10.9274 281.581 24.0524C286.298 24.8401 290.037 27.8369 291.11 31.659C292.566 31.1984 294.132 30.9504 295.766 30.9504C298.603 30.9504 301.239 31.7048 303.437 32.999C307.555 29.5396 313.014 27.4347 318.994 27.4347C329.426 27.4347 338.262 33.8409 341.189 42.6521C343.597 41.9102 346.187 41.5059 348.885 41.5059C360.705 41.5059 370.486 49.2646 372.006 59.3074C380.517 60.0076 387.116 64.9342 387.116 70.9007C387.116 72.0094 386.888 73.0827 386.462 74.0996C386.528 74.0976 386.592 74.0975 386.657 74.0975C390.164 74.0975 393.008 76.442 393.008 79.3305C393.008 80.1391 392.785 80.906 392.386 81.5895C419.814 83.7652 453.514 85.7034 457.108 86.1202C463.233 86.8287 0.745117 85.1969 0.745117 85.1969C0.745117 85.1969 29.5636 83.4485 46.3358 81.5208C58.3207 80.1433 55.1693 78.3218 56.1189 76.0544C57.4193 72.9451 62.5795 70.6194 68.7419 70.6194C70.788 70.6194 72.7222 70.8757 74.4415 71.3321C74.9087 64.6008 83.7356 59.2241 94.5384 59.2241C99.4727 59.2241 103.995 60.3453 107.497 62.2042C108.304 56.6587 113.986 52.2489 121.142 51.6091C123.102 42.2436 132.234 35.1518 143.191 35.1518C147.421 35.1518 151.377 36.2084 154.757 38.0464C158 31.0692 166.79 26.0593 177.11 26.0593C182.656 26.0593 187.757 27.5056 191.797 29.9251C195.099 24.7943 201.321 21.3328 208.446 21.3328C211.108 21.3286 213.643 21.8121 215.948 22.6853Z" fill="#EFF2FF"/>
<path d="M215.948 22.6853C218.089 10.2167 231.933 0.584473 248.673 0.584473C266.015 0.584473 280.254 10.9274 281.581 24.0524C286.298 24.8401 290.037 27.8369 291.11 31.659C292.566 31.1984 294.132 30.9504 295.766 30.9504C298.603 30.9504 301.239 31.7048 303.437 32.999C307.555 29.5396 313.014 27.4347 318.994 27.4347C329.426 27.4347 338.262 33.8409 341.189 42.6521C343.597 41.9102 346.187 41.5059 348.885 41.5059C360.705 41.5059 370.486 49.2646 372.006 59.3074C380.517 60.0076 387.116 64.9342 387.116 70.9007C387.116 72.0094 386.888 73.0827 386.462 74.0996C386.528 74.0976 386.592 74.0975 386.657 74.0975C390.164 74.0975 393.008 76.442 393.008 79.3305C393.008 80.1391 392.785 80.906 392.386 81.5895C419.814 83.7652 453.514 85.7034 457.108 86.1202C463.233 86.8287 0.745117 85.1969 0.745117 85.1969C0.745117 85.1969 29.5636 83.4485 46.3358 81.5208C58.3207 80.1433 55.1693 78.3218 56.1189 76.0544C57.4193 72.9451 62.5795 70.6194 68.7419 70.6194C70.788 70.6194 72.7222 70.8757 74.4415 71.3321C74.9087 64.6008 83.7356 59.2241 94.5384 59.2241C99.4727 59.2241 103.995 60.3453 107.497 62.2042C108.304 56.6587 113.986 52.2489 121.142 51.6091C123.102 42.2436 132.234 35.1518 143.191 35.1518C147.421 35.1518 151.377 36.2084 154.757 38.0464C158 31.0692 166.79 26.0593 177.11 26.0593C182.656 26.0593 187.757 27.5056 191.797 29.9251C195.099 24.7943 201.321 21.3328 208.446 21.3328C211.108 21.3286 213.643 21.8121 215.948 22.6853Z" fill="#EFF2FF"/>
<mask id="mask0_331_25691" style="mask-type:luminance" maskUnits="userSpaceOnUse" x="0" y="0" width="458" height="87">
<path d="M215.948 22.6853C218.089 10.2167 231.933 0.584473 248.673 0.584473C266.015 0.584473 280.254 10.9274 281.581 24.0524C286.298 24.8401 290.037 27.8369 291.11 31.659C292.566 31.1984 294.132 30.9504 295.766 30.9504C298.603 30.9504 301.239 31.7048 303.437 32.999C307.555 29.5396 313.014 27.4347 318.994 27.4347C329.426 27.4347 338.262 33.8409 341.189 42.6521C343.597 41.9102 346.187 41.5059 348.885 41.5059C360.705 41.5059 370.486 49.2646 372.006 59.3074C380.517 60.0076 387.116 64.9342 387.116 70.9007C387.116 72.0094 386.888 73.0827 386.462 74.0996C386.528 74.0976 386.592 74.0975 386.657 74.0975C390.164 74.0975 393.008 76.442 393.008 79.3305C393.008 80.1391 392.785 80.906 392.386 81.5895C419.814 83.7652 453.514 85.7034 457.108 86.1202C463.233 86.8287 0.745117 85.1969 0.745117 85.1969C0.745117 85.1969 29.5636 83.4485 46.3358 81.5208C58.3207 80.1433 55.1693 78.3218 56.1189 76.0544C57.4193 72.9451 62.5795 70.6194 68.7419 70.6194C70.788 70.6194 72.7222 70.8757 74.4415 71.3321C74.9087 64.6008 83.7356 59.2241 94.5384 59.2241C99.4727 59.2241 103.995 60.3453 107.497 62.2042C108.304 56.6587 113.986 52.2489 121.142 51.6091C123.102 42.2436 132.234 35.1518 143.191 35.1518C147.421 35.1518 151.377 36.2084 154.757 38.0464C158 31.0692 166.79 26.0593 177.11 26.0593C182.656 26.0593 187.757 27.5056 191.797 29.9251C195.099 24.7943 201.321 21.3328 208.446 21.3328C211.108 21.3286 213.643 21.8121 215.948 22.6853Z" fill="white"/>
</mask>
<g mask="url(#mask0_331_25691)">
<path fill-rule="evenodd" clip-rule="evenodd" d="M155.412 76.2901C154.792 78.3553 151.851 79.8725 149.925 80.4831C144.219 82.2899 137.254 81.6085 132.039 78.7326C130.287 77.7656 127.37 74.2436 125.144 74.5708C122.912 74.8959 121.223 77.5405 119.609 78.8013C116.725 81.052 113.383 82.4546 109.646 82.7609C104.874 83.1527 100.374 81.7397 96.3761 79.3265C94.7621 78.3532 92.2598 75.4606 90.2466 75.419C89.012 75.3919 87.7861 77.0737 87.0602 77.8156C85.5689 79.3411 83.6303 80.8249 81.4526 81.3334C77.3451 82.2899 72.4832 81.3646 68.5313 80.183C67.0818 79.7495 65.6475 78.9243 64.1431 78.7096C62.1518 78.4283 60.5816 80.9187 58.6474 81.3313C52.5859 82.6275 46.0858 79.0055 43.4322 73.9227C39.4431 66.2785 47.9674 60.7976 53.6407 56.7151C62.0093 50.6902 71.3823 47.8685 81.6588 46.3451C89.1545 45.2343 96.8849 45.6553 103.635 41.927C126.021 32.4677 141.085 14.5162 163.193 4.37125C194.11 -9.81454 227.984 -10.3793 261.506 -8.10359C283.403 -6.6177 305.06 -4.08979 324.887 5.4987C335.896 10.8212 346.567 18.8405 354.501 27.8746C361.71 36.0814 366.832 48.502 376.214 54.7749C377.809 55.7835 378.826 58.3635 379.265 59.9849C380.839 65.7888 378.931 71.276 373.646 74.6521C370.063 76.9424 365.416 77.8072 361.214 76.8444C358.808 76.2943 356.091 74.377 353.538 74.8542C351.251 75.2814 349.444 77.3071 347.514 78.4137C343.49 80.7207 338.876 82.5629 334.126 82.6984C327.053 82.9006 319.551 80.5581 313.448 77.2863C311.36 76.1671 309.362 74.9772 307.608 73.4162C306.845 72.7369 305.744 71.3989 304.577 71.3989C302.301 71.3989 299.233 75.5899 297.423 76.7006C293.553 79.0764 288.669 80.1726 284.132 80.5164C276.546 81.0916 268.741 79.6745 261.872 76.5714C259.589 75.5399 257.361 74.3916 255.243 73.0849C254.208 72.4472 252.795 71.0968 251.475 71.0759C248.892 71.0342 246.08 75.4961 244.506 76.9924C241.44 79.9079 237.55 81.5168 233.262 81.9732C227.637 82.5733 222.291 81.2875 216.744 80.8082C209.762 80.2059 203.137 81.1041 196.569 78.0386C193.608 76.6569 191.11 74.4353 188.904 72.1304C187.99 71.1759 186.623 68.8377 185.215 68.4709C184.275 68.225 183.985 70.6549 183.864 71.103C183.136 73.7893 182.268 76.9403 179.588 78.47C172.671 82.4129 162.248 79.7641 155.754 76.2046" fill="#EFF2FF"/>
</g>
<path fill-rule="evenodd" clip-rule="evenodd" d="M294.239 45.0112C292.709 56.2753 300.658 67.3204 313.15 70.5006C325.218 73.5745 337.481 68.2749 342.444 58.4614C342.315 59.4138 342.117 60.3682 341.85 61.3185C338.411 73.5141 324.619 80.6143 311.073 77.1653C297.525 73.7162 289.316 61.0143 292.755 48.8187C293.132 47.487 293.63 46.2158 294.239 45.0112Z" fill="#EFF2FF"/>
<path fill-rule="evenodd" clip-rule="evenodd" d="M178.259 47.762C176.728 59.026 184.68 70.0712 197.172 73.2514C209.24 76.3253 221.501 71.0257 226.466 61.2121C226.336 62.1645 226.139 63.119 225.872 64.0693C222.433 76.2648 208.643 83.365 195.095 79.916C181.546 76.467 173.34 63.765 176.776 51.5694C177.151 50.2357 177.651 48.9644 178.259 47.762Z" fill="#EFF2FF"/>
<path fill-rule="evenodd" clip-rule="evenodd" d="M224.495 75.1915C233.041 79.5888 244.188 77.0859 250.381 69.0083C256.364 61.2038 255.717 50.8108 249.333 44.3608C250.054 44.7318 250.76 45.1528 251.44 45.6258C260.173 51.6715 261.811 63.6941 255.094 72.4552C248.377 81.2164 235.833 83.4213 227.1 77.3756C226.148 76.7129 225.278 75.9814 224.495 75.1915Z" fill="#EFF2FF"/>
<path fill-rule="evenodd" clip-rule="evenodd" d="M121.905 56.4919C121.986 65.7282 129.681 73.7892 140.116 75.0354C150.197 76.2399 159.458 70.6777 162.314 62.248C162.32 63.0295 162.272 63.8193 162.167 64.6133C160.82 74.802 150.537 81.9751 139.219 80.6246C127.901 79.2721 119.806 69.9046 121.153 59.7159C121.3 58.601 121.554 57.5235 121.905 56.4919Z" fill="#EFF2FF"/>
</svg>
