<svg width="1113" height="210" viewBox="0 0 1113 210" fill="none" xmlns="http://www.w3.org/2000/svg">
<path fill-rule="evenodd" clip-rule="evenodd" d="M524.597 54.335C529.814 23.9441 563.562 0.463623 604.366 0.463623C646.641 0.463623 681.347 25.6779 684.584 57.6694C696.082 59.5909 705.194 66.8932 707.811 76.2108C711.363 75.0917 715.177 74.4811 719.157 74.4811C726.074 74.4811 732.5 76.3212 737.855 79.4743C747.897 71.0445 761.197 65.9096 775.774 65.9096C801.207 65.9096 822.742 81.5291 829.881 103.003C835.749 101.194 842.065 100.21 848.635 100.21C877.449 100.21 901.29 119.12 904.996 143.601C925.74 145.306 941.828 157.316 941.828 171.86C941.828 174.563 941.271 177.181 940.236 179.658C940.394 179.654 940.551 179.652 940.709 179.652C949.26 179.652 956.194 185.369 956.194 192.406C956.194 194.378 955.65 196.245 954.679 197.914C1021.54 203.218 1103.69 207.943 1112.45 208.955C1127.37 210.683 0.0112305 206.707 0.0112305 206.707C0.0112305 206.707 70.258 202.445 111.145 197.745C140.36 194.388 132.68 189.951 134.992 184.418C138.161 176.837 150.742 171.168 165.76 171.168C170.744 171.168 175.462 171.793 179.655 172.904C180.793 156.495 202.309 143.391 228.644 143.391C240.673 143.391 251.695 146.125 260.231 150.658C262.2 137.137 276.049 126.389 293.49 124.831C298.268 102.002 320.53 84.7114 347.239 84.7114C357.548 84.7114 367.195 87.2872 375.432 91.7658C383.338 74.7562 404.762 62.546 429.922 62.546C443.44 62.546 455.879 66.07 465.721 71.9698C473.772 59.4617 488.938 51.0256 506.307 51.0256C512.798 51.0319 518.978 52.2094 524.597 54.335Z" fill="#EFF2FF"/>
<path d="M524.597 54.335C529.814 23.9441 563.562 0.463623 604.366 0.463623C646.641 0.463623 681.347 25.6779 684.584 57.6694C696.082 59.5909 705.194 66.8932 707.811 76.2108C711.363 75.0917 715.177 74.4811 719.157 74.4811C726.074 74.4811 732.5 76.3212 737.855 79.4743C747.897 71.0445 761.197 65.9096 775.774 65.9096C801.207 65.9096 822.742 81.5291 829.881 103.003C835.749 101.194 842.065 100.21 848.635 100.21C877.449 100.21 901.29 119.12 904.996 143.601C925.74 145.306 941.828 157.316 941.828 171.86C941.828 174.563 941.271 177.181 940.236 179.658C940.394 179.654 940.551 179.652 940.709 179.652C949.26 179.652 956.194 185.369 956.194 192.406C956.194 194.378 955.65 196.245 954.679 197.914C1021.54 203.218 1103.69 207.943 1112.45 208.955C1127.37 210.683 0.0112305 206.707 0.0112305 206.707C0.0112305 206.707 70.258 202.445 111.145 197.745C140.36 194.388 132.68 189.951 134.992 184.418C138.161 176.837 150.742 171.168 165.76 171.168C170.744 171.168 175.462 171.793 179.655 172.904C180.793 156.495 202.309 143.391 228.644 143.391C240.673 143.391 251.695 146.125 260.231 150.658C262.2 137.137 276.049 126.389 293.49 124.831C298.268 102.002 320.53 84.7114 347.239 84.7114C357.548 84.7114 367.195 87.2872 375.432 91.7658C383.338 74.7562 404.762 62.546 429.922 62.546C443.44 62.546 455.879 66.07 465.721 71.9698C473.772 59.4617 488.938 51.0256 506.307 51.0256C512.798 51.0319 518.978 52.2094 524.597 54.335Z" fill="#EFF2FF"/>
<mask id="mask0_331_25703" style="mask-type:luminance" maskUnits="userSpaceOnUse" x="0" y="0" width="1113" height="210">
<path d="M524.597 54.335C529.814 23.9441 563.562 0.463623 604.366 0.463623C646.641 0.463623 681.347 25.6779 684.584 57.6694C696.082 59.5909 705.194 66.8932 707.811 76.2108C711.363 75.0917 715.177 74.4811 719.157 74.4811C726.074 74.4811 732.5 76.3212 737.855 79.4743C747.897 71.0445 761.197 65.9096 775.774 65.9096C801.207 65.9096 822.742 81.5291 829.881 103.003C835.749 101.194 842.065 100.21 848.635 100.21C877.449 100.21 901.29 119.12 904.996 143.601C925.74 145.306 941.828 157.316 941.828 171.86C941.828 174.563 941.271 177.181 940.236 179.658C940.394 179.654 940.551 179.652 940.709 179.652C949.26 179.652 956.194 185.369 956.194 192.406C956.194 194.378 955.65 196.245 954.679 197.914C1021.54 203.218 1103.69 207.943 1112.45 208.955C1127.37 210.683 0.0112305 206.707 0.0112305 206.707C0.0112305 206.707 70.258 202.445 111.145 197.745C140.36 194.388 132.68 189.951 134.992 184.418C138.161 176.837 150.742 171.168 165.76 171.168C170.744 171.168 175.462 171.793 179.655 172.904C180.793 156.495 202.309 143.391 228.644 143.391C240.673 143.391 251.695 146.125 260.231 150.658C262.2 137.137 276.049 126.389 293.49 124.831C298.268 102.002 320.53 84.7114 347.239 84.7114C357.548 84.7114 367.195 87.2872 375.432 91.7658C383.338 74.7562 404.762 62.546 429.922 62.546C443.44 62.546 455.879 66.07 465.721 71.9698C473.772 59.4617 488.938 51.0256 506.307 51.0256C512.798 51.0319 518.978 52.2094 524.597 54.335Z" fill="white"/>
</mask>
<g mask="url(#mask0_331_25703)">
<path fill-rule="evenodd" clip-rule="evenodd" d="M377.037 185.002C375.524 190.039 368.355 193.736 363.66 195.224C349.75 199.63 332.771 197.969 320.058 190.956C315.786 188.599 308.676 180.015 303.249 180.809C297.808 181.605 293.691 188.049 289.755 191.123C282.724 196.612 274.577 200.025 265.467 200.776C253.838 201.734 242.868 198.285 233.123 192.404C229.188 190.031 223.087 182.983 218.184 182.88C215.175 182.816 212.188 186.913 210.416 188.724C206.78 192.44 202.052 196.06 196.749 197.298C186.738 199.632 174.887 197.375 165.253 194.495C161.72 193.438 158.226 191.425 154.555 190.904C149.702 190.216 145.871 196.289 141.158 197.298C126.384 200.457 110.539 191.627 104.072 179.236C94.3482 160.602 115.125 147.244 128.958 137.287C149.36 122.603 172.205 115.721 197.253 112.008C215.528 109.299 234.37 110.326 250.822 101.238C305.398 78.1886 342.12 34.4267 396.007 9.69793C471.37 -24.884 553.939 -26.2573 635.656 -20.7097C689.032 -17.0856 741.822 -10.9232 790.152 12.4467C816.988 25.4196 843.001 44.9676 862.342 66.9871C879.914 86.9914 892.403 117.268 915.272 132.56C919.158 135.019 921.639 141.307 922.711 145.26C926.549 159.408 921.897 172.781 909.018 181.015C900.281 186.6 888.958 188.703 878.71 186.359C872.846 185.017 866.223 180.346 860.002 181.507C854.425 182.547 850.023 187.484 845.319 190.183C835.512 195.807 824.264 200.294 812.683 200.626C795.444 201.12 777.156 195.407 762.281 187.432C757.188 184.704 752.32 181.805 748.044 177.996C746.182 176.339 743.502 173.075 740.66 173.075C735.111 173.075 727.633 183.293 723.221 186C713.789 191.792 701.878 194.463 690.819 195.301C672.327 196.704 653.303 193.248 636.559 185.685C630.993 183.172 625.563 180.373 620.397 177.189C617.875 175.634 614.434 172.344 611.215 172.292C604.918 172.187 598.065 183.068 594.225 186.715C586.751 193.821 577.266 197.741 566.815 198.856C553.104 200.321 540.071 197.185 526.553 196.016C509.531 194.545 493.383 196.737 477.374 189.264C470.157 185.894 464.069 180.48 458.692 174.863C456.466 172.538 453.135 166.838 449.703 165.942C447.407 165.341 446.705 171.266 446.409 172.358C444.633 178.908 442.519 186.588 435.986 190.314C419.126 199.928 393.715 193.467 377.888 184.791" fill="#EFF2FF"/>
</g>
<path fill-rule="evenodd" clip-rule="evenodd" d="M715.442 108.761C711.707 136.215 731.089 163.141 761.537 170.893C790.954 178.385 820.848 165.468 832.949 141.544C832.633 143.864 832.153 146.191 831.497 148.509C823.117 178.237 789.498 195.545 756.476 187.136C723.447 178.727 703.44 147.765 711.826 118.037C712.738 114.792 713.955 111.695 715.442 108.761Z" fill="#EFF2FF"/>
<path fill-rule="evenodd" clip-rule="evenodd" d="M432.729 115.463C428.999 142.917 448.381 169.843 478.829 177.595C508.248 185.085 538.137 172.171 550.238 148.246C549.922 150.568 549.442 152.894 548.786 155.211C540.406 184.939 506.787 202.247 473.763 193.838C440.738 185.429 420.731 154.467 429.113 124.739C430.029 121.494 431.245 118.397 432.729 115.463Z" fill="#EFF2FF"/>
<path fill-rule="evenodd" clip-rule="evenodd" d="M545.433 182.328C566.266 193.048 593.436 186.944 608.535 167.255C623.118 148.23 621.544 122.897 605.978 107.173C607.739 108.079 609.46 109.105 611.116 110.255C632.406 124.993 636.397 154.298 620.022 175.657C603.649 197.014 573.071 202.389 551.781 187.649C549.459 186.038 547.341 184.256 545.433 182.328Z" fill="#EFF2FF"/>
<path fill-rule="evenodd" clip-rule="evenodd" d="M295.356 136.743C295.553 159.256 314.312 178.906 339.749 181.945C364.326 184.879 386.899 171.322 393.858 150.772C393.873 152.675 393.759 154.6 393.502 156.537C390.219 181.372 365.153 198.858 337.563 195.566C309.972 192.271 290.24 169.432 293.525 144.599C293.884 141.886 294.503 139.262 295.356 136.743Z" fill="#EFF2FF"/>
</svg>
