<svg width="70" height="70" viewBox="0 0 70 70" fill="none" xmlns="http://www.w3.org/2000/svg">
<path d="M36.5917 13.8642C36.5042 14.5773 36.4576 15.3036 36.4576 16.0415C36.4576 25.7059 44.2932 33.5415 53.9576 33.5415C57.9928 33.5415 61.7071 32.1765 64.6676 29.8825C64.7478 31.6778 64.8119 33.6713 64.8513 35.8705C64.774 35.8996 64.6982 35.9332 64.6238 35.9725C63.6424 36.4771 57.9782 39.3646 51.4332 42.1209C48.1592 43.499 44.6971 44.8319 41.5092 45.8163C38.2761 46.8123 35.5023 47.3957 33.5409 47.3957C31.5794 47.3957 28.8071 46.8123 25.5726 45.8163C22.3861 44.8319 18.9226 43.5005 15.6501 42.1209C11.182 40.2278 6.78235 38.1771 2.45943 35.9725C2.38513 35.9342 2.30868 35.9001 2.23047 35.8705C2.33984 29.7717 2.64026 25.2567 2.93484 22.1548C3.32859 17.9723 6.6288 14.853 10.7603 14.5496C15.2359 14.2215 22.669 13.854 33.5409 13.854C34.5909 13.854 35.6059 13.8569 36.5917 13.8642Z" fill="#934AF7"/>
<path d="M33.5417 67.8122C22.6698 67.8122 15.2367 67.4447 10.7625 67.1166C6.62958 66.8133 3.33083 63.6939 2.93562 59.5114C2.56667 55.6206 2.1875 49.5058 2.1875 40.8331V40.7368C4.59083 41.9326 9.02271 44.0764 13.9533 46.1531C17.2987 47.5618 20.9067 48.9531 24.2842 49.9958C27.615 51.0239 30.9021 51.7706 33.5417 51.7706C36.1812 51.7706 39.4683 51.0239 42.8006 49.9958C46.1781 48.9531 49.786 47.5618 53.1329 46.1531C57.1083 44.4682 61.0311 42.6619 64.8958 40.7368V40.8331C64.8958 49.5058 64.5167 55.6206 64.1477 59.5114C63.754 63.6939 60.4537 66.8133 56.3223 67.1166C51.8467 67.4447 44.4135 67.8122 33.5417 67.8122Z" fill="#934AF7"/>
<path d="M53.959 2.9165C57.44 2.9165 60.7783 4.29931 63.2398 6.76073C65.7012 9.22214 67.084 12.5605 67.084 16.0415C67.084 19.5225 65.7012 22.8609 63.2398 25.3223C60.7783 27.7837 57.44 29.1665 53.959 29.1665C50.478 29.1665 47.1396 27.7837 44.6782 25.3223C42.2168 22.8609 40.834 19.5225 40.834 16.0415C40.834 12.5605 42.2168 9.22214 44.6782 6.76073C47.1396 4.29931 50.478 2.9165 53.959 2.9165Z" fill="#FBB800"/>
</svg>
