<svg width="893" height="757" viewBox="0 0 893 757" fill="none" xmlns="http://www.w3.org/2000/svg">
<g clip-path="url(#clip0_941_44111)">
<g clip-path="url(#clip1_941_44111)">
<path d="M479.837 645.416C481.24 647.955 482.621 650.339 484.035 652.878C498.978 651.586 528.362 647.176 528.362 647.176C534.809 642.554 542.849 640.416 550.776 640.716C561.599 641.128 572.422 641.54 583.234 641.953C583.735 643.913 582.956 646.14 581.43 647.476C576.687 651.653 574.827 658.079 571.331 663.358C568.514 667.612 565.641 672.023 564.773 677.057C541.535 683.004 518.452 689.118 495.537 696.235C482.532 700.277 467.612 698.395 457.056 689.786C448.727 682.982 443.594 673.058 439.597 663.08L479.826 645.438L479.837 645.416Z" fill="#8F5D63"/>
<path d="M480.327 656.954C480.483 656.965 480.639 656.921 480.761 656.809L484.937 653.034C485.182 652.822 485.193 652.444 484.981 652.21C484.77 651.976 484.391 651.954 484.157 652.165L479.982 655.941C479.737 656.152 479.726 656.531 479.937 656.765C480.037 656.876 480.182 656.943 480.327 656.954Z" fill="#050902"/>
<path d="M262.132 824.211L451.689 829.011C451.466 828.365 451.255 827.73 451.032 827.073C444.284 806.982 437.058 786.968 430.132 766.899C428.351 761.776 426.603 756.631 424.877 751.486C425.489 749.158 426.113 746.853 426.736 744.525C402.028 736.607 377.61 729.601 352.913 723.376C334.43 718.72 315.779 714.499 296.75 710.646C287.352 734.791 279.079 759.382 272.109 784.329C268.401 797.538 265.072 810.824 262.132 824.2V824.211Z" fill="#7139BE"/>
<path d="M272.098 784.34C282.543 792.76 295.336 798.273 308.653 799.999C315.579 800.89 323.062 800.678 328.963 796.936C334.853 793.183 338.338 785.008 334.953 778.883C333.083 775.508 329.62 773.37 326.959 770.575C324.286 767.79 322.394 763.369 324.509 760.139C326.558 757.021 331.168 756.854 334.686 758.112C338.194 759.371 341.323 761.665 344.986 762.422C351.689 763.803 358.704 759.259 361.421 752.967C364.137 746.697 363.113 739.257 360.006 733.154C358.169 729.534 355.686 726.316 352.903 723.364C334.419 718.709 315.768 714.488 296.739 710.635C287.342 734.78 279.069 759.371 272.098 784.318V784.34Z" fill="#934AF7"/>
<path d="M383.266 734.379L413.196 742.42C414.054 749.615 409.644 757.11 402.941 759.85C396.238 762.59 387.843 760.329 383.411 754.604C378.991 748.869 378.924 740.171 383.266 734.379Z" fill="#934AF7"/>
<path d="M271.141 818.587C271.408 818.609 271.653 818.453 271.742 818.186L304.879 717.785C304.979 717.473 304.812 717.15 304.511 717.05C304.199 716.95 303.876 717.117 303.776 717.418L270.639 817.818C270.539 818.13 270.706 818.453 271.007 818.553C271.051 818.565 271.096 818.576 271.141 818.576V818.587Z" fill="#050902"/>
<path d="M294.635 750.082C294.701 750.082 294.757 750.082 294.824 750.071C309.388 746.452 322.282 736.373 329.319 723.108C329.475 722.819 329.364 722.474 329.074 722.318C328.785 722.162 328.439 722.273 328.284 722.563C321.402 735.537 308.787 745.394 294.534 748.935C294.223 749.013 294.033 749.325 294.111 749.648C294.178 749.893 294.39 750.071 294.635 750.094V750.082Z" fill="#050902"/>
<path d="M285.972 614.522C296.093 591.101 318.864 572.168 344.329 570.575C359.995 569.595 375.495 569.55 391.161 568.57C391.016 572.457 394.045 576.222 397.875 576.912C401.706 577.603 406.237 575.063 407.462 571.366C420.79 578.427 434.13 585.476 447.458 592.537C467.055 602.917 478.746 624.735 486.095 645.661C473.413 651.029 460.441 656.899 447.759 662.267C442.47 691.334 436.557 719.712 431.268 748.779L289.891 714.923C298.588 687.013 307.506 659.349 316.191 631.45C306.059 626.06 296.093 619.912 285.95 614.533L285.972 614.522Z" fill="#DD403F"/>
<path d="M396.261 595.154C406.761 596.012 417.495 590.889 423.686 581.846C423.864 581.578 423.797 581.211 423.53 581.033C423.263 580.854 422.906 580.921 422.717 581.189C416.315 590.555 404.323 595.667 393.566 593.617C382.799 591.568 373.379 582.391 370.662 571.288C370.585 570.976 370.273 570.775 369.95 570.853C369.638 570.931 369.449 571.243 369.516 571.566C372.388 583.282 381.953 592.604 393.333 594.765C394.301 594.954 395.27 595.076 396.25 595.154H396.261Z" fill="#050902"/>
<path d="M447.357 663.726C447.647 663.748 447.914 663.559 447.97 663.269L453.392 639.257C453.459 638.946 453.27 638.634 452.947 638.556C452.635 638.489 452.312 638.678 452.246 639.001L446.823 663.013C446.756 663.325 446.945 663.637 447.268 663.715C447.291 663.715 447.324 663.715 447.346 663.726H447.357Z" fill="#050902"/>
<path d="M450.453 652.644C450.553 652.644 450.653 652.644 450.754 652.588L482.766 637.297C483.055 637.163 483.178 636.807 483.044 636.517C482.911 636.228 482.554 636.105 482.265 636.239L450.253 651.53C449.963 651.664 449.841 652.02 449.974 652.31C450.063 652.51 450.253 652.622 450.453 652.644Z" fill="#050902"/>
<path d="M342.792 634.457C343.004 634.48 343.216 634.379 343.338 634.19C343.505 633.912 343.427 633.555 343.149 633.388L293.399 602.193C293.132 602.015 292.764 602.104 292.597 602.383C292.43 602.661 292.508 603.017 292.787 603.185L342.536 634.379C342.614 634.435 342.703 634.457 342.804 634.469L342.792 634.457Z" fill="#050902"/>
<path d="M759.151 492.103C760.732 501.525 769.261 508.341 778.157 511.794C787.054 515.257 796.73 516.282 805.738 519.423C814.757 522.563 823.642 528.644 826.526 538.01C824.89 539.458 823.253 540.917 821.627 542.365C820.302 532.921 811.628 526.138 802.709 522.797C793.779 519.456 784.081 518.509 775.229 514.968C766.377 511.426 757.959 504.165 756.512 494.754C757.135 493.596 758.148 492.638 759.162 492.081L759.151 492.103Z" fill="#DD403F"/>
<path d="M658.604 509.945C660.865 516.092 658.95 523.02 655.977 528.844C652.993 534.68 648.973 539.982 646.624 546.096C643.517 554.192 643.617 563.481 646.913 571.511C650.209 579.529 656.656 586.212 664.561 589.798C665.419 588.038 666.287 586.267 667.167 584.519C659.094 577.903 650.365 570.007 649.864 559.572C649.441 550.918 654.874 543.267 659.217 535.772C663.537 528.265 666.922 518.721 663.025 511.025C661.9 511.315 660.776 511.582 658.604 509.945Z" fill="#DD403F"/>
<path d="M721.371 566.444C723.442 584.085 733.875 600.568 748.929 610.001C756.968 615.035 766.344 618.276 772.791 625.225C780.629 633.689 782.478 647.187 777.189 657.445C779.605 658.024 782.044 658.603 784.471 659.193C789.994 646.107 786.664 629.802 776.476 619.924C767.324 611.059 754.107 607.695 744.086 599.832C733.908 591.847 727.584 579.162 727.317 566.232C725.769 566.31 724.221 566.399 721.36 566.455L721.371 566.444Z" fill="#DD403F"/>
<path d="M760.019 492.059L727.116 575.386L657.413 510.613L661.455 500.033L684.927 438.79L746.813 482.692L760.019 492.059Z" fill="#934AF7"/>
<path d="M760.019 492.059L727.116 575.386L657.413 510.613L661.455 500.033L717.028 555.696L746.813 482.692L760.019 492.059Z" fill="#FBB800"/>
<path d="M752.091 504.733C752.314 504.41 752.548 504.132 752.793 503.875C753.483 502.684 754.207 501.514 754.953 500.367L687.198 454.783L666.532 512.239C666.655 512.329 666.788 512.406 666.889 512.507C669.539 514.678 671.732 517.129 673.992 519.646L689.982 470.999L749.452 509.166C750.265 507.651 751.122 506.147 752.08 504.733H752.091Z" fill="#FBB800"/>
<path d="M657.402 511.137C657.402 511.137 657.402 511.137 657.413 511.137C692.576 511.125 727.105 504.844 760.03 492.471C760.297 492.371 760.442 492.07 760.342 491.791C760.241 491.524 759.93 491.379 759.662 491.48C726.849 503.808 692.454 510.056 657.413 510.079C657.123 510.079 656.889 510.312 656.889 510.602C656.889 510.892 657.123 511.125 657.402 511.125V511.137Z" fill="#29153D"/>
<path d="M726.66 574.451C726.749 574.451 726.849 574.429 726.938 574.384C727.194 574.239 727.272 573.916 727.128 573.66C706.083 537.554 692.064 492.148 685.462 438.712C685.428 438.423 685.172 438.222 684.871 438.256C684.582 438.289 684.382 438.556 684.415 438.846C691.04 492.426 705.103 537.966 726.226 574.195C726.326 574.362 726.493 574.451 726.671 574.451H726.66Z" fill="#29153D"/>
<path d="M709.601 539.592C709.824 539.592 710.036 539.458 710.113 539.235C710.203 538.957 710.058 538.667 709.779 538.567C697.832 534.569 686.809 528.488 677.01 520.503C678.012 517.774 679.003 515.068 679.994 512.395C684.359 500.556 688.245 490.088 691.953 478.683C692.042 478.405 691.897 478.115 691.619 478.015C691.34 477.926 691.051 478.082 690.962 478.349C687.265 489.731 683.379 500.189 679.014 512.016C677.99 514.801 676.954 517.618 675.908 520.469L675.785 520.815L676.075 521.049C686.04 529.234 697.275 535.449 709.468 539.536C709.523 539.558 709.568 539.558 709.624 539.558L709.601 539.592Z" fill="#29153D"/>
<path d="M299.601 798.496L378.868 718.287C379.369 718.064 384.224 716.215 415.535 711.694C467.077 703.697 512.874 688.695 551.667 667.123C582.722 649.86 609.378 628.366 630.901 603.241C667.568 560.441 676.732 521.394 676.821 521.004L675.796 520.771C675.707 521.16 666.588 559.995 630.066 602.595C596.362 641.92 531.758 692.582 415.379 710.647C381.763 715.502 378.412 717.329 378.289 717.396L378.189 717.474L298.855 797.739L299.601 798.474V798.496Z" fill="#29153D"/>
<path d="M284.758 652.333C288.288 641.352 291.817 630.37 295.347 619.4L337.692 641.251C336.167 646.876 334.886 652.388 333.361 658.024C351.098 667.19 370.038 674.039 386.295 685.621C394.913 691.758 411.537 704.22 411.537 704.22C411.537 704.22 418.931 717.373 422.627 723.944C419.643 726.461 416.47 729.234 413.486 731.751C412.985 731.829 412.05 731.128 411.938 730.638C411.838 730.136 411.983 729.624 412.139 729.145C412.629 727.564 413.118 725.971 413.608 724.39C411.515 722.485 409.622 720.224 407.529 718.309C407.529 721.594 407.529 725.002 407.54 728.288C407.54 730.159 405.38 731.417 403.509 731.529C401.639 731.64 399.768 730.415 399.122 728.655C398.565 727.118 398.265 725.481 397.764 723.933C397.608 725.86 397.452 727.786 397.296 729.713C397.151 731.451 394.991 732.809 393.254 732.598C391.517 732.386 390.092 731.061 389.279 729.513C388.466 727.965 388.177 726.205 387.898 724.49C387.576 726.06 387.253 727.631 386.93 729.201C386.674 730.437 384.747 731.061 383.545 730.704C382.331 730.348 381.44 729.279 380.95 728.121C380.449 726.962 378.835 720.904 378.835 720.904C378.835 720.904 362.645 714.199 355.43 709.343C338.394 704.499 320.79 699.142 303.42 693.74C297.418 691.869 292.296 687.96 288.265 683.127C284.235 678.293 281.752 672.09 281.852 665.797C281.93 661.198 283.355 656.732 284.758 652.344V652.333Z" fill="#8F5D63"/>
<path d="M334.875 659.182C335.12 659.204 335.365 659.071 335.465 658.826C335.588 658.525 335.454 658.18 335.153 658.057L322.927 652.867C322.627 652.734 322.282 652.878 322.159 653.179C322.037 653.48 322.17 653.825 322.471 653.948L334.697 659.138C334.752 659.16 334.819 659.182 334.875 659.182Z" fill="#050902"/>
<path d="M407.428 721.249C407.428 721.249 407.484 721.249 407.517 721.249C407.84 721.226 408.085 720.948 408.063 720.625L407.451 711.637C407.428 711.315 407.15 711.069 406.827 711.092C406.504 711.114 406.259 711.392 406.281 711.715L406.894 720.703C406.916 720.993 407.15 721.226 407.428 721.249Z" fill="#050902"/>
<path d="M397.429 726.995C397.429 726.995 397.485 726.995 397.507 726.995C397.83 726.984 398.075 726.706 398.064 726.383L397.441 713.976C397.429 713.653 397.151 713.408 396.828 713.419C396.505 713.43 396.26 713.709 396.271 714.032L396.895 726.439C396.906 726.739 397.14 726.973 397.429 726.995Z" fill="#050902"/>
<path d="M388.077 727.887C388.077 727.887 388.166 727.887 388.211 727.887C388.533 727.842 388.756 727.541 388.712 727.229L387.153 716.215C387.108 715.892 386.808 715.669 386.496 715.714C386.173 715.758 385.95 716.059 385.995 716.371L387.554 727.385C387.587 727.664 387.821 727.864 388.088 727.887H388.077Z" fill="#050902"/>
<path d="M378.757 722.062C378.813 722.062 378.879 722.062 378.935 722.051C379.247 721.973 379.447 721.661 379.369 721.349L378.545 717.863C378.467 717.551 378.156 717.351 377.844 717.429C377.532 717.507 377.332 717.819 377.41 718.131L378.234 721.628C378.289 721.884 378.512 722.051 378.757 722.073V722.062Z" fill="#050902"/>
<path d="M551.923 672.658C552.446 674.094 553.693 675.253 555.163 675.665C556.633 676.077 558.626 676.032 559.817 675.074C560.708 677.057 562.969 678.326 565.129 678.037C567.278 677.747 569.382 676.322 569.727 674.172C570.986 675.13 572.767 675.353 574.226 674.74C575.684 674.128 576.753 673.192 576.954 671.622C579.849 672.346 583.211 670.809 584.626 668.181C588.923 660.173 593.21 652.165 597.508 644.158C596.773 643.412 595.638 643.1 594.602 643.311C593.578 643.523 592.654 644.08 591.785 644.648C588.5 646.82 585.527 649.448 582.966 652.433C583.423 650.172 583.779 648.178 584.236 645.918C583.089 644.882 581.14 645.283 579.871 646.163C578.602 647.042 577.789 648.423 577.009 649.771C574.894 653.446 572.778 657.121 570.663 660.808C571.264 657.389 571.865 653.97 572.455 650.539C571.253 649.359 569.293 649.793 567.946 650.807C566.598 651.82 565.808 653.402 565.073 654.916C563.67 657.801 562.256 660.696 560.853 663.581C561.042 660.273 561.22 656.954 561.41 653.647C560.285 653.001 558.659 653.647 557.802 654.604C556.945 655.562 556.566 656.854 556.21 658.102C554.896 662.746 553.237 668.036 551.923 672.68V672.658Z" fill="#8F5D63"/>
<path d="M577.933 670.676C578.212 670.698 578.479 670.52 578.546 670.23L584.648 645.784C584.703 645.55 584.614 645.316 584.425 645.172C583.289 644.325 581.318 644.347 580.027 645.227C578.891 646.007 578.156 647.176 577.51 648.223L570.44 659.561C570.273 659.839 570.351 660.196 570.629 660.363C570.907 660.53 571.264 660.452 571.431 660.173L578.501 648.836C579.091 647.9 579.748 646.831 580.684 646.185C581.441 645.662 582.61 645.573 583.389 645.918L577.388 669.94C577.31 670.252 577.499 670.575 577.811 670.653C577.844 670.653 577.878 670.664 577.911 670.664L577.933 670.676Z" fill="#050902"/>
<path d="M568.826 673.571C569.126 673.593 569.405 673.382 569.449 673.081L572.934 650.617C572.957 650.45 572.912 650.283 572.801 650.15C571.765 648.902 569.794 649.003 568.492 649.816C567.267 650.584 566.532 651.82 565.886 652.912L560.163 662.579C559.996 662.857 560.085 663.214 560.363 663.381C560.642 663.548 560.998 663.459 561.165 663.18L566.888 653.524C567.467 652.544 568.124 651.43 569.104 650.818C569.895 650.328 571.064 650.205 571.721 650.729L568.28 672.903C568.236 673.226 568.447 673.515 568.77 673.571C568.781 673.571 568.803 673.571 568.815 673.571H568.826Z" fill="#050902"/>
<path d="M560.051 674.083C560.374 674.106 560.653 673.861 560.675 673.538L561.989 653.792C561.989 653.68 561.967 653.558 561.911 653.458C561.688 653.079 561.343 652.845 560.909 652.767C559.996 652.6 558.86 653.246 558.181 653.836C557.223 654.66 556.867 655.963 556.611 656.91L553.571 667.88C552.847 667.524 552.179 667.112 551.489 666.688C550.609 666.143 549.696 665.575 548.638 665.129C548.338 665.007 547.993 665.151 547.87 665.441C547.748 665.742 547.881 666.087 548.182 666.209C549.162 666.61 549.986 667.134 550.865 667.68C551.745 668.225 552.658 668.793 553.716 669.239C553.872 669.306 554.05 669.294 554.195 669.228C554.339 669.15 554.462 669.016 554.506 668.86L557.724 657.233C558.014 656.197 558.303 655.295 558.938 654.738C559.517 654.237 560.307 653.881 560.708 653.936C560.742 653.936 560.775 653.948 560.797 653.959L559.495 673.471C559.472 673.794 559.717 674.072 560.029 674.095L560.051 674.083Z" fill="#050902"/>
<path d="M388.288 528.945C388.377 528.945 388.466 528.945 388.544 528.911C388.811 528.811 388.956 528.533 388.9 528.254C388.466 526.06 389.145 523.577 390.704 521.605C392.096 519.857 394.156 518.476 396.672 517.618C398.688 516.928 400.937 516.549 403.999 516.382C404.322 516.36 404.567 516.093 404.556 515.77C404.534 515.447 404.255 515.202 403.943 515.213C400.781 515.38 398.421 515.781 396.305 516.505C393.577 517.44 391.328 518.944 389.802 520.87C388.555 522.441 387.809 524.323 387.642 526.172C387.564 526.06 387.497 525.949 387.42 525.838C386.952 525.125 386.495 524.401 386.028 523.644C385.861 523.365 385.504 523.287 385.226 523.454C384.948 523.621 384.87 523.989 385.037 524.256C385.504 525.025 385.972 525.748 386.44 526.472C386.907 527.185 387.364 527.909 387.832 528.666C387.932 528.833 388.099 528.923 388.277 528.945H388.288Z" fill="black"/>
<path d="M378.055 538.534C378.701 537.342 380.104 536.239 381.462 536.317C379.881 534.324 379.881 531.228 381.462 529.234C383.043 527.241 385.961 526.706 388.266 527.798C388.678 524 391.728 520.893 395.225 519.356C398.721 517.819 402.64 517.574 406.46 517.451C408.297 517.396 410.145 517.362 411.938 517.774C413.719 518.186 415.456 519.111 416.503 520.614C417.55 522.118 417.984 524.612 416.948 526.116C418.285 526.227 419.532 527.096 420.1 528.321C420.667 529.535 420.523 531.05 419.754 532.152C418.975 533.244 417.472 533.99 416.136 533.856C416.169 538.077 416.202 542.309 416.236 546.53L384.057 558.38C382.342 554.371 380.616 550.361 378.901 546.341C378.367 545.093 377.821 543.824 377.587 542.487C377.342 541.151 377.42 539.714 378.077 538.511L378.055 538.534Z" fill="black"/>
<path d="M379.314 571.177C382.119 570.999 385.014 570.876 387.832 570.698C388.466 568.493 388.767 566.187 389.402 563.982C386.796 564.027 384.235 562.479 383.055 560.162C381.863 557.846 382.119 554.861 383.667 552.778C385.215 550.685 388.143 549.816 390.704 550.284C390.983 550.796 391.584 551.331 391.873 551.843C393.265 551.776 394.613 551.097 395.481 550.005C396.35 548.925 396.494 547.366 396.26 545.996C397.263 546.798 398.766 546.898 399.857 546.23C400.948 545.562 401.661 544.214 401.405 542.967C402.975 544.37 405.257 544.927 407.295 544.392C409.333 543.858 411.159 542.142 411.827 540.149C414.243 541.708 416.247 543.902 417.583 546.453C419.098 549.337 419.398 552.578 420.3 555.707C421.091 558.458 420.033 561.61 418.24 563.86C416.459 566.098 413.642 567.479 410.78 567.524C410.246 570.007 409.9 572.257 409.366 574.752C411.203 575.832 413.43 577.024 415.267 578.104C410.724 584.229 402.507 587.571 395.013 586.134C387.52 584.708 381.295 578.583 379.325 571.21L379.314 571.177Z" fill="#8F5D63"/>
<path d="M407.796 555.863C407.751 556.966 406.705 557.935 405.602 557.89C404.5 557.846 403.542 556.788 403.598 555.685L407.796 555.863Z" fill="white"/>
<path d="M405.179 569.039C407.328 569.217 409.488 569.105 411.582 568.716C411.905 568.66 412.105 568.348 412.049 568.036C411.994 567.724 411.682 567.513 411.37 567.568C406.972 568.393 402.273 567.88 398.142 566.143C397.853 566.02 397.496 566.154 397.374 566.455C397.251 566.755 397.385 567.101 397.686 567.223C400.057 568.214 402.596 568.827 405.179 569.039Z" fill="#050902"/>
<path d="M390.025 556.331C390.304 556.353 390.56 556.175 390.638 555.908C390.727 555.596 390.537 555.273 390.226 555.184L386.284 554.104C385.983 554.015 385.649 554.204 385.56 554.516C385.471 554.828 385.66 555.15 385.972 555.24L389.914 556.32C389.914 556.32 389.981 556.331 390.025 556.342V556.331Z" fill="#050902"/>
<path d="M410.424 554.683C410.424 554.683 410.49 554.683 410.524 554.683L412.25 554.549C412.45 554.538 412.628 554.415 412.717 554.237C412.806 554.059 412.806 553.847 412.717 553.68L410.401 549.571C410.245 549.292 409.878 549.192 409.611 549.348C409.332 549.504 409.232 549.86 409.388 550.139L411.259 553.458L410.446 553.524C410.123 553.547 409.878 553.836 409.911 554.159C409.934 554.449 410.168 554.671 410.446 554.694L410.424 554.683Z" fill="#050902"/>
<path d="M400.681 553.068C400.915 553.09 401.149 552.968 401.26 552.745C401.505 552.233 402.051 551.854 402.618 551.821C403.186 551.776 403.788 552.066 404.099 552.533C404.277 552.801 404.645 552.868 404.912 552.689C405.179 552.511 405.246 552.144 405.068 551.876C404.511 551.063 403.52 550.584 402.529 550.651C401.538 550.729 400.625 551.353 400.202 552.233C400.057 552.522 400.18 552.879 400.469 553.012C400.536 553.046 400.603 553.057 400.681 553.068Z" fill="#050902"/>
<path d="M414.187 550.84C414.187 550.84 414.221 550.84 414.232 550.84C414.555 550.84 414.822 550.584 414.822 550.261C414.822 549.838 415.078 549.426 415.446 549.225C415.813 549.025 416.303 549.036 416.659 549.259C416.938 549.426 417.294 549.348 417.461 549.081C417.628 548.802 417.55 548.446 417.283 548.279C416.57 547.822 415.624 547.8 414.889 548.201C414.143 548.602 413.664 549.415 413.653 550.261C413.653 550.573 413.887 550.829 414.187 550.851V550.84Z" fill="#050902"/>
<path d="M412.138 544.871C412.372 544.893 412.606 544.76 412.717 544.537C412.907 544.125 413.274 543.802 413.697 543.668C414.131 543.534 414.61 543.59 415 543.813C415.278 543.98 415.635 543.88 415.802 543.601C415.969 543.323 415.868 542.966 415.59 542.799C414.922 542.41 414.076 542.309 413.341 542.543C412.606 542.777 411.971 543.334 411.648 544.036C411.515 544.325 411.648 544.67 411.938 544.815C412.005 544.849 412.071 544.86 412.138 544.871Z" fill="#050902"/>
<path d="M400.179 548.346C400.413 548.368 400.647 548.246 400.747 548.023C400.903 547.689 401.237 547.433 401.649 547.321C402.061 547.199 402.473 547.254 402.785 547.455C403.052 547.622 403.42 547.544 403.598 547.277C403.776 547.009 403.687 546.642 403.42 546.464C402.829 546.085 402.061 545.996 401.337 546.196C400.603 546.408 400.012 546.887 399.701 547.522C399.556 547.811 399.678 548.157 399.968 548.301C400.035 548.335 400.101 548.357 400.179 548.357V548.346Z" fill="#050902"/>
<path d="M25.6544 704.665C26.8013 687.369 53.4911 632.363 53.4911 632.363L83.5547 645.171L25.6544 704.654V704.665Z" fill="#DE7C51"/>
<path d="M309.11 622.229C300.848 609.443 292.352 596.402 280.293 587.102C272.343 580.977 261.843 577.558 252.312 574.384C232.604 567.835 212.873 560.507 193.154 553.958C190.426 556.163 186.807 557.233 183.322 556.887C179.837 556.542 176.218 554.727 173.98 552.021C158.28 556.397 142.569 560.774 126.869 565.151C109.733 569.929 92.73 578.126 79.4687 589.998C66.2184 601.859 55.351 616.114 44.6283 630.314C59.7715 636.016 75.026 641.908 90.1691 647.61C87.931 684.34 86.0826 721.003 83.8446 757.734L282.643 763.603C286.161 734.201 289.925 704.676 293.444 675.275C306.683 670.285 320.345 665.095 333.584 660.106C325.422 647.476 317.261 634.847 309.099 622.218L309.11 622.229Z" fill="#FBB800"/>
<path d="M185.593 566.944C184.925 566.944 184.246 566.911 183.578 566.844C176.563 566.12 170.016 561.576 166.898 555.25C166.764 554.972 166.876 554.638 167.154 554.504C167.432 554.37 167.767 554.482 167.9 554.76C170.851 560.752 177.053 565.051 183.7 565.741C190.337 566.421 197.285 563.469 201.393 558.202C201.583 557.957 201.928 557.912 202.173 558.101C202.418 558.291 202.462 558.636 202.273 558.881C198.342 563.904 191.973 566.944 185.593 566.944Z" fill="#050902"/>
<path d="M243.583 681.567C243.371 681.567 243.171 681.445 243.07 681.233C242.948 680.955 243.07 680.62 243.349 680.498L324.008 644.436C324.298 644.314 324.621 644.436 324.743 644.715C324.866 644.993 324.743 645.327 324.465 645.45L243.805 681.511C243.727 681.545 243.649 681.556 243.583 681.556V681.567Z" fill="#050902"/>
<path d="M84.5235 630.615C84.4567 630.615 84.3787 630.604 84.3119 630.57L55.1502 618.754C54.8607 618.643 54.7271 618.309 54.8384 618.03C54.9498 617.741 55.2727 617.607 55.5622 617.718L84.7239 629.535C85.0134 629.646 85.147 629.98 85.0356 630.259C84.9465 630.47 84.735 630.604 84.5235 630.604V630.615Z" fill="#050902"/>
<path d="M235.22 691.256C235.22 691.256 235.142 691.256 235.098 691.245C234.797 691.178 234.608 690.878 234.675 690.577L253.737 606.314C254.895 601.224 256.176 596.112 257.445 591.535C258.158 588.973 258.893 586.334 260.407 584.029C262.133 581.411 264.683 579.763 267.255 579.629C267.555 579.596 267.823 579.852 267.845 580.153C267.867 580.465 267.622 580.721 267.321 580.743C265.106 580.866 262.868 582.325 261.342 584.641C259.928 586.802 259.215 589.352 258.525 591.836C257.256 596.391 255.986 601.492 254.84 606.57L235.777 690.844C235.721 691.1 235.487 691.279 235.231 691.279L235.22 691.256Z" fill="#050902"/>
<path d="M105.724 613.041C105.724 613.041 105.702 613.041 105.691 613.041C105.379 613.018 105.156 612.751 105.167 612.45L107.84 572.246C107.862 571.934 108.129 571.711 108.43 571.722C108.742 571.744 108.964 572.012 108.953 572.312L106.281 612.517C106.259 612.807 106.014 613.041 105.724 613.041Z" fill="#050902"/>
<path d="M117.282 606.492C179.235 588.907 236.812 564.572 288.421 534.179C329.709 509.856 367.288 481.623 400.113 450.25C456.02 396.826 479.036 352.222 479.27 351.776L478.279 351.275C478.056 351.72 455.096 396.191 399.312 449.493C347.825 498.685 257.055 565.675 116.981 605.434L117.282 606.503V606.492Z" fill="#29153D"/>
<path d="M85.0797 800.701C84.9461 800.701 84.8013 800.656 84.7011 800.556C84.4784 800.344 84.4672 799.988 84.6788 799.765C135.776 745.193 121.791 652.889 121.646 651.965C121.601 651.664 121.802 651.374 122.102 651.33C122.414 651.285 122.693 651.486 122.737 651.798C122.771 652.032 126.412 675.431 123.639 705.289C121.078 732.876 112.393 771.789 85.4805 800.522C85.3692 800.645 85.2244 800.701 85.0797 800.701Z" fill="#29153D"/>
<path d="M534.041 398.629C533.996 414.455 545.064 429.713 560.129 434.569C566.031 436.484 572.311 436.885 578.335 438.411C584.358 439.915 590.438 442.844 593.589 448.178C599.524 458.224 592.631 471.288 595.437 482.614C598.121 493.439 610.87 500.556 621.47 496.936C621.893 493.072 622.35 489.207 622.773 485.343C618.486 488.172 612.295 485.855 609.378 481.623C606.45 477.413 606.026 471.967 606.16 466.811C606.305 461.665 606.873 456.442 605.57 451.475C602.964 441.507 593.411 434.858 583.735 431.339C574.059 427.82 563.626 426.483 554.206 422.307C544.775 418.142 535.989 410.045 534.052 398.629H534.041Z" fill="#FBB800"/>
<path d="M577.521 291.491C584.536 299.12 595.237 302.193 605.525 303.407C615.814 304.632 626.325 304.343 636.39 306.804C646.456 309.266 656.466 315.202 660.263 324.846C657.413 327.185 655.542 330.682 655.164 334.346C652.302 324.401 642.392 318.053 632.449 315.224C622.506 312.395 611.972 312.195 601.951 309.611C591.93 307.027 581.819 301.269 577.533 291.491H577.521Z" fill="#DD403F"/>
<path d="M575.651 290.957C579.192 302.818 588.578 312.763 600.192 316.95C609.79 320.403 620.49 320.102 629.999 323.789C641.512 328.266 650.476 338.801 653.226 350.841C651.289 352.467 649.362 354.07 647.436 355.696C648.327 346.731 642.192 338.289 634.52 333.567C626.859 328.845 617.807 327.063 609.044 324.98C600.281 322.909 591.273 320.347 584.458 314.467C577.611 308.609 573.558 298.563 575.651 290.957Z" fill="#FBB800"/>
<path d="M429.442 315.959C414.009 327.853 405.18 347.833 406.75 367.234C407.039 370.854 407.663 374.518 407.162 378.115C406.649 381.712 404.723 385.376 401.372 386.78C404.422 388.305 407.496 389.831 410.546 391.357C414.778 387.069 416.225 380.721 416.281 374.696C416.325 368.671 415.167 362.701 414.956 356.676C414.444 341.485 420.467 326.172 429.453 315.959H429.442Z" fill="#DD403F"/>
<path d="M432.248 316.527C421.592 330.214 417.305 348.646 420.801 365.63C422.226 372.546 424.865 379.24 425.545 386.278C426.213 393.317 424.431 401.169 418.752 405.356C421.48 407.172 424.22 408.976 426.948 410.802C431.568 404.075 431.891 395.221 430.444 387.169C428.996 379.117 426.012 371.422 424.531 363.392C421.458 346.853 425.099 329.201 432.259 316.527H432.248Z" fill="#FBB800"/>
<path d="M578.925 289.308L578.758 289.754L536.546 406.771L425.233 317.396L425.433 317.017L440.421 289.598L471.72 232.119L541.624 269.395L578.925 289.308Z" fill="#FBB800"/>
<path d="M541.624 269.395C535.422 284.118 521.57 305.379 492.653 309.366C467.155 312.885 450.23 300.757 440.398 289.597L471.698 232.141L541.624 269.406V269.395Z" fill="#934AF7"/>
<path d="M578.758 289.753L536.546 406.76L425.233 317.385L425.411 316.995C436 316.65 451.132 314.856 451.132 314.856C453.448 326.25 480.105 367.613 514.555 362.902C549.919 358.057 554.696 296.113 554.696 296.113C565.251 294.075 578.424 289.586 578.424 289.586L578.747 289.753H578.758Z" fill="#DD403F"/>
<path d="M422.037 317.719C421.703 317.719 421.414 317.452 421.403 317.106C421.38 316.75 421.659 316.449 422.004 316.438C475.383 313.654 528.384 304.176 579.526 288.261C579.871 288.161 580.227 288.35 580.328 288.684C580.428 289.019 580.239 289.386 579.905 289.486C528.663 305.435 475.562 314.935 422.071 317.73C422.06 317.73 422.048 317.73 422.037 317.73V317.719Z" fill="#29153D"/>
<path d="M535.756 405.78C535.533 405.78 535.31 405.657 535.199 405.446C505.202 350.64 483.233 291.97 469.905 231.072C469.827 230.727 470.05 230.382 470.395 230.315C470.74 230.237 471.085 230.46 471.152 230.805C484.458 291.591 506.382 350.139 536.323 404.844C536.49 405.156 536.379 405.546 536.067 405.713C535.967 405.769 535.867 405.791 535.756 405.791V405.78Z" fill="#29153D"/>
<path d="M520.412 375.943C520.334 375.943 520.256 375.921 520.189 375.888C507.128 369.484 490.504 360.273 478.412 352.088L478.111 351.887L478.178 351.52C481.696 331.562 484.09 310.725 485.293 289.586C485.304 289.274 485.56 289.052 485.861 289.063C486.15 289.085 486.384 289.341 486.362 289.653C485.159 310.702 482.788 331.462 479.291 351.353C491.25 359.427 507.729 368.559 520.634 374.885C520.901 375.019 521.013 375.342 520.89 375.62C520.801 375.821 520.612 375.943 520.412 375.943Z" fill="#29153D"/>
<path d="M43.0021 676.589C55.9629 661.654 69.8924 646.808 82.2518 631.372C90.781 620.714 99.3213 610.045 107.85 599.387C114.142 602.36 121.145 605.713 127.425 608.675C129.173 609.499 129.418 611.972 128.717 613.787C130.498 614.366 131.445 615.625 132.035 617.407C132.625 619.188 132.313 621.238 131.233 622.775C133.059 623.409 134.897 625.047 135.242 626.951C135.587 628.855 134.83 630.927 133.327 632.152C134.852 632.497 135.309 635.348 134.963 636.874C134.618 638.4 133.516 639.625 132.447 640.772C128.071 645.505 123.695 650.239 119.319 654.972C119.631 660.14 117.237 665.263 112.727 667.791C109.443 684.764 103.107 700.901 95.0345 716.181C89.8791 725.926 81.4613 734.803 70.9613 738.155C60.4614 741.507 48.3913 739.725 39.4613 733.243C30.5425 726.773 25.0754 715.691 25.6321 704.688C26.1888 693.673 35.7535 684.942 42.9799 676.611L43.0021 676.589Z" fill="#DE7C51"/>
<path d="M39.9848 679.73C39.8512 679.73 39.7287 679.685 39.6174 679.596C39.3835 679.396 39.3613 679.039 39.5617 678.817L73.1327 640.516C73.3331 640.282 73.6894 640.26 73.9233 640.461C74.1571 640.661 74.1793 641.017 73.9789 641.251L40.4079 679.552C40.2966 679.674 40.1407 679.741 39.9848 679.741V679.73Z" fill="#050902"/>
<path d="M109.821 617.084C109.543 617.084 109.309 616.883 109.265 616.594C109.231 616.293 109.443 616.015 109.743 615.97L128.784 613.576C129.095 613.531 129.363 613.754 129.407 614.054C129.441 614.355 129.229 614.634 128.928 614.678L109.888 617.073C109.888 617.073 109.844 617.073 109.821 617.073V617.084Z" fill="#050902"/>
<path d="M112.806 631.406C112.594 631.406 112.382 631.284 112.293 631.072C112.171 630.794 112.293 630.46 112.572 630.337L130.966 622.185C131.245 622.062 131.579 622.185 131.701 622.463C131.824 622.741 131.701 623.076 131.423 623.198L113.028 631.35C112.95 631.384 112.883 631.395 112.806 631.395V631.406Z" fill="#050902"/>
<path d="M120.489 640.806C120.299 640.806 120.121 640.717 120.01 640.539C119.843 640.282 119.932 639.937 120.188 639.77L133.26 631.673C133.527 631.506 133.861 631.596 134.028 631.852C134.184 632.108 134.106 632.453 133.85 632.62L120.778 640.717C120.689 640.772 120.589 640.806 120.489 640.806Z" fill="#050902"/>
<path d="M107.695 671.488C107.494 671.488 107.294 671.377 107.194 671.188C107.06 670.909 107.16 670.575 107.439 670.442L112.728 667.769C113.006 667.635 113.34 667.735 113.474 668.014C113.607 668.292 113.507 668.626 113.229 668.76L107.94 671.433C107.862 671.477 107.773 671.488 107.684 671.488H107.695Z" fill="#050902"/>
<path d="M116.235 616.026C116.001 616.026 115.789 615.881 115.711 615.658L114.431 612.016C114.331 611.727 114.476 611.404 114.776 611.304C115.066 611.203 115.389 611.348 115.489 611.649L116.769 615.291C116.869 615.58 116.725 615.903 116.424 616.003C116.357 616.026 116.302 616.037 116.235 616.037V616.026Z" fill="#050902"/>
<path d="M199.344 513.754C197.54 507.807 195.87 501.537 193.776 495.69C192.785 492.905 189.779 491.001 186.839 491.268C183.9 491.547 181.216 494.175 180.76 497.093C180.225 496.046 178.856 495.511 177.754 495.912C176.651 496.313 175.749 497.884 176.005 499.031C174.424 497.104 171.485 496.447 169.236 497.527C166.986 498.608 165.661 501.336 166.173 503.775C164.693 502.216 162.009 502.272 160.283 503.541C158.557 504.822 157.711 507.027 157.633 509.177C157.555 511.326 158.134 513.431 158.78 515.48C158.914 515.881 159.047 516.293 159.181 516.694C158.134 517.028 157.388 518.142 157.433 519.267C157.477 520.481 158.335 521.583 159.459 522.062C160.027 522.307 160.662 522.396 161.274 522.352C163.167 527.018 165.439 531.529 168.066 535.828C173.534 535.46 179.234 535.248 184.69 534.881L198.82 522.018C200.39 519.59 200.168 516.527 199.321 513.754H199.344Z" fill="#050902"/>
<path d="M180.638 497.884C180.371 497.884 180.137 497.683 180.092 497.416C179.769 495.4 180.326 493.228 181.562 491.602C182.809 489.976 184.758 488.885 186.784 488.662C187.096 488.629 187.363 488.851 187.397 489.152C187.43 489.453 187.207 489.731 186.907 489.765C185.17 489.954 183.5 490.889 182.442 492.27C181.384 493.651 180.916 495.511 181.183 497.238C181.228 497.538 181.028 497.828 180.716 497.872C180.682 497.872 180.66 497.872 180.627 497.872L180.638 497.884Z" fill="#050902"/>
<path d="M194.601 555.552C194.924 552.645 195.024 549.56 195.347 546.664C199.077 545.506 202.261 542.677 203.853 539.113C205.446 535.549 205.702 531.373 204.076 527.809C201.838 522.92 199.099 518.343 195.903 514.01C195.592 515.347 194.589 516.505 193.309 516.995C192.028 517.485 190.18 517.596 189.067 516.795C188.922 517.953 188.076 518.989 186.973 519.378C185.871 519.757 184.524 519.79 183.689 518.977C182.82 520.904 180.07 521.929 178.366 520.681C178.288 523.454 178.21 526.228 178.144 529.001C178.121 529.736 178.088 530.527 177.654 531.128C177.186 531.774 176.273 532.052 175.516 531.785C174.77 531.518 173.723 530.727 173.779 529.925C170.973 529.792 168.167 531.395 166.853 533.868C165.539 536.34 165.773 539.57 167.443 541.82C169.113 544.069 172.131 545.239 174.881 544.704C174.402 547.6 173.768 550.662 173.289 553.558C175.527 557.066 179.346 559.383 183.488 559.761C187.63 560.14 191.772 558.603 194.612 555.563L194.601 555.552Z" fill="#DE7C51"/>
<path d="M189.189 531.718C188.989 533.021 190.08 534.38 191.405 534.458C192.719 534.536 193.966 533.322 193.921 531.997L189.189 531.718Z" fill="white"/>
<path d="M199.801 523.465C199.801 522.797 199.255 522.251 198.587 522.251C197.919 522.251 197.373 522.797 197.373 523.465C197.373 524.134 197.919 524.679 198.587 524.679C199.255 524.679 199.801 524.134 199.801 523.465Z" fill="#050902"/>
<path d="M187.53 528.343C187.53 527.675 186.984 527.129 186.316 527.129C185.648 527.129 185.102 527.675 185.102 528.343C185.102 529.012 185.648 529.557 186.316 529.557C186.984 529.557 187.53 529.012 187.53 528.343Z" fill="#050902"/>
<path d="M174.436 535.761H169.937C169.626 535.761 169.381 535.516 169.381 535.204C169.381 534.892 169.626 534.647 169.937 534.647H174.436C174.748 534.647 174.993 534.892 174.993 535.204C174.993 535.516 174.748 535.761 174.436 535.761Z" fill="#050902"/>
<path d="M193.91 529.557C193.665 529.557 193.431 529.39 193.376 529.134C193.298 528.833 193.487 528.533 193.777 528.455C194.077 528.377 194.467 528.321 194.857 528.254C194.923 528.254 194.99 528.232 195.057 528.221L191.884 523.588C191.706 523.332 191.772 522.986 192.028 522.819C192.285 522.641 192.63 522.708 192.808 522.964L196.46 528.299C196.56 528.444 196.582 528.644 196.527 528.811C196.46 528.978 196.315 529.112 196.137 529.156C195.836 529.234 195.436 529.301 195.046 529.357C194.69 529.412 194.322 529.468 194.055 529.546C194.01 529.546 193.966 529.557 193.921 529.557H193.91Z" fill="#050902"/>
<path d="M181.774 525.905C181.774 525.905 181.74 525.905 181.729 525.905C181.417 525.882 181.195 525.615 181.217 525.303C181.306 524.123 181.985 523.02 183.065 522.285C184.146 521.55 185.426 521.327 186.562 521.684C186.851 521.773 187.018 522.085 186.929 522.374C186.84 522.664 186.528 522.842 186.239 522.742C185.437 522.497 184.491 522.664 183.7 523.209C182.91 523.744 182.397 524.568 182.331 525.403C182.308 525.693 182.063 525.916 181.774 525.916V525.905Z" fill="#050902"/>
<path d="M194.545 519.501H194.534C194.222 519.501 193.989 519.233 193.989 518.933C194.011 518.042 194.568 517.195 195.447 516.716C196.327 516.237 197.34 516.226 198.097 516.694C198.364 516.85 198.442 517.195 198.287 517.463C198.131 517.719 197.785 517.808 197.518 517.641C197.095 517.385 196.505 517.407 195.982 517.685C195.458 517.975 195.124 518.454 195.113 518.955C195.113 519.256 194.857 519.501 194.556 519.501H194.545Z" fill="#050902"/>
<path d="M174.447 545.506C174.18 545.506 173.946 545.316 173.901 545.038C173.846 544.737 174.057 544.448 174.358 544.392L176.563 544.013C176.863 543.958 177.153 544.169 177.208 544.47C177.264 544.771 177.052 545.06 176.752 545.116L174.547 545.495C174.547 545.495 174.48 545.495 174.447 545.495V545.506Z" fill="#050902"/>
<path d="M190.381 548.134C187.831 548.134 185.281 547.744 182.832 546.976C182.542 546.887 182.375 546.575 182.464 546.274C182.553 545.985 182.865 545.818 183.166 545.907C187.352 547.221 191.817 547.366 196.071 546.33C196.371 546.252 196.672 546.441 196.739 546.742C196.817 547.043 196.627 547.343 196.327 547.41C194.367 547.889 192.363 548.123 190.37 548.123L190.381 548.134Z" fill="#050902"/>
<path d="M242.124 691.023C242.057 693.874 241.5 696.725 241.433 699.576C226.413 721.661 210.78 743.423 195.759 765.508L292.363 766.889C301.215 749.983 307.896 730.849 308.998 711.794C309.856 696.959 310.568 682.225 311.426 667.39C288.332 675.264 265.228 683.138 242.135 691.023H242.124Z" fill="#DE7C51"/>
<path d="M241.589 701.469C241.333 701.469 241.099 701.291 241.043 701.024C240.976 700.723 241.177 700.422 241.477 700.367L247.479 699.131C247.791 699.064 248.069 699.264 248.136 699.565C248.203 699.866 248.002 700.155 247.702 700.222L241.7 701.458C241.7 701.458 241.622 701.458 241.589 701.458V701.469Z" fill="#050902"/>
<path d="M157.277 586.312C157.032 586.312 156.798 586.145 156.743 585.889C156.665 585.588 156.843 585.287 157.144 585.209L165.294 583.138C165.584 583.06 165.895 583.238 165.973 583.539C166.051 583.84 165.873 584.14 165.573 584.218L157.422 586.29C157.422 586.29 157.333 586.312 157.288 586.312H157.277Z" fill="white"/>
<path d="M158.602 568.081C158.446 568.081 158.301 568.014 158.19 567.891L154.772 564.038C154.571 563.804 154.594 563.459 154.816 563.247C155.05 563.047 155.395 563.058 155.607 563.292L159.025 567.145C159.226 567.379 159.203 567.724 158.981 567.936C158.869 568.025 158.747 568.081 158.613 568.081H158.602Z" fill="white"/>
<path d="M195.836 581.779C195.58 581.779 195.346 581.601 195.291 581.345C195.224 581.044 195.413 580.744 195.714 580.677L203.419 578.962C203.72 578.895 204.02 579.084 204.087 579.385C204.154 579.686 203.965 579.986 203.664 580.053L195.959 581.768C195.959 581.768 195.881 581.779 195.836 581.779Z" fill="white"/>
<path d="M214.676 615.569C214.554 615.569 214.42 615.525 214.32 615.436L206.615 609.021C206.381 608.82 206.348 608.475 206.548 608.241C206.748 608.007 207.094 607.974 207.327 608.163L215.033 614.578C215.266 614.778 215.3 615.124 215.099 615.358C214.988 615.491 214.832 615.558 214.676 615.558V615.569Z" fill="white"/>
<path d="M176.964 627.129C176.852 627.129 176.741 627.096 176.652 627.029C176.396 626.851 176.34 626.506 176.507 626.249L181.228 619.411C181.406 619.155 181.752 619.088 182.008 619.267C182.264 619.445 182.319 619.79 182.152 620.046L177.431 626.884C177.32 627.04 177.153 627.129 176.975 627.129H176.964Z" fill="white"/>
<path d="M156.464 637.309C156.464 637.309 156.442 637.309 156.431 637.309L149.149 636.919C148.837 636.908 148.603 636.641 148.625 636.329C148.648 636.017 148.904 635.761 149.216 635.805L156.498 636.195C156.809 636.206 157.043 636.474 157.021 636.785C157.01 637.086 156.754 637.309 156.464 637.309Z" fill="white"/>
<path d="M147.813 605.446C147.701 605.446 147.59 605.412 147.49 605.334L142.78 601.915C142.535 601.737 142.479 601.392 142.657 601.136C142.835 600.891 143.181 600.835 143.437 601.013L148.147 604.432C148.392 604.61 148.447 604.956 148.269 605.212C148.158 605.357 147.991 605.446 147.813 605.446Z" fill="white"/>
<path d="M93.5425 596.413C93.5425 596.413 93.4756 596.413 93.4422 596.413L86.1602 595.155C85.8595 595.099 85.6591 594.809 85.7037 594.509C85.7594 594.208 86.0377 594.008 86.3494 594.052L93.6316 595.311C93.9322 595.366 94.1326 595.656 94.0881 595.957C94.0435 596.224 93.8097 596.424 93.5425 596.424V596.413Z" fill="white"/>
<path d="M85.2693 614.333C84.9909 614.333 84.7571 614.121 84.7126 613.843L83.922 607.417C83.8886 607.116 84.1001 606.838 84.4008 606.793C84.7125 606.749 84.9798 606.971 85.0243 607.283L85.8149 613.709C85.8483 614.01 85.6367 614.289 85.325 614.333C85.3027 614.333 85.2804 614.333 85.2582 614.333H85.2693Z" fill="white"/>
<path d="M67.8771 613.03C67.8771 613.03 67.788 613.03 67.7435 613.019C67.4428 612.941 67.2647 612.64 67.3426 612.339L68.2 608.909C68.2779 608.608 68.5785 608.43 68.8792 608.508C69.1798 608.586 69.358 608.887 69.2801 609.187L68.4227 612.618C68.3559 612.874 68.1332 613.041 67.8882 613.041L67.8771 613.03Z" fill="white"/>
<path d="M178.711 652.834C178.645 652.834 178.578 652.834 178.511 652.8L171.663 650.228C171.374 650.116 171.229 649.804 171.34 649.515C171.452 649.225 171.775 649.08 172.053 649.192L178.901 651.765C179.19 651.876 179.335 652.188 179.224 652.477C179.135 652.7 178.923 652.834 178.7 652.834H178.711Z" fill="white"/>
<path d="M227.993 656.71C227.926 656.71 227.871 656.71 227.804 656.676C227.514 656.576 227.359 656.253 227.459 655.964L230.476 647.41C230.576 647.121 230.899 646.965 231.189 647.076C231.478 647.176 231.634 647.499 231.534 647.789L228.517 656.342C228.439 656.576 228.216 656.71 227.993 656.71Z" fill="white"/>
<path d="M200.535 676.867C200.235 676.867 199.979 676.622 199.979 676.311C199.979 675.999 200.224 675.754 200.535 675.754L208.63 675.676L208.675 676.233L208.641 676.789L200.546 676.867H200.535Z" fill="white"/>
<path d="M171.875 696.491C171.674 696.491 171.474 696.38 171.374 696.18L167.521 688.473C167.388 688.194 167.499 687.86 167.766 687.727C168.045 687.593 168.379 687.704 168.512 687.972L172.365 695.678C172.498 695.957 172.387 696.291 172.12 696.425C172.042 696.469 171.953 696.48 171.875 696.48V696.491Z" fill="white"/>
<path d="M138.916 675.52C138.716 675.52 138.526 675.409 138.426 675.219C138.281 674.952 138.381 674.607 138.66 674.462L145.931 670.608C146.209 670.464 146.543 670.564 146.688 670.842C146.833 671.11 146.732 671.455 146.454 671.6L139.183 675.453C139.105 675.498 139.016 675.52 138.927 675.52H138.916Z" fill="white"/>
<path d="M116.235 702.483C116.146 702.483 116.068 702.461 115.99 702.427L110.857 699.855C110.579 699.721 110.467 699.387 110.612 699.108C110.746 698.83 111.08 698.719 111.358 698.863L116.491 701.436C116.77 701.57 116.881 701.904 116.736 702.182C116.636 702.372 116.447 702.494 116.235 702.494V702.483Z" fill="white"/>
<path d="M109.855 731.607C109.766 731.607 109.688 731.584 109.61 731.551C109.331 731.417 109.22 731.083 109.365 730.805L112.36 724.813C112.494 724.535 112.828 724.423 113.106 724.568C113.384 724.702 113.496 725.036 113.351 725.314L110.356 731.306C110.256 731.495 110.066 731.618 109.855 731.618V731.607Z" fill="white"/>
<path d="M98.9763 747.221C98.8761 747.221 98.7647 747.187 98.6757 747.132L92.6852 743.267C92.4291 743.1 92.3512 742.755 92.5182 742.498C92.6852 742.242 93.0304 742.164 93.2865 742.331L99.277 746.196C99.5331 746.363 99.611 746.708 99.444 746.964C99.3326 747.132 99.1545 747.221 98.9763 747.221Z" fill="white"/>
<path d="M130.788 730.738C130.499 730.738 130.254 730.504 130.231 730.214C130.209 729.902 130.443 729.646 130.755 729.624L138.026 729.201C138.326 729.167 138.593 729.412 138.616 729.724C138.638 730.036 138.404 730.292 138.092 730.315L130.821 730.738C130.821 730.738 130.799 730.738 130.788 730.738Z" fill="white"/>
<path d="M171.352 717.607C171.251 717.607 171.151 717.585 171.051 717.518L164.214 713.219C163.958 713.052 163.88 712.718 164.036 712.451C164.203 712.195 164.548 712.106 164.804 712.273L171.641 716.572C171.897 716.739 171.975 717.084 171.819 717.34C171.719 717.507 171.53 717.596 171.352 717.596V717.607Z" fill="white"/>
<path d="M184.279 741.006C184.212 741.006 184.134 740.995 184.067 740.962C183.778 740.85 183.644 740.516 183.767 740.238L186.762 732.965C186.884 732.676 187.207 732.542 187.485 732.665C187.775 732.776 187.909 733.11 187.786 733.388L184.791 740.661C184.702 740.873 184.49 741.006 184.279 741.006Z" fill="white"/>
<path d="M214.665 727.753C214.665 727.753 214.61 727.753 214.587 727.753L206.86 726.672C206.559 726.628 206.348 726.349 206.381 726.049C206.426 725.748 206.704 725.536 207.005 725.57L214.732 726.65C215.033 726.695 215.244 726.973 215.211 727.274C215.177 727.552 214.933 727.753 214.665 727.753Z" fill="white"/>
<path d="M206.114 704.209C205.947 704.209 205.791 704.143 205.68 703.998C205.49 703.753 205.524 703.408 205.769 703.218L212.193 698.084C212.438 697.895 212.783 697.928 212.973 698.173C213.162 698.418 213.129 698.763 212.884 698.953L206.459 704.087C206.359 704.165 206.236 704.209 206.114 704.209Z" fill="white"/>
<path d="M263.758 659.004C263.658 659.004 263.557 658.981 263.457 658.915L257.612 655.25C257.355 655.083 257.278 654.738 257.433 654.482C257.6 654.226 257.946 654.148 258.202 654.304L264.047 657.968C264.303 658.135 264.381 658.48 264.226 658.736C264.125 658.903 263.936 658.992 263.758 658.992V659.004Z" fill="white"/>
<path d="M281.44 646.965C281.184 646.965 280.95 646.775 280.894 646.508C280.838 646.207 281.028 645.918 281.339 645.851L288.176 644.526C288.477 644.47 288.766 644.659 288.833 644.971C288.889 645.272 288.699 645.562 288.388 645.628L281.551 646.954C281.551 646.954 281.484 646.954 281.44 646.954V646.965Z" fill="white"/>
<path d="M300.491 627.865C300.391 627.865 300.28 627.831 300.191 627.775L292.118 622.552C291.862 622.385 291.784 622.04 291.951 621.784C292.118 621.527 292.463 621.45 292.719 621.617L300.792 626.84C301.048 627.007 301.126 627.352 300.959 627.608C300.848 627.775 300.67 627.865 300.491 627.865Z" fill="white"/>
<path d="M279.19 613.743C279.012 613.743 278.845 613.665 278.734 613.509C278.556 613.253 278.623 612.907 278.868 612.729L284.891 608.497C285.147 608.319 285.493 608.386 285.671 608.631C285.849 608.876 285.782 609.232 285.537 609.41L279.513 613.642C279.413 613.709 279.302 613.743 279.19 613.743Z" fill="white"/>
<path d="M266.019 634.424C265.874 634.424 265.729 634.369 265.629 634.257L261.353 629.981C261.13 629.758 261.13 629.413 261.353 629.19C261.576 628.967 261.921 628.967 262.144 629.19L266.419 633.467C266.642 633.689 266.642 634.035 266.419 634.257C266.308 634.369 266.163 634.424 266.03 634.424H266.019Z" fill="white"/>
<path d="M270.261 597.115C270.038 597.115 269.837 596.982 269.748 596.77C269.637 596.48 269.771 596.157 270.049 596.046L276.451 593.429C276.73 593.318 277.064 593.451 277.175 593.73C277.286 594.019 277.153 594.342 276.875 594.454L270.472 597.071C270.405 597.104 270.327 597.115 270.261 597.115Z" fill="white"/>
<path d="M219.798 575.788C219.743 575.788 219.676 575.788 219.62 575.754C219.331 575.654 219.175 575.342 219.264 575.053L220.979 569.919C221.079 569.629 221.391 569.473 221.68 569.562C221.97 569.662 222.126 569.974 222.037 570.264L220.322 575.398C220.244 575.632 220.021 575.777 219.798 575.777V575.788Z" fill="white"/>
</g>
</g>
<defs>
<clipPath id="clip0_941_44111">
<rect width="893" height="757" fill="white"/>
</clipPath>
<clipPath id="clip1_941_44111">
<rect width="854.251" height="632.987" fill="white" transform="matrix(-1 0 0 1 879.861 196.013)"/>
</clipPath>
</defs>
</svg>
