<svg width="526" height="167" viewBox="0 0 526 167" fill="none" xmlns="http://www.w3.org/2000/svg">
<path fill-rule="evenodd" clip-rule="evenodd" d="M239.035 29.3959C247.064 12.2883 264.327 0.442871 284.314 0.442871C306.604 0.442871 325.51 15.1747 331.991 35.5103C334.999 34.8893 338.14 34.5621 341.37 34.5621C359.48 34.5621 374.829 44.8758 379.996 59.0783C383.605 58.103 387.45 57.5778 391.435 57.5778C412.284 57.5778 429.209 71.9678 429.209 89.6964C429.209 95.2107 427.569 100.402 424.687 104.939C451.01 107.498 519.044 111.347 525.071 113.183C532.413 115.423 462.124 117.259 439.212 118.95C434.398 119.304 429.209 122.092 429.209 123.926C429.209 142.818 406.237 158.156 377.945 158.156C366.596 158.156 356.105 155.688 347.607 151.512C340.725 160.571 328.648 166.584 314.916 166.584C302.258 166.584 291.007 161.476 283.933 153.584C276.178 159.023 265.301 162.403 253.268 162.403C239.283 162.403 226.859 157.833 219.081 150.781C210.616 155.309 198.372 158.158 184.764 158.158C159.415 158.158 138.803 148.278 138.522 136.057C129.853 135.026 118.364 133.794 102.897 133.575C69.2734 133.096 5.31393 132.398 1.05728 130.009C-3.18402 127.629 37.1061 121.715 91.8022 118.468C90.2364 116.507 89.3483 114.275 89.3483 111.904C89.3483 104.134 98.8813 97.8282 110.625 97.8282C115.377 97.8282 119.765 98.8598 123.307 100.604C123.994 87.5478 138.985 77.0986 157.352 77.0986C159.365 77.0986 161.339 77.2216 163.257 77.4654C165.336 70.682 170.012 64.803 176.31 60.6684C178.1 41.1747 197.122 25.8135 220.289 25.8135C226.989 25.8135 233.344 27.0972 239.035 29.3959Z" fill="#EFF2FF"/>
<path d="M239.035 29.3959C247.064 12.2883 264.327 0.442871 284.314 0.442871C306.604 0.442871 325.51 15.1747 331.991 35.5103C334.999 34.8893 338.14 34.5621 341.37 34.5621C359.48 34.5621 374.829 44.8758 379.996 59.0783C383.605 58.103 387.45 57.5778 391.435 57.5778C412.284 57.5778 429.209 71.9678 429.209 89.6964C429.209 95.2107 427.569 100.402 424.687 104.939C451.01 107.498 519.044 111.347 525.071 113.183C532.413 115.423 462.124 117.259 439.212 118.95C434.398 119.304 429.209 122.092 429.209 123.926C429.209 142.818 406.237 158.156 377.945 158.156C366.596 158.156 356.105 155.688 347.607 151.512C340.725 160.571 328.648 166.584 314.916 166.584C302.258 166.584 291.007 161.476 283.933 153.584C276.178 159.023 265.301 162.403 253.268 162.403C239.283 162.403 226.859 157.833 219.081 150.781C210.616 155.309 198.372 158.158 184.764 158.158C159.415 158.158 138.803 148.278 138.522 136.057C129.853 135.026 118.364 133.794 102.897 133.575C69.2734 133.096 5.31393 132.398 1.05728 130.009C-3.18402 127.629 37.1061 121.715 91.8022 118.468C90.2364 116.507 89.3483 114.275 89.3483 111.904C89.3483 104.134 98.8813 97.8282 110.625 97.8282C115.377 97.8282 119.765 98.8598 123.307 100.604C123.994 87.5478 138.985 77.0986 157.352 77.0986C159.365 77.0986 161.339 77.2216 163.257 77.4654C165.336 70.682 170.012 64.803 176.31 60.6684C178.1 41.1747 197.122 25.8135 220.289 25.8135C226.989 25.8135 233.344 27.0972 239.035 29.3959Z" fill="#EFF2FF"/>
<mask id="mask0_331_25677" style="mask-type:luminance" maskUnits="userSpaceOnUse" x="0" y="0" width="526" height="167">
<path d="M239.035 29.3959C247.064 12.2883 264.327 0.442871 284.314 0.442871C306.604 0.442871 325.51 15.1747 331.991 35.5103C334.999 34.8893 338.14 34.5621 341.37 34.5621C359.48 34.5621 374.829 44.8758 379.996 59.0783C383.605 58.103 387.45 57.5778 391.435 57.5778C412.284 57.5778 429.209 71.9678 429.209 89.6964C429.209 95.2107 427.569 100.402 424.687 104.939C451.01 107.498 519.044 111.347 525.071 113.183C532.413 115.423 462.124 117.259 439.212 118.95C434.398 119.304 429.209 122.092 429.209 123.926C429.209 142.818 406.237 158.156 377.945 158.156C366.596 158.156 356.105 155.688 347.607 151.512C340.725 160.571 328.648 166.584 314.916 166.584C302.258 166.584 291.007 161.476 283.933 153.584C276.178 159.023 265.301 162.403 253.268 162.403C239.283 162.403 226.859 157.833 219.081 150.781C210.616 155.309 198.372 158.158 184.764 158.158C159.415 158.158 138.803 148.278 138.522 136.057C129.853 135.026 118.364 133.794 102.897 133.575C69.2734 133.096 5.31393 132.398 1.05728 130.009C-3.18402 127.629 37.1061 121.715 91.8022 118.468C90.2364 116.507 89.3483 114.275 89.3483 111.904C89.3483 104.134 98.8813 97.8282 110.625 97.8282C115.377 97.8282 119.765 98.8598 123.307 100.604C123.994 87.5478 138.985 77.0986 157.352 77.0986C159.365 77.0986 161.339 77.2216 163.257 77.4654C165.336 70.682 170.012 64.803 176.31 60.6684C178.1 41.1747 197.122 25.8135 220.289 25.8135C226.989 25.8135 233.344 27.0972 239.035 29.3959Z" fill="white"/>
</mask>
<g mask="url(#mask0_331_25677)">
<path fill-rule="evenodd" clip-rule="evenodd" d="M234.307 13.67C242.333 -3.43751 259.599 -15.283 279.586 -15.283C301.874 -15.283 320.78 -0.551164 327.26 19.7845C330.269 19.1635 333.412 18.8363 336.642 18.8363C354.752 18.8363 370.101 29.15 375.268 43.3525C378.877 42.3772 382.722 41.852 386.707 41.852C407.556 41.852 430.098 52.5012 430.098 70.2256C430.098 75.7399 436.593 82.2816 433.71 86.8185C460.03 89.3776 529.422 111.264 535.45 113.102C542.793 115.342 458.17 109.999 435.26 111.689C430.446 112.043 425.258 114.832 425.258 116.666C425.258 135.557 401.514 142.43 373.219 142.43C361.871 142.43 351.379 139.963 342.881 135.786C336 144.845 323.923 150.858 310.188 150.858C297.53 150.858 286.279 145.75 279.205 137.858C271.448 143.295 260.573 146.679 248.54 146.679C234.555 146.679 222.131 142.109 214.353 135.055C205.888 139.583 193.644 142.432 180.036 142.432C154.687 142.432 134.075 132.552 133.794 120.331C129.386 128.317 122.108 127.89 106.643 127.627C95.4143 127.436 -5.16201 130.189 -9.42086 127.798C-13.6622 125.418 32.3781 105.989 87.072 102.742C85.5062 100.783 84.618 98.5493 84.618 96.1777C84.618 88.4085 94.1511 82.1024 105.895 82.1024C110.645 82.1024 115.035 83.1339 118.577 84.8783C119.263 71.822 134.255 61.3707 152.621 61.3707C154.635 61.3707 156.608 61.4958 158.527 61.7396C160.606 54.9562 165.282 49.0772 171.58 44.9426C173.372 25.4488 192.392 10.0877 215.559 10.0877C222.263 10.0856 228.614 11.3693 234.307 13.67Z" fill="#EFF2FF"/>
</g>
<path fill-rule="evenodd" clip-rule="evenodd" d="M203.497 110.493C201.076 121.129 207.495 132.17 218.833 136.011C229.785 139.721 241.658 135.465 247.143 126.433C246.937 127.333 246.669 128.23 246.336 129.117C242.059 140.519 228.605 146.392 216.311 142.226C204.015 138.062 197.504 125.425 201.78 114.025C202.247 112.779 202.824 111.601 203.497 110.493Z" fill="#EFF2FF"/>
<path fill-rule="evenodd" clip-rule="evenodd" d="M128 103.557C125.976 112.787 132.009 122.507 142.4 126.027C152.437 129.426 163.179 125.902 168.021 118.112C167.85 118.893 167.622 119.671 167.332 120.44C163.63 130.307 151.477 135.221 140.207 131.404C128.939 127.588 122.794 116.476 126.496 106.608C126.902 105.531 127.408 104.514 128 103.557Z" fill="#EFF2FF"/>
<path fill-rule="evenodd" clip-rule="evenodd" d="M247.143 61.8251C239.73 53.5308 226.603 51.6573 216.5 57.8718C206.738 63.8758 203.072 75.4211 207.28 85.0513C206.655 84.349 206.07 83.6029 205.528 82.811C198.607 72.6515 201.883 58.9304 212.844 52.1887C223.8 45.449 238.316 48.2229 245.235 58.3824C245.991 59.4931 246.625 60.6435 247.143 61.8251Z" fill="#EFF2FF"/>
<path fill-rule="evenodd" clip-rule="evenodd" d="M276.215 116.163C273.796 126.798 280.213 137.839 291.551 141.68C302.503 145.389 314.374 141.134 319.859 132.102C319.655 133.002 319.387 133.898 319.052 134.786C314.775 146.188 301.323 152.06 289.027 147.894C276.731 143.73 270.22 131.093 274.496 119.694C274.965 118.449 275.542 117.27 276.215 116.163Z" fill="#EFF2FF"/>
<path fill-rule="evenodd" clip-rule="evenodd" d="M301.132 76.14C307.876 67.3455 306.709 54.779 297.979 46.9056C289.544 39.3011 276.875 38.6259 268.011 44.7737C268.581 44.0297 269.209 43.3128 269.893 42.6293C278.658 33.8494 293.463 33.6556 302.931 42.1916C312.4 50.7298 312.968 64.7905 304.203 73.5704C303.246 74.529 302.218 75.3856 301.132 76.14Z" fill="#EFF2FF"/>
<path fill-rule="evenodd" clip-rule="evenodd" d="M367.447 110.12C375.042 99.833 373.408 85.3284 363.136 76.388C353.21 67.7457 338.548 67.1955 328.442 74.4624C329.083 73.5934 329.791 72.7535 330.567 71.9491C340.502 61.6437 357.614 61.1519 368.754 70.8508C379.895 80.5497 380.875 96.7904 370.941 107.096C369.858 108.221 368.687 109.23 367.447 110.12Z" fill="#EFF2FF"/>
</svg>
