<svg width="385" height="149" viewBox="0 0 385 149" fill="none" xmlns="http://www.w3.org/2000/svg">
<path fill-rule="evenodd" clip-rule="evenodd" d="M276.491 13.7148C283.103 5.44341 294.316 0 307.02 0C324.968 0 339.929 10.8597 343.168 25.2081C359.848 27.9756 372.412 39.9732 372.412 54.334C372.412 55.9533 372.252 57.5434 371.945 59.0918C379.682 65.2271 384.554 74.1446 384.554 84.0623C384.554 98.4732 374.267 110.773 359.85 115.493C359.907 116.175 359.933 116.862 359.933 117.556C359.933 134.714 343.159 148.648 322.494 148.648C313.262 148.648 304.805 145.865 298.275 141.26C294.114 142.519 289.669 143.2 285.055 143.2C277.7 143.2 270.781 141.47 264.759 138.43C256.53 144.761 245.405 148.65 233.161 148.65C218.438 148.65 205.33 143.027 196.944 134.301C189.935 139.718 179.051 143.2 166.838 143.2C157.496 143.2 148.93 141.162 142.283 137.779C136.886 141.135 129.55 143.2 121.471 143.2C105.372 143.2 92.2161 134.993 91.4859 124.709C51.8119 124.169 13.9626 123.808 0.977735 123.171C0.841768 123.164 71.4811 113.318 78.1523 108.012C78.3233 107.876 78.4877 107.73 78.6456 107.576C77.5535 105.492 76.9505 103.208 76.9505 100.811C76.9505 91.0375 86.9989 83.1037 99.3785 83.1037C105.262 83.1037 110.622 84.8959 114.622 87.8281C119.096 82.7035 127.326 79.2649 136.732 79.2649C142.23 79.2649 147.322 80.4382 151.5 82.4368C151.936 69.1992 165.32 58.5646 181.737 58.5646C183.735 58.5646 185.687 58.7209 187.577 59.021C187.415 58.0165 187.334 56.987 187.334 55.945C187.334 43.0763 199.944 32.6271 215.477 32.6271C218.786 32.6271 221.96 33.1023 224.909 33.9713C225.764 29.3344 227.979 25.0643 231.208 21.4485C233.455 18.4476 236.501 15.7717 240.62 14.2087C245.953 11.4266 252.274 9.81564 259.046 9.81564C265.406 9.81564 271.368 11.2369 276.491 13.7148Z" fill="#EFF2FF"/>
<path d="M276.491 13.7148C283.103 5.44341 294.316 0 307.02 0C324.968 0 339.929 10.8597 343.168 25.2081C359.848 27.9756 372.412 39.9732 372.412 54.334C372.412 55.9533 372.252 57.5434 371.945 59.0918C379.682 65.2271 384.554 74.1446 384.554 84.0623C384.554 98.4732 374.267 110.773 359.85 115.493C359.907 116.175 359.933 116.862 359.933 117.556C359.933 134.714 343.159 148.648 322.494 148.648C313.262 148.648 304.805 145.865 298.275 141.26C294.114 142.519 289.669 143.2 285.055 143.2C277.7 143.2 270.781 141.47 264.759 138.43C256.53 144.761 245.405 148.65 233.161 148.65C218.438 148.65 205.33 143.027 196.944 134.301C189.935 139.718 179.051 143.2 166.838 143.2C157.496 143.2 148.93 141.162 142.283 137.779C136.886 141.135 129.55 143.2 121.471 143.2C105.372 143.2 92.2161 134.993 91.4859 124.709C51.8119 124.169 13.9626 123.808 0.977735 123.171C0.841768 123.164 71.4811 113.318 78.1523 108.012C78.3233 107.876 78.4877 107.73 78.6456 107.576C77.5535 105.492 76.9505 103.208 76.9505 100.811C76.9505 91.0375 86.9989 83.1037 99.3785 83.1037C105.262 83.1037 110.622 84.8959 114.622 87.8281C119.096 82.7035 127.326 79.2649 136.732 79.2649C142.23 79.2649 147.322 80.4382 151.5 82.4368C151.936 69.1992 165.32 58.5646 181.737 58.5646C183.735 58.5646 185.687 58.7209 187.577 59.021C187.415 58.0165 187.334 56.987 187.334 55.945C187.334 43.0763 199.944 32.6271 215.477 32.6271C218.786 32.6271 221.96 33.1023 224.909 33.9713C225.764 29.3344 227.979 25.0643 231.208 21.4485C233.455 18.4476 236.501 15.7717 240.62 14.2087C245.953 11.4266 252.274 9.81564 259.046 9.81564C265.406 9.81564 271.368 11.2369 276.491 13.7148Z" fill="#EFF2FF"/>
<mask id="mask0_331_25715" style="mask-type:luminance" maskUnits="userSpaceOnUse" x="0" y="0" width="385" height="149">
<path d="M276.491 13.7148C283.103 5.44341 294.316 0 307.02 0C324.968 0 339.929 10.8597 343.168 25.2081C359.848 27.9756 372.412 39.9732 372.412 54.334C372.412 55.9533 372.252 57.5434 371.945 59.0918C379.682 65.2271 384.554 74.1446 384.554 84.0623C384.554 98.4732 374.267 110.773 359.85 115.493C359.907 116.175 359.933 116.862 359.933 117.556C359.933 134.714 343.159 148.648 322.494 148.648C313.262 148.648 304.805 145.865 298.275 141.26C294.114 142.519 289.669 143.2 285.055 143.2C277.7 143.2 270.781 141.47 264.759 138.43C256.53 144.761 245.405 148.65 233.161 148.65C218.438 148.65 205.33 143.027 196.944 134.301C189.935 139.718 179.051 143.2 166.838 143.2C157.496 143.2 148.93 141.162 142.283 137.779C136.886 141.135 129.55 143.2 121.471 143.2C105.372 143.2 92.2161 134.993 91.4859 124.709C51.8119 124.169 13.9626 123.808 0.977735 123.171C0.841768 123.164 71.4811 113.318 78.1523 108.012C78.3233 107.876 78.4877 107.73 78.6456 107.576C77.5535 105.492 76.9505 103.208 76.9505 100.811C76.9505 91.0375 86.9989 83.1037 99.3785 83.1037C105.262 83.1037 110.622 84.8959 114.622 87.8281C119.096 82.7035 127.326 79.2649 136.732 79.2649C142.23 79.2649 147.322 80.4382 151.5 82.4368C151.936 69.1992 165.32 58.5646 181.737 58.5646C183.735 58.5646 185.687 58.7209 187.577 59.021C187.415 58.0165 187.334 56.987 187.334 55.945C187.334 43.0763 199.944 32.6271 215.477 32.6271C218.786 32.6271 221.96 33.1023 224.909 33.9713C225.764 29.3344 227.979 25.0643 231.208 21.4485C233.455 18.4476 236.501 15.7717 240.62 14.2087C245.953 11.4266 252.274 9.81564 259.046 9.81564C265.406 9.81564 271.368 11.2369 276.491 13.7148Z" fill="white"/>
</mask>
<g mask="url(#mask0_331_25715)">
<path fill-rule="evenodd" clip-rule="evenodd" d="M273.035 -0.506386C279.649 -8.77987 290.86 -14.2212 303.566 -14.2212C321.512 -14.2212 336.475 -3.36147 339.714 10.9848C356.394 13.7544 368.958 25.7499 368.958 40.1108C368.958 41.73 368.798 43.3201 368.491 44.8706C376.228 51.0059 381.1 59.9234 381.1 69.8411C381.1 84.252 370.813 96.5497 356.396 101.27C356.451 101.951 356.479 102.641 356.479 103.333C356.479 120.493 339.703 134.422 319.04 134.422C309.808 134.422 301.351 131.642 294.82 127.034C290.66 128.293 286.217 128.975 281.601 128.975C274.245 128.975 267.329 127.245 261.302 124.206C253.078 130.538 241.949 134.424 229.707 134.424C214.983 134.424 201.876 128.804 193.49 120.078C186.479 125.492 175.597 128.975 163.384 128.975C154.042 128.975 145.476 126.939 138.826 123.554C133.432 126.911 126.096 128.975 118.017 128.975C101.918 128.975 96.9354 124.354 96.2051 114.07C59.2571 118.707 7.57637 125.119 -5.4085 124.479C-5.54447 124.473 68.0293 99.0921 74.7004 93.7842C74.8715 93.6487 75.0359 93.5049 75.1938 93.3507C74.1017 91.2667 73.4964 88.9806 73.4964 86.5861C73.4964 76.8121 83.547 68.8762 95.9266 68.8762C101.81 68.8762 107.168 70.6685 111.17 73.6007C115.644 68.4782 123.874 65.0396 133.28 65.0396C138.776 65.0396 143.87 66.2108 148.048 68.2094C148.482 54.9739 161.866 44.3371 178.285 44.3371C180.281 44.3371 182.235 44.4955 184.126 44.7935C183.963 43.789 183.88 42.7637 183.88 41.7217C183.88 28.8509 196.49 18.4038 212.025 18.4038C215.332 18.4038 218.508 18.8769 221.455 19.748C222.31 15.1111 224.528 10.841 227.751 7.22317C230.001 4.22429 233.045 1.54635 237.166 -0.0145618C242.497 -2.7967 248.817 -4.40763 255.592 -4.40763C261.951 -4.40555 267.914 -2.98635 273.035 -0.506386Z" fill="#EFF2FF"/>
</g>
<path fill-rule="evenodd" clip-rule="evenodd" d="M326.757 112.649C331.644 105.686 329.51 95.145 321.424 88.1053C313.61 81.3031 302.858 80.0485 295.943 84.6917C296.356 84.1019 296.821 83.5392 297.334 83.0057C303.928 76.166 316.402 76.81 325.172 84.4478C333.942 92.0815 335.709 103.833 329.117 110.675C328.398 111.421 327.608 112.08 326.757 112.649Z" fill="#EFF2FF"/>
<path fill-rule="evenodd" clip-rule="evenodd" d="M150.013 112.267C157.603 122.556 172.511 126.034 184.858 119.903C196.788 113.976 202.325 101.064 198.575 89.5579C199.218 90.429 199.806 91.3459 200.339 92.3129C207.152 104.698 201.812 120.155 188.424 126.807C175.033 133.459 158.63 128.804 151.816 116.419C151.072 115.066 150.474 113.678 150.013 112.267Z" fill="#EFF2FF"/>
<path fill-rule="evenodd" clip-rule="evenodd" d="M106.894 95.4597C98.7006 98.0814 93.5514 105.286 95.1874 112.357C96.7663 119.19 104.15 123.612 112.398 123.106C111.705 123.327 110.99 123.517 110.258 123.669C100.841 125.634 91.7553 121.003 89.9834 113.334C88.2092 105.663 94.4155 97.8396 103.832 95.8744C104.856 95.6577 105.881 95.5222 106.894 95.4597Z" fill="#EFF2FF"/>
<path fill-rule="evenodd" clip-rule="evenodd" d="M255.701 106.578C254.337 115.312 261.004 124.294 271.566 127.332C281.77 130.267 292.189 126.668 296.454 119.219C296.338 119.957 296.167 120.695 295.932 121.426C292.945 130.804 281.222 135.743 269.767 132.447C258.313 129.152 251.438 118.863 254.425 109.487C254.75 108.464 255.179 107.493 255.701 106.578Z" fill="#EFF2FF"/>
<path fill-rule="evenodd" clip-rule="evenodd" d="M295.053 53.24C298.792 42.9575 293.81 31.2663 283.04 26.1626C272.632 21.2339 260.309 24.1099 253.726 32.4542C254.044 31.5852 254.423 30.7266 254.864 29.8825C260.546 19.0478 274.643 14.7464 286.325 20.2795C298.007 25.8104 302.88 39.0959 297.2 49.9306C296.579 51.1143 295.858 52.2188 295.053 53.24Z" fill="#EFF2FF"/>
</svg>
