<svg width="868" height="489" viewBox="0 0 868 489" fill="none" xmlns="http://www.w3.org/2000/svg">
<path fill-rule="evenodd" clip-rule="evenodd" d="M493.047 93.3562C521.679 46.7888 526.444 13.4778 526.883 14.0798C538.84 64.8163 560.362 95.9723 583.089 127.942L569.455 121.858L594.182 157.471L574.566 141.816L591.814 171.694L576.242 161.416L627.706 264.029L616.21 258.345L624.435 274.311L615.777 268.742C615.777 268.742 652.551 324.951 649.154 321.166C645.755 317.382 619.875 294.365 619.875 294.365L674.483 411.269L664.073 405.108L675.473 421.727C675.473 421.727 700.827 461.839 695.322 457.446C692.109 454.881 680.132 444.679 670.712 436.629C676.123 451.858 679.273 460.753 679.273 460.753L627.559 457.817L572.483 450.753L552.426 451.516L463.916 452.915C463.916 452.915 454.025 455.054 445.639 457.254C437.254 459.453 433.534 437.385 433.534 437.385C433.534 437.385 411.416 446.152 401.336 452.87C391.256 459.588 404.201 430.984 404.201 430.984C404.201 430.984 392.144 438.221 382.708 447.513C373.275 456.805 388.757 428.906 388.757 428.906C388.757 428.906 375.812 427.103 354.572 442.153C344.454 449.322 349.622 442.438 364.319 420.292L338.744 438.666C338.744 438.666 362.297 398.061 360.202 398.355C358.107 398.65 388.876 359.87 392.785 353.549C396.69 347.225 376.258 362.783 374.826 364.535C373.393 366.286 390.218 340.094 394.079 334.913C397.94 329.732 435.534 266.168 435.534 266.168C435.534 266.168 430.846 268.72 426.133 271.884C421.42 275.044 436.658 249.127 439.033 242.12C441.407 235.118 425.668 252.94 419.18 258.778C412.688 264.612 422.342 252.802 442.272 224.333C462.198 195.86 485.883 148.499 485.883 148.499C485.883 148.499 478.411 152.063 474.572 156.376C470.731 160.689 483.326 131.704 485.277 123.897C487.229 116.088 470.526 136.241 466.242 141.429C461.951 146.606 476.617 120.077 493.047 93.3562Z" fill="#265E73"/>
<path fill-rule="evenodd" clip-rule="evenodd" d="M672.881 113.654C701.513 67.0866 706.278 33.7757 706.717 34.3777C718.674 85.1142 740.196 116.27 762.923 148.236L749.29 142.152L774.012 177.766L754.4 162.111L771.648 191.989L756.076 181.711L807.54 284.324L796.044 278.637L804.272 294.602L795.614 289.034C795.614 289.034 832.388 345.243 828.992 341.458C825.592 337.673 799.712 314.657 799.712 314.657L854.32 431.56L843.91 425.4L855.307 442.018C855.307 442.018 880.661 482.13 875.156 477.737C871.943 475.172 859.966 464.971 850.546 456.921C855.957 472.15 859.107 481.045 859.107 481.045L807.393 478.106L752.314 471.045L732.257 471.807L643.746 473.206C643.746 473.206 633.855 475.345 625.47 477.545C617.085 479.745 613.365 457.676 613.365 457.676C613.365 457.676 591.247 466.444 581.167 473.162C571.087 479.879 584.032 451.275 584.032 451.275C584.032 451.275 571.975 458.509 562.542 467.805C553.109 477.097 568.591 449.197 568.591 449.197C568.591 449.197 555.646 447.395 534.406 462.441C524.288 469.61 529.456 462.726 544.153 440.581L518.578 458.951C518.578 458.951 542.131 418.346 540.039 418.64C537.944 418.935 568.713 380.155 572.622 373.831C576.531 367.507 556.095 383.065 554.663 384.817C553.231 386.568 570.055 360.376 573.916 355.195C577.777 350.014 615.371 286.45 615.371 286.45C615.371 286.45 610.683 289.005 605.97 292.165C601.257 295.326 616.496 269.408 618.87 262.402C621.244 255.399 605.505 273.222 599.017 279.059C592.526 284.894 602.18 273.084 622.109 244.615C642.035 216.142 665.72 168.781 665.72 168.781C665.72 168.781 658.248 172.345 654.41 176.658C650.568 180.971 663.163 151.989 665.115 144.179C667.066 136.37 650.363 156.523 646.082 161.711C641.789 166.904 656.451 140.375 672.881 113.654Z" fill="#265E73"/>
<path fill-rule="evenodd" clip-rule="evenodd" d="M538.187 424.391L480.022 446.434L518.965 370.26C518.965 370.26 510.57 375.431 506.831 379.331C503.092 383.232 517.289 361.33 519.545 356.261C521.801 351.192 505.184 369.69 505.184 369.69L549.91 258.713C549.91 258.713 538.276 272.982 535.296 275.809C532.317 278.637 556.168 235.966 557.924 233.087C559.68 230.209 554.117 236.174 550.727 238.986C547.341 241.794 559.734 219.005 559.734 219.005C559.734 219.005 550.266 230.414 545.53 236.116C540.795 241.819 594.97 115.662 594.97 115.662L580.692 128.643L601.234 83.0038C601.234 83.0038 596.809 87.0673 594.092 89.5521C591.371 92.0337 607.796 66.7566 608.885 64.2078C609.971 61.659 600.417 71.1722 595.639 75.9304C590.862 80.6887 634.335 2.72835 635.844 0.0674387C635.947 -0.108674 635.998 0.0642468 636.017 0.538151L655.63 53.7563L648.622 46.6701L666.802 112.389L656.062 101.573C656.062 101.573 676.226 156.504 674.973 154.957C673.717 153.411 668.901 146.856 668.901 146.856C668.901 146.856 676.844 168.899 675.594 167.215C674.345 165.53 670.401 160.746 670.401 160.746C670.401 160.746 706.354 254.864 703.948 250.782C701.541 246.699 688.148 232.341 688.148 232.341L703.419 263.504L696.959 259.52C696.959 259.52 726.261 348.256 725.357 345.566C724.454 342.873 706.274 315.351 707.072 318.262C707.873 321.169 715.14 338.284 713.066 336.43C710.993 334.576 708.872 334.045 708.872 334.045C708.872 334.045 723.252 369.953 737.539 399.264C737.687 399.565 723.553 389.043 723.553 389.043L730.67 409.895C730.67 409.895 746.001 444.666 740.183 440.536C734.364 436.405 709.404 431.554 709.404 431.554L633.858 428.14L538.187 424.391Z" fill="#1F677D"/>
<path fill-rule="evenodd" clip-rule="evenodd" d="M331.631 46.4363C331.67 46.4363 331.699 46.494 331.718 46.6061L357.552 96.84L349.911 89.8722L361.349 112.331L352.487 104.205L375.386 168.707L367.123 160.939L384.47 195.181L378.866 189.274L382.282 200.891L377.947 196.043L395.281 226.904L388.434 219.684L392.535 230.446L396.521 243.987L389.574 233.859L410.193 279.53L402.734 268.72L433.205 336.523L422.307 328.323L429.34 344.112L420.712 336.088L456.95 406.549L447.392 397.397L454.121 419.079L441.878 407.084L459.783 454.618L455.319 454.433C458.325 465.71 459.686 471.945 458.866 471.474C458.716 471.387 458.418 471.294 457.979 471.192L458.168 471.467L457.293 471.051C433.31 466.514 160.699 449.809 160.699 449.809L152.448 449.319L194.72 369.226L178.924 379.671L192.929 350.145L186.437 352.582L209.44 325.96L197.591 331.557L210.596 312.136L196.924 319.69L236.742 253.577L229.821 256.555L238.933 243.353L229.388 249.748L241.349 236.731L239.212 236.642L242.887 228.275L233.156 239.174L281.375 164.243L273.698 167.804L280.994 156.85L272.711 162.914L285.71 143.535L280.151 148.502L299.231 114.733L293.214 121.32L308.873 87.0513L304.566 88.473L331.401 46.779C331.474 46.6221 331.526 46.526 331.545 46.494C331.583 46.4556 331.609 46.4331 331.631 46.4363Z" fill="#265E73"/>
<path fill-rule="evenodd" clip-rule="evenodd" d="M318.564 443.065L260.4 465.108L299.343 388.934C299.343 388.934 290.948 394.106 287.209 398.006C283.47 401.906 297.667 380.004 299.923 374.935C302.179 369.866 285.565 388.364 285.565 388.364L330.291 277.388C330.291 277.388 318.657 291.656 315.678 294.48C312.698 297.308 336.549 254.637 338.305 251.762C340.061 248.886 334.498 254.848 331.109 257.66C327.722 260.468 340.115 237.679 340.115 237.679C340.115 237.679 330.647 249.088 325.911 254.791C321.176 260.494 375.351 134.336 375.351 134.336L361.073 147.317L381.615 101.678C381.615 101.678 377.19 105.742 374.473 108.226C371.753 110.708 388.177 85.4309 389.266 82.8821C390.352 80.3301 380.798 89.8465 376.02 94.6048C371.243 99.363 414.716 21.4026 416.225 18.7417C416.328 18.5656 416.379 18.7353 416.399 19.2125L436.011 72.4306L429.003 65.3444L447.184 131.063L436.443 120.247C436.443 120.247 456.607 175.178 455.354 173.632C454.098 172.085 449.282 165.53 449.282 165.53C449.282 165.53 457.225 187.57 455.976 185.889C454.726 184.205 450.782 179.421 450.782 179.421C450.782 179.421 486.735 273.539 484.329 269.456C481.922 265.374 468.529 251.012 468.529 251.012L483.8 282.175L477.341 278.191C477.341 278.191 506.642 366.927 505.739 364.234C504.835 361.541 486.655 334.019 487.453 336.93C488.254 339.84 495.517 356.955 493.448 355.098C491.378 353.244 489.253 352.713 489.253 352.713C489.253 352.713 503.633 388.621 517.92 417.932C518.068 418.233 503.935 407.711 503.935 407.711L511.051 428.563C511.051 428.563 526.383 463.334 520.564 459.203C514.745 455.073 489.785 450.222 489.785 450.222L414.239 446.808L318.564 443.065Z" fill="#1F677D"/>
<path fill-rule="evenodd" clip-rule="evenodd" d="M219.475 50.9673C219.513 50.9705 219.542 51.025 219.562 51.137L245.396 101.371L237.754 94.4032L249.193 116.862L240.331 108.736L263.23 173.238L254.967 165.47L272.314 199.712L266.71 193.805L270.125 205.422L265.79 200.574L283.125 231.435L276.277 224.214L280.379 234.977L284.365 248.518L277.418 238.39L298.036 284.061L290.577 273.251L321.048 341.054L310.151 332.854L317.184 348.643L308.555 340.619L344.794 411.08L335.236 401.928L341.965 423.61L329.722 411.615L347.626 459.149L343.163 458.963C346.168 470.241 347.53 476.475 346.71 476.005C346.559 475.918 346.261 475.825 345.822 475.723L346.011 475.998L345.137 475.582C321.154 471.045 48.5426 454.34 48.5426 454.34L40.292 453.85L82.5637 373.757L66.7675 384.202L80.7726 354.676L74.2811 357.112L97.2866 330.491L85.4378 336.088L98.4432 316.667L84.7713 324.221L124.589 258.108L117.668 261.086L126.78 247.884L117.235 254.279L129.196 241.262L127.059 241.172L130.734 232.805L121.003 243.705L169.222 168.774L161.545 172.335L168.841 161.38L160.558 167.445L173.557 148.066L167.998 153.033L187.078 119.264L181.061 125.851L196.719 91.5821L192.413 93.0038L219.248 51.3099C219.321 51.153 219.372 51.057 219.392 51.0249C219.427 50.9865 219.453 50.9673 219.475 50.9673Z" fill="#1F677D"/>
<path fill-rule="evenodd" clip-rule="evenodd" d="M648.139 230.756C667.617 199.075 670.859 176.414 671.157 176.824C679.293 211.342 693.935 232.536 709.395 254.285L700.119 250.148L716.941 274.374L703.599 263.724L715.332 284.051L704.74 277.058L739.751 346.866L731.93 342.998L737.527 353.859L731.638 350.071C731.638 350.071 756.656 388.31 754.345 385.735C752.035 383.161 734.429 367.503 734.429 367.503L771.577 447.032L764.496 442.841L772.25 454.147C772.25 454.147 789.498 481.435 785.752 478.448C783.567 476.703 775.416 469.764 769.011 464.285C772.692 474.647 774.836 480.696 774.836 480.696L739.655 478.698L702.183 473.894L688.533 474.413L628.318 475.364C628.318 475.364 621.59 476.818 615.887 478.316C610.183 479.815 607.652 464.801 607.652 464.801C607.652 464.801 592.606 470.766 585.746 475.335C578.889 479.905 587.694 460.446 587.694 460.446C587.694 460.446 579.491 465.367 573.073 471.691C566.656 478.012 577.187 459.034 577.187 459.034C577.187 459.034 568.383 457.807 553.932 468.044C547.05 472.921 550.565 468.24 560.561 453.171L543.163 465.668C543.163 465.668 559.187 438.044 557.761 438.246C556.335 438.448 577.268 412.066 579.927 407.762C582.586 403.462 568.684 414.045 567.71 415.236C566.736 416.427 578.181 398.608 580.808 395.082C583.432 391.557 609.011 348.313 609.011 348.313C609.011 348.313 605.823 350.052 602.615 352.2C599.408 354.349 609.776 336.718 611.391 331.954C613.006 327.189 602.301 339.315 597.886 343.286C593.471 347.256 600.039 339.222 613.596 319.853C627.152 300.484 643.262 268.262 643.262 268.262C643.262 268.262 638.181 270.689 635.566 273.619C632.955 276.552 641.519 256.834 642.849 251.521C644.176 246.209 632.814 259.92 629.901 263.449C626.986 266.981 636.963 248.934 648.139 230.756Z" fill="#164D61"/>
<path fill-rule="evenodd" clip-rule="evenodd" d="M261.371 183.593C282.512 149.21 286.03 124.615 286.354 125.06C295.184 162.52 311.073 185.524 327.856 209.13L317.789 204.64L336.043 230.936L321.56 219.376L334.294 241.438L322.797 233.849L360.798 309.613L352.31 305.415L358.385 317.205L351.993 313.094C351.993 313.094 379.145 354.596 376.636 351.8C374.127 349.005 355.018 332.012 355.018 332.012L395.338 418.326L387.651 413.776L396.069 426.046C396.069 426.046 414.79 455.662 410.724 452.418C408.35 450.526 399.507 442.992 392.554 437.049C396.549 448.294 398.875 454.862 398.875 454.862L360.692 452.694L320.026 447.481L305.216 448.044L239.865 449.079C239.865 449.079 232.563 450.657 226.37 452.284C220.179 453.911 217.434 437.612 217.434 437.612C217.434 437.612 201.102 444.087 193.659 449.047C186.216 454.007 195.774 432.886 195.774 432.886C195.774 432.886 186.87 438.227 179.907 445.089C172.941 451.951 184.374 431.349 184.374 431.349C184.374 431.349 174.816 430.017 159.135 441.128C151.663 446.421 155.479 441.339 166.331 424.986L147.446 438.55C147.446 438.55 164.838 408.569 163.291 408.787C161.743 409.005 184.463 380.372 187.347 375.704C190.231 371.035 175.146 382.521 174.085 383.814C173.028 385.108 185.45 365.768 188.302 361.941C191.153 358.115 218.911 311.182 218.911 311.182C218.911 311.182 215.45 313.068 211.967 315.403C208.488 317.737 219.737 298.598 221.49 293.427C223.243 288.256 211.624 301.416 206.831 305.726C202.038 310.033 209.167 301.317 223.88 280.295C238.593 259.274 256.078 224.301 256.078 224.301C256.078 224.301 250.561 226.933 247.728 230.116C244.893 233.299 254.191 211.899 255.633 206.136C257.075 200.369 244.742 215.249 241.58 219.082C238.414 222.908 249.241 203.321 261.371 183.593Z" fill="#164D61"/>
<path fill-rule="evenodd" clip-rule="evenodd" d="M104.97 199.056C124.447 167.375 127.69 144.714 127.988 145.124C136.123 179.642 150.766 200.836 166.226 222.585L156.95 218.448L173.771 242.674L160.429 232.024L172.163 252.351L161.57 245.358L196.581 315.166L188.76 311.297L194.358 322.159L188.469 318.371C188.469 318.371 213.486 356.61 211.176 354.035C208.866 351.458 191.259 335.803 191.259 335.803L228.408 415.332L221.327 411.141L229.081 422.447C229.081 422.447 246.328 449.735 242.583 446.747C240.397 445.002 232.246 438.064 225.841 432.585C229.523 442.947 231.666 448.995 231.666 448.995L196.485 446.997L159.013 442.194L145.367 442.713L85.1522 443.664C85.1522 443.664 78.4236 445.118 72.7203 446.616C67.017 448.115 64.4858 433.1 64.4858 433.1C64.4858 433.1 49.4393 439.066 42.5825 443.635C35.7257 448.204 44.5306 428.746 44.5306 428.746C44.5306 428.746 36.3281 433.667 29.9103 439.991C23.4925 446.312 34.0244 427.333 34.0244 427.333C34.0244 427.333 25.2195 426.107 10.769 436.344C3.88658 441.221 7.40148 436.539 17.3983 421.471L0 433.968C0 433.968 16.0237 406.344 14.5979 406.546C13.1721 406.747 34.1045 380.366 36.7639 376.062C39.4233 371.762 25.5207 382.345 24.5466 383.536C23.5726 384.727 35.0176 366.908 37.645 363.382C40.2692 359.857 65.8475 316.613 65.8475 316.613C65.8475 316.613 62.6594 318.352 59.4521 320.5C56.2448 322.649 66.6133 305.018 68.2282 300.254C69.843 295.489 59.1381 307.615 54.7229 311.586C50.3076 315.556 56.876 307.522 70.4326 288.153C83.9891 268.784 100.099 236.561 100.099 236.561C100.099 236.561 95.0177 238.989 92.4031 241.919C89.7918 244.852 98.3563 225.133 99.686 219.824C101.013 214.512 89.6508 228.223 86.7383 231.752C83.8161 235.281 93.7937 217.234 104.97 199.056Z" fill="#164D61"/>
<path fill-rule="evenodd" clip-rule="evenodd" d="M384.61 469.168L325.613 488.019L364.742 421.896C364.742 421.896 356.241 426.35 352.46 429.725C348.683 433.1 362.986 414.106 365.245 409.703C367.507 405.3 350.727 421.313 350.727 421.313L395.524 324.912C395.524 324.912 383.784 337.269 380.772 339.716C377.76 342.159 401.749 305.133 403.518 302.639C405.287 300.145 399.666 305.306 396.238 307.734C392.813 310.161 405.274 290.382 405.274 290.382C405.274 290.382 395.716 300.263 390.935 305.201C386.155 310.141 440.468 200.57 440.468 200.57L426.033 211.794L446.639 172.162C446.639 172.162 442.166 175.674 439.417 177.823C436.664 179.968 453.21 158.05 454.303 155.834C455.392 153.619 445.735 161.851 440.91 165.966C436.081 170.08 479.804 102.434 481.323 100.122C481.426 99.9682 481.48 100.119 481.502 100.532L501.762 147.006L494.594 140.791L513.473 198.146L502.489 188.659C502.489 188.659 523.319 236.632 522.034 235.274C520.746 233.92 515.812 228.182 515.812 228.182C515.812 228.182 524.018 247.429 522.739 245.956C521.461 244.483 517.417 240.289 517.417 240.289C517.417 240.289 554.537 322.492 552.066 318.921C549.596 315.351 535.892 302.761 535.892 302.761L551.605 329.997L545.014 326.488C545.014 326.488 575.341 403.962 574.405 401.611C573.47 399.261 554.822 375.175 555.649 377.714C556.482 380.254 563.97 395.207 561.852 393.577C559.737 391.947 557.574 391.474 557.574 391.474C557.574 391.474 572.409 422.838 587.11 448.46C587.263 448.723 572.832 439.472 572.832 439.472L580.192 457.679C580.192 457.679 595.991 488.06 590.048 484.429C584.107 480.798 558.705 476.421 558.705 476.421L481.884 472.991L384.61 469.168Z" fill="#164D61"/>
</svg>
