<svg width="1266" height="975" viewBox="0 0 1266 975" fill="none" xmlns="http://www.w3.org/2000/svg">
<g clip-path="url(#clip0_236_4812)">
<g opacity="0.92">
<path fill-rule="evenodd" clip-rule="evenodd" d="M853.858 152.025C889.881 112.475 902.721 97.8145 910.947 99.4602C934.013 104.07 992.791 173.99 1001.33 163.232C1009.87 152.476 1084.04 89.7249 1113.15 59.6022C1134.94 37.0589 1173.84 1.47962 1203.49 -23.1889C1236.97 -51.0359 1260.34 -66.4394 1265.64 -60.87C1288.17 -37.1982 1274.45 885.294 1274.45 885.294C1274.45 885.294 -44.9495 784.551 1.18212 744.295C47.3138 704.04 579.02 291.747 590.317 281.273C596.8 275.264 612.781 292.828 632.052 309.501C633.901 311.102 644.167 305.587 646.007 307.162C658.399 317.777 665.13 333.826 673.119 336.107C679.595 337.957 701.621 316.85 729.886 286.551C731.615 283.624 733.44 280.516 735.32 277.284C745.704 259.431 791.809 204.228 794.303 199.662C796.794 195.097 804.858 181.501 804.858 181.501C808.018 176.238 816.178 179.223 818.597 179.623C823.377 180.415 828.263 168.759 831.488 163.432C841.785 146.418 846.29 151.63 853.858 152.025Z" fill="#5799C9"/>
<mask id="mask0_236_4812" style="mask-type:luminance" maskUnits="userSpaceOnUse" x="0" y="-62" width="1279" height="948">
<path d="M853.858 152.025C889.881 112.475 902.721 97.8145 910.947 99.4602C934.013 104.07 992.791 173.99 1001.33 163.232C1009.87 152.476 1084.04 89.7249 1113.15 59.6022C1134.94 37.0589 1173.84 1.47962 1203.49 -23.1889C1236.97 -51.0359 1260.34 -66.4394 1265.64 -60.87C1288.17 -37.1982 1274.45 885.294 1274.45 885.294C1274.45 885.294 -44.9495 784.551 1.18212 744.295C47.3138 704.04 579.02 291.747 590.317 281.273C596.8 275.264 612.781 292.828 632.052 309.501C633.901 311.102 644.167 305.587 646.007 307.162C658.399 317.777 665.13 333.826 673.119 336.107C679.595 337.957 701.621 316.85 729.886 286.551C731.615 283.624 733.44 280.516 735.32 277.284C745.704 259.431 791.809 204.228 794.303 199.662C796.794 195.097 804.858 181.501 804.858 181.501C808.018 176.238 816.178 179.223 818.597 179.623C823.377 180.415 828.263 168.759 831.488 163.432C841.785 146.418 846.29 151.63 853.858 152.025Z" fill="white"/>
</mask>
<g mask="url(#mask0_236_4812)">
<path fill-rule="evenodd" clip-rule="evenodd" d="M1091.66 21.3685L1265.64 -60.8701L1089.58 159.799L1124.59 165.444L970.847 369.5L947.309 429.301V454.348L833.866 552.57L898.552 429.301L927.47 342.602L894.696 308.885L969.883 220.259L1000.44 163.979L1091.66 21.3685Z" fill="#4E89B5"/>
</g>
<mask id="mask1_236_4812" style="mask-type:luminance" maskUnits="userSpaceOnUse" x="0" y="-62" width="1279" height="948">
<path d="M853.858 152.025C889.881 112.475 902.721 97.8145 910.947 99.4602C934.013 104.07 992.791 173.99 1001.33 163.232C1009.87 152.476 1084.04 89.7249 1113.15 59.6022C1134.94 37.0589 1173.84 1.47962 1203.49 -23.1889C1236.97 -51.0359 1260.34 -66.4394 1265.64 -60.87C1288.17 -37.1982 1274.45 885.294 1274.45 885.294C1274.45 885.294 -44.9495 784.551 1.18212 744.295C47.3138 704.04 579.02 291.747 590.317 281.273C596.8 275.264 612.781 292.828 632.052 309.501C633.901 311.102 644.167 305.587 646.007 307.162C658.399 317.777 665.13 333.826 673.119 336.107C679.595 337.957 701.621 316.85 729.886 286.551C731.615 283.624 733.44 280.516 735.32 277.284C745.704 259.431 791.809 204.228 794.303 199.662C796.794 195.097 804.858 181.501 804.858 181.501C808.018 176.238 816.178 179.223 818.597 179.623C823.377 180.415 828.263 168.759 831.488 163.432C841.785 146.418 846.29 151.63 853.858 152.025Z" fill="white"/>
</mask>
<g mask="url(#mask1_236_4812)">
<path fill-rule="evenodd" clip-rule="evenodd" d="M721.24 224.935L900.495 91.9373L910.912 99.4532L808.643 247.977H827.917L791.776 288.354L768.48 324.479L731.53 379.068L696.184 417.805L576.496 528.384L648.792 385.491L651.201 350.168L592.483 280.166L692.063 290.054L721.24 224.935Z" fill="#4E89B5"/>
</g>
<mask id="mask2_236_4812" style="mask-type:luminance" maskUnits="userSpaceOnUse" x="0" y="-62" width="1279" height="948">
<path d="M853.858 152.025C889.881 112.475 902.721 97.8145 910.947 99.4602C934.013 104.07 992.791 173.99 1001.33 163.232C1009.87 152.476 1084.04 89.7249 1113.15 59.6022C1134.94 37.0589 1173.84 1.47962 1203.49 -23.1889C1236.97 -51.0359 1260.34 -66.4394 1265.64 -60.87C1288.17 -37.1982 1274.45 885.294 1274.45 885.294C1274.45 885.294 -44.9495 784.551 1.18212 744.295C47.3138 704.04 579.02 291.747 590.317 281.273C596.8 275.264 612.781 292.828 632.052 309.501C633.901 311.102 644.167 305.587 646.007 307.162C658.399 317.777 665.13 333.826 673.119 336.107C679.595 337.957 701.621 316.85 729.886 286.551C731.615 283.624 733.44 280.516 735.32 277.284C745.704 259.431 791.809 204.228 794.303 199.662C796.794 195.097 804.858 181.501 804.858 181.501C808.018 176.238 816.178 179.223 818.597 179.623C823.377 180.415 828.263 168.759 831.488 163.432C841.785 146.418 846.29 151.63 853.858 152.025Z" fill="white"/>
</mask>
<g mask="url(#mask2_236_4812)">
<path fill-rule="evenodd" clip-rule="evenodd" d="M897.933 65.4961L944.58 122.02L869.021 236.622L903.123 245.849L883.849 274.404L825.703 449.512L619.045 489.074C619.045 489.074 648.204 393.95 666.532 385.616C684.859 377.282 755.283 292.09 766.403 278.201C777.52 264.309 790.266 184.252 798.255 167.795C806.246 151.336 897.933 65.4961 897.933 65.4961Z" fill="#57A4DA"/>
</g>
<mask id="mask3_236_4812" style="mask-type:luminance" maskUnits="userSpaceOnUse" x="0" y="-62" width="1279" height="948">
<path d="M853.858 152.025C889.881 112.475 902.721 97.8145 910.947 99.4602C934.013 104.07 992.791 173.99 1001.33 163.232C1009.87 152.476 1084.04 89.7249 1113.15 59.6022C1134.94 37.0589 1173.84 1.47962 1203.49 -23.1889C1236.97 -51.0359 1260.34 -66.4394 1265.64 -60.87C1288.17 -37.1982 1274.45 885.294 1274.45 885.294C1274.45 885.294 -44.9495 784.551 1.18212 744.295C47.3138 704.04 579.02 291.747 590.317 281.273C596.8 275.264 612.781 292.828 632.052 309.501C633.901 311.102 644.167 305.587 646.007 307.162C658.399 317.777 665.13 333.826 673.119 336.107C679.595 337.957 701.621 316.85 729.886 286.551C731.615 283.624 733.44 280.516 735.32 277.284C745.704 259.431 791.809 204.228 794.303 199.662C796.794 195.097 804.858 181.501 804.858 181.501C808.018 176.238 816.178 179.223 818.597 179.623C823.377 180.415 828.263 168.759 831.488 163.432C841.785 146.418 846.29 151.63 853.858 152.025Z" fill="white"/>
</mask>
<g mask="url(#mask3_236_4812)">
<path fill-rule="evenodd" clip-rule="evenodd" d="M1143.68 -52.7897C1159.13 -52.7897 1265.64 -61.7798 1265.64 -61.7798L1177.47 122.765C1177.47 122.765 1182.29 156.525 1189.05 171.959C1195.8 187.393 1170.71 220.388 1162.02 245.849C1153.33 271.312 1113.76 396.903 1108.93 411.756C1104.11 426.611 944.58 587.699 944.58 587.699L859.812 503.128C859.812 503.128 911.067 449.761 922.65 419.86C934.231 389.958 937.127 290.007 969.944 277.284C1002.76 264.56 1049.75 216.331 1049.75 216.331C1049.75 216.331 1045.59 190.287 1049.75 171.959C1053.92 153.633 1143.72 29.6464 1143.72 29.6464C1143.72 29.6464 1142.53 23.2917 1141.13 14.1136C1137.51 -9.77202 1132.53 -52.7897 1143.68 -52.7897Z" fill="#57A4DA"/>
</g>
<mask id="mask4_236_4812" style="mask-type:luminance" maskUnits="userSpaceOnUse" x="0" y="-62" width="1279" height="948">
<path d="M853.858 152.025C889.881 112.475 902.721 97.8145 910.947 99.4602C934.013 104.07 992.791 173.99 1001.33 163.232C1009.87 152.476 1084.04 89.7249 1113.15 59.6022C1134.94 37.0589 1173.84 1.47962 1203.49 -23.1889C1236.97 -51.0359 1260.34 -66.4394 1265.64 -60.87C1288.17 -37.1982 1274.45 885.294 1274.45 885.294C1274.45 885.294 -44.9495 784.551 1.18212 744.296C47.3138 704.04 579.02 291.747 590.317 281.273C596.8 275.264 612.781 292.828 632.052 309.501C633.901 311.102 644.167 305.587 646.007 307.162C658.399 317.777 665.13 333.827 673.119 336.107C679.595 337.957 701.621 316.85 729.886 286.551C731.615 283.624 733.44 280.516 735.32 277.284C745.704 259.431 791.809 204.228 794.303 199.662C796.794 195.097 804.858 181.501 804.858 181.501C808.018 176.238 816.178 179.223 818.597 179.623C823.377 180.415 828.263 168.759 831.488 163.432C841.785 146.418 846.29 151.63 853.858 152.025Z" fill="white"/>
</mask>
<g mask="url(#mask4_236_4812)">
<path fill-rule="evenodd" clip-rule="evenodd" d="M390.008 391.474C416.365 373.367 592.484 280.166 592.484 280.166C592.484 280.166 560.504 351.141 548.973 357.726C537.441 364.311 515.203 383.243 515.203 383.243L534.971 411.756C534.971 411.756 514.38 435.101 501.201 446.623C488.023 458.147 329.881 598.078 329.881 598.078C329.881 598.078 227.749 565.506 230.222 552.571C232.692 539.636 363.651 409.584 390.008 391.474Z" fill="#57A4DA"/>
</g>
<path fill-rule="evenodd" clip-rule="evenodd" d="M123.371 713.691C161.213 700.756 607.269 391.483 636.957 419.45C657.228 438.545 692.933 457.912 718.13 455.227C754.622 430.197 815.804 359.447 830.121 370.706C856.685 391.594 1261.89 905.439 1226.21 877.032C1205.55 860.595 50.1602 912.734 50.1602 912.734C50.1602 912.734 85.5293 726.628 123.371 713.691Z" fill="#4782AF"/>
<mask id="mask5_236_4812" style="mask-type:luminance" maskUnits="userSpaceOnUse" x="50" y="369" width="1179" height="544">
<path d="M123.371 713.691C161.213 700.756 607.269 391.483 636.957 419.45C657.228 438.545 692.933 457.912 718.13 455.227C754.622 430.197 815.804 359.447 830.121 370.706C856.685 391.594 1261.89 905.439 1226.21 877.032C1205.55 860.595 50.1602 912.734 50.1602 912.734C50.1602 912.734 85.5293 726.628 123.371 713.691Z" fill="white"/>
</mask>
<g mask="url(#mask5_236_4812)">
<path fill-rule="evenodd" clip-rule="evenodd" d="M689.854 451.212L718.13 455.227L720.426 587.781V622.192L711.972 655.625L679.545 701.402L612.637 763.126L683.664 667.455L688.296 641.117L677.487 616.02L704.251 559.955L654.327 580.016L700.134 512.635L687.685 482.754L644.762 465.663L631.153 417.666L689.854 451.212Z" fill="#40759E"/>
</g>
<mask id="mask6_236_4812" style="mask-type:luminance" maskUnits="userSpaceOnUse" x="50" y="369" width="1179" height="544">
<path d="M123.371 713.691C161.213 700.756 607.269 391.483 636.957 419.45C657.228 438.545 692.933 457.912 718.13 455.227C754.622 430.197 815.804 359.447 830.121 370.706C856.685 391.594 1261.89 905.439 1226.21 877.032C1205.55 860.595 50.1602 912.734 50.1602 912.734C50.1602 912.734 85.5293 726.628 123.371 713.691Z" fill="white"/>
</mask>
<g mask="url(#mask6_236_4812)">
<path fill-rule="evenodd" clip-rule="evenodd" d="M326.482 552.571C346.25 551.814 537.335 433.286 556.004 429.992C574.673 426.701 631.779 411.756 631.779 411.756L557.103 521.084L581.263 529.865L573.575 552.571L576.87 598.078L524.157 701.073L398.964 860.209C398.964 860.209 381.391 641.808 367.116 624.249C352.839 606.69 306.715 553.328 326.482 552.571Z" fill="#4D8CBB"/>
</g>
<mask id="mask7_236_4812" style="mask-type:luminance" maskUnits="userSpaceOnUse" x="50" y="370" width="1179" height="544">
<path d="M123.211 714.189C161.052 701.254 607.108 391.982 636.796 419.949C657.068 439.043 692.773 458.411 717.97 455.726C754.462 430.695 815.644 359.946 829.961 371.204C856.525 392.092 1261.73 905.938 1226.05 877.531C1205.39 861.093 50 913.232 50 913.232C50 913.232 85.3692 727.127 123.211 714.189Z" fill="white"/>
</mask>
<g mask="url(#mask7_236_4812)">
<path fill-rule="evenodd" clip-rule="evenodd" d="M917.101 411.756C899.321 394.874 845.81 349.928 833.866 360.381C821.923 370.833 808.328 412.642 815.649 426.231C822.97 439.819 835.52 462.026 810.419 489.074C785.316 516.119 757.077 577.79 757.077 577.79L810.419 552.571C810.419 552.571 749.756 661.408 728.838 685.447C707.92 709.488 682.82 745.024 672.361 775.338C661.902 805.651 635.754 905.992 648.304 894.493C660.855 882.995 875.265 788.926 892 791.016C908.733 793.106 1014.37 712.624 1007.05 696.945C999.726 681.267 934.881 428.641 917.101 411.756Z" fill="#4D8CBB"/>
</g>
</g>
</g>
<defs>
<clipPath id="clip0_236_4812">
<rect width="1266" height="975" fill="white"/>
</clipPath>
</defs>
</svg>
