<svg width="2736" height="797" viewBox="0 0 2736 797" fill="none" xmlns="http://www.w3.org/2000/svg">
<path opacity="0.35" fill-rule="evenodd" clip-rule="evenodd" d="M432.853 177.598C616.455 186.951 787.494 217.953 963.15 240.909C1138.81 263.866 1332.01 278.767 1507.39 255.485C1594.14 243.969 1674.34 223.364 1765.43 219.629C1850.53 216.139 1934.66 227.877 2013.2 241.201C2091.75 254.527 2169.95 269.826 2254.83 274.094C2339.71 278.362 2435.09 269.166 2485.14 241.932C2474.71 196.324 2464.29 150.716 2453.87 105.108C2197.6 143.254 1920.02 181.933 1655.46 153.807C1608.4 148.803 1560.98 141.659 1512.47 143.622C1421.42 147.306 1360.1 180.564 1284.01 200.531C1187.72 225.802 1056.89 229.281 952.789 209.342C860.184 191.605 783.617 156.515 680.643 154.972C617.558 154.026 557.339 166.355 494.217 166.724C442.528 167.027 392.863 159.314 341.656 156.538C284.619 153.446 226.471 156.664 172.012 163.64C121.489 170.111 48.373 180.876 10.765 196.23C-32.1506 213.75 66.0497 198.585 81.7745 195.726C132.217 186.557 186.492 180.809 241.46 177.775C304.799 174.28 369.454 174.369 432.853 177.598Z" fill="#D6E4F6"/>
<path opacity="0.35" fill-rule="evenodd" clip-rule="evenodd" d="M444.476 248.98C561.781 252.609 673.832 268.712 787.667 280.399C901.502 292.086 1023.56 299.298 1135.64 285.232C1192.09 278.148 1244.66 265.808 1303.34 262.543C1395.72 257.403 1484.88 275.357 1569.22 291.008C1653.56 306.66 1750.59 320.671 1837.96 307.828C1889.16 300.304 1929.28 284.501 1976.58 273.742C2085.1 249.061 2220.77 252.986 2342.99 264.053C2465.21 275.119 2585.57 292.64 2711 292.864C2524.56 286.635 2333.47 280.56 2153.08 300.057C2022.5 314.169 1896.14 341.649 1761.1 337.597C1665.57 334.73 1576.74 316.12 1481.33 312.741C1361.03 308.481 1243.89 328.696 1123.34 331.644C984.389 335.041 849.475 315.502 716.37 299.495C583.264 283.488 438.968 270.843 306.557 287.715C273.095 291.978 240.84 298.09 206.035 300.106C179.57 301.639 120.719 301.71 134.252 286.64C144.023 275.759 197.553 266.674 222.081 262.336C291.141 250.117 369.46 246.659 444.476 248.98Z" fill="#D6E4F6"/>
<path opacity="0.35" fill-rule="evenodd" clip-rule="evenodd" d="M309.712 77.8392C414.791 95.2092 515.633 116.995 625.112 129.498C734.593 142.002 857.525 144.336 958.364 123.452C1022.58 110.153 1076.59 87.847 1147.86 82.3783C1271.73 72.8745 1396.31 117.924 1516.8 103.178C1557.6 98.1845 1591.22 86.854 1629.81 79.6452C1758.86 55.5345 1908.54 80.961 2049.97 89.074C2215.87 98.5905 2390.46 82.4014 2527.94 44.753C2422.16 79.0755 2271.4 81.834 2135.32 74.7658C1999.23 67.6977 1863.96 52.4531 1727.14 56.8054C1599.81 60.8567 1472.28 81.7763 1348.03 70.1172C1283.5 64.0627 1221.68 49.3186 1155.83 52.4762C1106.05 54.8645 1063.61 67.1476 1018.1 75.4197C855.369 104.996 661.148 81.7129 506.818 45.8705C402.766 21.7068 289.147 -9.36472 172.198 2.67963C140.254 5.9698 -19.7376 43.4498 36.6087 51.978C55.0321 54.7665 86.3272 52.8798 106.615 54.0192C129.902 55.3281 152.959 57.2356 175.725 59.5524C221.543 64.2149 266.125 70.635 309.712 77.8392Z" fill="#D6E4F6"/>
<path opacity="0.35" fill-rule="evenodd" clip-rule="evenodd" d="M457.817 506.937C641.403 523.838 812.428 579.862 988.069 621.346C1163.71 662.831 1356.9 689.758 1532.26 647.686C1619 626.875 1699.2 589.641 1790.28 582.89C1875.38 576.584 1959.5 597.795 2038.03 621.874C2116.57 645.954 2194.77 673.601 2279.64 681.314C2364.51 689.026 2459.89 672.409 2509.93 623.195C2499.51 540.777 2489.09 458.359 2478.67 375.941C2222.42 444.873 1944.86 514.771 1680.32 463.944C1633.26 454.902 1585.85 441.991 1537.35 445.538C1446.3 452.197 1384.98 512.297 1308.9 548.379C1212.62 594.046 1081.8 600.334 977.709 564.301C885.112 532.249 808.551 468.837 705.586 466.049C642.506 464.34 582.292 486.62 519.176 487.287C467.491 487.833 417.83 473.895 366.627 468.879C309.595 463.292 251.452 469.106 196.998 481.712C146.479 493.408 73.3689 512.86 35.7641 540.606C-7.14789 572.266 91.0442 544.862 106.768 539.695C157.206 523.125 211.476 512.739 266.439 507.256C329.773 500.941 394.423 501.102 457.817 506.937Z" fill="#D6E4F6"/>
<path opacity="0.35" fill-rule="evenodd" clip-rule="evenodd" d="M469.439 635.931C586.734 642.489 698.775 671.588 812.601 692.707C926.427 713.826 1048.48 726.86 1160.54 701.441C1216.99 688.639 1269.55 666.34 1328.23 660.441C1420.6 651.152 1509.75 683.596 1594.09 711.88C1678.42 740.164 1775.44 765.483 1862.81 742.275C1914 728.677 1954.12 700.12 2001.42 680.678C2109.92 636.077 2245.59 643.17 2367.79 663.169C2490 683.167 2610.35 714.829 2735.77 715.233C2549.35 703.977 2358.28 692.999 2177.9 728.231C2047.33 753.733 1920.98 803.393 1785.95 796.069C1690.43 790.889 1601.61 757.259 1506.2 751.153C1385.92 743.455 1268.78 779.985 1148.24 785.312C1009.31 791.451 874.404 756.142 741.31 727.216C608.215 698.29 463.931 675.439 331.531 705.928C298.072 713.633 265.82 724.678 231.018 728.321C204.555 731.09 145.709 731.219 159.241 703.986C169.011 684.323 222.537 667.905 247.063 660.065C316.117 637.985 394.429 631.736 469.439 635.931Z" fill="#D6E4F6"/>
<path opacity="0.35" fill-rule="evenodd" clip-rule="evenodd" d="M334.686 326.663C439.756 358.052 540.59 397.421 650.06 420.016C759.531 442.61 882.453 446.828 983.283 409.089C1047.5 385.057 1101.5 344.748 1172.76 334.866C1296.62 317.691 1421.2 399.101 1541.67 372.453C1582.47 363.429 1616.09 342.954 1654.67 329.926C1783.71 286.356 1933.38 332.304 2074.8 346.965C2240.68 364.162 2415.25 334.907 2552.73 266.873C2446.95 328.897 2296.21 333.882 2160.14 321.109C2024.06 308.336 1888.81 280.788 1752 288.653C1624.67 295.974 1497.15 333.778 1372.91 312.708C1308.4 301.767 1246.58 275.123 1180.74 280.829C1130.95 285.145 1088.52 307.342 1043.01 322.291C880.297 375.737 686.092 333.663 531.775 268.892C427.732 225.226 314.123 169.077 197.184 190.842C165.243 196.788 5.2642 264.518 61.6057 279.929C80.0276 284.968 111.32 281.559 131.606 283.618C154.891 285.983 177.946 289.43 200.71 293.617C246.525 302.043 291.103 313.644 334.686 326.663Z" fill="#D6E4F6"/>
</svg>
